M48
; DRILL file {KiCad 5.1.2} date 2019-08-02T13:22:23 CEST
; FORMAT={-:-/ absolute / inch / decimal}
; #@! TF.CreationDate,2019-08-02T13:22:23+02:00
; #@! TF.GenerationSoftware,Kicad,Pcbnew,5.1.2
; #@! TF.FileFunction,Plated,1,2,PTH
FMAT,2
INCH
T1C0.0157
T2C0.0354
T3C0.0394
T4C0.0551
%
G90
G05
T1
X0.04Y-0.5
X0.07Y-0.53
X0.18Y-1.86
X0.36Y-1.64
X0.36Y-2.32
X0.37Y-2.68
X0.39Y-2.2677
X0.4Y-2.65
X0.4128Y-1.6428
T2
X0.1401Y-1.955
X0.1401Y-2.0338
X0.1401Y-2.1913
X0.1401Y-2.27
X0.27Y-1.955
X0.27Y-2.0338
X0.27Y-2.1913
X0.27Y-2.27
T3
X0.5638Y-1.98
X0.5638Y-2.2556
X0.5638Y-2.5312
X0.8Y-1.98
X0.8Y-2.2556
X0.8Y-2.5306
X1.9638Y-0.21
X1.9638Y-0.4856
X1.9638Y-0.7612
X2.2Y-0.21
X2.2Y-0.4856
X2.2Y-0.7606
T4
X1.95Y-1.3953
X1.95Y-1.6
X2.1469Y-1.3953
X2.1469Y-1.6
X2.3437Y-1.3953
X2.3437Y-1.6
X2.5406Y-1.3953
X2.5406Y-1.6
X0.2094Y-1.15
X0.2094Y-1.3547
X0.4063Y-1.15
X0.4063Y-1.3547
X0.6031Y-1.15
X0.6031Y-1.3547
X0.8Y-1.15
X0.8Y-1.3547
X1.3953Y-1.9594
X1.3953Y-2.1563
X1.3953Y-2.3531
X1.3953Y-2.55
X1.6Y-1.9594
X1.6Y-2.1563
X1.6Y-2.3531
X1.6Y-2.55
X1.15Y-0.2
X1.15Y-0.3969
X1.15Y-0.5937
X1.15Y-0.7906
X1.3547Y-0.2
X1.3547Y-0.3969
X1.3547Y-0.5937
X1.3547Y-0.7906
T0
M30
