G04 #@! TF.GenerationSoftware,KiCad,Pcbnew,5.1.2*
G04 #@! TF.CreationDate,2019-08-02T13:22:20+02:00*
G04 #@! TF.ProjectId,junction,6a756e63-7469-46f6-9e2e-6b696361645f,rev?*
G04 #@! TF.SameCoordinates,Original*
G04 #@! TF.FileFunction,Soldermask,Bot*
G04 #@! TF.FilePolarity,Negative*
%FSLAX46Y46*%
G04 Gerber Fmt 4.6, Leading zero omitted, Abs format (unit mm)*
G04 Created by KiCad (PCBNEW 5.1.2) date 2019-08-02 13:22:20*
%MOMM*%
%LPD*%
G04 APERTURE LIST*
%ADD10C,0.100000*%
G04 APERTURE END LIST*
D10*
G36*
X65145256Y-63161298D02*
G01*
X65251579Y-63182447D01*
X65552042Y-63306903D01*
X65822451Y-63487585D01*
X66052415Y-63717549D01*
X66233097Y-63987958D01*
X66316159Y-64188486D01*
X66357553Y-64288422D01*
X66419245Y-64598565D01*
X66421000Y-64607391D01*
X66421000Y-64932609D01*
X66357553Y-65251579D01*
X66233097Y-65552042D01*
X66052415Y-65822451D01*
X65822451Y-66052415D01*
X65552042Y-66233097D01*
X65251579Y-66357553D01*
X65145256Y-66378702D01*
X64932611Y-66421000D01*
X64607389Y-66421000D01*
X64394744Y-66378702D01*
X64288421Y-66357553D01*
X63987958Y-66233097D01*
X63717549Y-66052415D01*
X63487585Y-65822451D01*
X63306903Y-65552042D01*
X63182447Y-65251579D01*
X63119000Y-64932609D01*
X63119000Y-64607391D01*
X63120756Y-64598565D01*
X63182447Y-64288422D01*
X63223842Y-64188486D01*
X63306903Y-63987958D01*
X63487585Y-63717549D01*
X63717549Y-63487585D01*
X63987958Y-63306903D01*
X64288421Y-63182447D01*
X64394744Y-63161298D01*
X64607389Y-63119000D01*
X64932611Y-63119000D01*
X65145256Y-63161298D01*
X65145256Y-63161298D01*
G37*
G36*
X5455256Y-63161298D02*
G01*
X5561579Y-63182447D01*
X5862042Y-63306903D01*
X6132451Y-63487585D01*
X6362415Y-63717549D01*
X6543097Y-63987958D01*
X6626159Y-64188486D01*
X6667553Y-64288422D01*
X6729245Y-64598565D01*
X6731000Y-64607391D01*
X6731000Y-64932609D01*
X6667553Y-65251579D01*
X6543097Y-65552042D01*
X6362415Y-65822451D01*
X6132451Y-66052415D01*
X5862042Y-66233097D01*
X5561579Y-66357553D01*
X5455256Y-66378702D01*
X5242611Y-66421000D01*
X4917389Y-66421000D01*
X4704744Y-66378702D01*
X4598421Y-66357553D01*
X4297958Y-66233097D01*
X4027549Y-66052415D01*
X3797585Y-65822451D01*
X3616903Y-65552042D01*
X3492447Y-65251579D01*
X3429000Y-64932609D01*
X3429000Y-64607391D01*
X3430756Y-64598565D01*
X3492447Y-64288422D01*
X3533842Y-64188486D01*
X3616903Y-63987958D01*
X3797585Y-63717549D01*
X4027549Y-63487585D01*
X4297958Y-63306903D01*
X4598421Y-63182447D01*
X4704744Y-63161298D01*
X4917389Y-63119000D01*
X5242611Y-63119000D01*
X5455256Y-63161298D01*
X5455256Y-63161298D01*
G37*
G36*
X36841000Y-66171000D02*
G01*
X34039000Y-66171000D01*
X34039000Y-63369000D01*
X36841000Y-63369000D01*
X36841000Y-66171000D01*
X36841000Y-66171000D01*
G37*
G36*
X42041000Y-66171000D02*
G01*
X39239000Y-66171000D01*
X39239000Y-63369000D01*
X42041000Y-63369000D01*
X42041000Y-66171000D01*
X42041000Y-66171000D01*
G37*
G36*
X14626564Y-63281389D02*
G01*
X14781622Y-63345616D01*
X14817835Y-63360616D01*
X14989973Y-63475635D01*
X15136365Y-63622027D01*
X15241363Y-63779167D01*
X15251385Y-63794167D01*
X15330611Y-63985436D01*
X15371000Y-64188484D01*
X15371000Y-64395516D01*
X15330611Y-64598564D01*
X15257598Y-64774833D01*
X15251384Y-64789835D01*
X15136365Y-64961973D01*
X14989973Y-65108365D01*
X14817835Y-65223384D01*
X14817834Y-65223385D01*
X14817833Y-65223385D01*
X14626564Y-65302611D01*
X14423516Y-65343000D01*
X14216484Y-65343000D01*
X14013436Y-65302611D01*
X13822167Y-65223385D01*
X13822166Y-65223385D01*
X13822165Y-65223384D01*
X13650027Y-65108365D01*
X13503635Y-64961973D01*
X13388616Y-64789835D01*
X13382402Y-64774833D01*
X13309389Y-64598564D01*
X13269000Y-64395516D01*
X13269000Y-64188484D01*
X13309389Y-63985436D01*
X13388615Y-63794167D01*
X13398638Y-63779167D01*
X13503635Y-63622027D01*
X13650027Y-63475635D01*
X13822165Y-63360616D01*
X13858378Y-63345616D01*
X14013436Y-63281389D01*
X14216484Y-63241000D01*
X14423516Y-63241000D01*
X14626564Y-63281389D01*
X14626564Y-63281389D01*
G37*
G36*
X20626564Y-63266389D02*
G01*
X20817833Y-63345615D01*
X20817835Y-63345616D01*
X20989973Y-63460635D01*
X21136365Y-63607027D01*
X21251385Y-63779167D01*
X21330611Y-63970436D01*
X21371000Y-64173484D01*
X21371000Y-64380516D01*
X21330611Y-64583564D01*
X21251385Y-64774833D01*
X21251384Y-64774835D01*
X21136365Y-64946973D01*
X20989973Y-65093365D01*
X20817835Y-65208384D01*
X20817834Y-65208385D01*
X20817833Y-65208385D01*
X20626564Y-65287611D01*
X20423516Y-65328000D01*
X20216484Y-65328000D01*
X20013436Y-65287611D01*
X19822167Y-65208385D01*
X19822166Y-65208385D01*
X19822165Y-65208384D01*
X19650027Y-65093365D01*
X19503635Y-64946973D01*
X19388616Y-64774835D01*
X19388615Y-64774833D01*
X19309389Y-64583564D01*
X19269000Y-64380516D01*
X19269000Y-64173484D01*
X19309389Y-63970436D01*
X19388615Y-63779167D01*
X19503635Y-63607027D01*
X19650027Y-63460635D01*
X19822165Y-63345616D01*
X19822167Y-63345615D01*
X20013436Y-63266389D01*
X20216484Y-63226000D01*
X20423516Y-63226000D01*
X20626564Y-63266389D01*
X20626564Y-63266389D01*
G37*
G36*
X35758433Y-58404893D02*
G01*
X35848657Y-58422839D01*
X35954267Y-58466585D01*
X36103621Y-58528449D01*
X36103622Y-58528450D01*
X36333086Y-58681772D01*
X36528228Y-58876914D01*
X36630675Y-59030237D01*
X36681551Y-59106379D01*
X36787161Y-59361344D01*
X36841000Y-59632012D01*
X36841000Y-59907988D01*
X36787161Y-60178656D01*
X36681551Y-60433621D01*
X36681550Y-60433622D01*
X36528228Y-60663086D01*
X36333086Y-60858228D01*
X36179763Y-60960675D01*
X36103621Y-61011551D01*
X35954267Y-61073415D01*
X35848657Y-61117161D01*
X35758433Y-61135107D01*
X35577988Y-61171000D01*
X35302012Y-61171000D01*
X35121567Y-61135107D01*
X35031343Y-61117161D01*
X34925733Y-61073415D01*
X34776379Y-61011551D01*
X34700237Y-60960675D01*
X34546914Y-60858228D01*
X34351772Y-60663086D01*
X34198450Y-60433622D01*
X34198449Y-60433621D01*
X34092839Y-60178656D01*
X34039000Y-59907988D01*
X34039000Y-59632012D01*
X34092839Y-59361344D01*
X34198449Y-59106379D01*
X34249325Y-59030237D01*
X34351772Y-58876914D01*
X34546914Y-58681772D01*
X34776378Y-58528450D01*
X34776379Y-58528449D01*
X34925733Y-58466585D01*
X35031343Y-58422839D01*
X35121567Y-58404893D01*
X35302012Y-58369000D01*
X35577988Y-58369000D01*
X35758433Y-58404893D01*
X35758433Y-58404893D01*
G37*
G36*
X40958433Y-58404893D02*
G01*
X41048657Y-58422839D01*
X41154267Y-58466585D01*
X41303621Y-58528449D01*
X41303622Y-58528450D01*
X41533086Y-58681772D01*
X41728228Y-58876914D01*
X41830675Y-59030237D01*
X41881551Y-59106379D01*
X41987161Y-59361344D01*
X42041000Y-59632012D01*
X42041000Y-59907988D01*
X41987161Y-60178656D01*
X41881551Y-60433621D01*
X41881550Y-60433622D01*
X41728228Y-60663086D01*
X41533086Y-60858228D01*
X41379763Y-60960675D01*
X41303621Y-61011551D01*
X41154267Y-61073415D01*
X41048657Y-61117161D01*
X40958433Y-61135107D01*
X40777988Y-61171000D01*
X40502012Y-61171000D01*
X40321567Y-61135107D01*
X40231343Y-61117161D01*
X40125733Y-61073415D01*
X39976379Y-61011551D01*
X39900237Y-60960675D01*
X39746914Y-60858228D01*
X39551772Y-60663086D01*
X39398450Y-60433622D01*
X39398449Y-60433621D01*
X39292839Y-60178656D01*
X39239000Y-59907988D01*
X39239000Y-59632012D01*
X39292839Y-59361344D01*
X39398449Y-59106379D01*
X39449325Y-59030237D01*
X39551772Y-58876914D01*
X39746914Y-58681772D01*
X39976378Y-58528450D01*
X39976379Y-58528449D01*
X40125733Y-58466585D01*
X40231343Y-58422839D01*
X40321567Y-58404893D01*
X40502012Y-58369000D01*
X40777988Y-58369000D01*
X40958433Y-58404893D01*
X40958433Y-58404893D01*
G37*
G36*
X3791642Y-56887781D02*
G01*
X3937414Y-56948162D01*
X3937416Y-56948163D01*
X4068608Y-57035822D01*
X4180178Y-57147392D01*
X4267837Y-57278584D01*
X4267838Y-57278586D01*
X4328219Y-57424358D01*
X4359000Y-57579107D01*
X4359000Y-57736893D01*
X4328219Y-57891642D01*
X4267838Y-58037414D01*
X4267837Y-58037416D01*
X4180178Y-58168608D01*
X4068608Y-58280178D01*
X3937416Y-58367837D01*
X3937415Y-58367838D01*
X3937414Y-58367838D01*
X3791642Y-58428219D01*
X3636893Y-58459000D01*
X3479107Y-58459000D01*
X3324358Y-58428219D01*
X3178586Y-58367838D01*
X3178585Y-58367838D01*
X3178584Y-58367837D01*
X3047392Y-58280178D01*
X2935822Y-58168608D01*
X2848163Y-58037416D01*
X2848162Y-58037414D01*
X2787781Y-57891642D01*
X2757000Y-57736893D01*
X2757000Y-57579107D01*
X2787781Y-57424358D01*
X2848162Y-57278586D01*
X2848163Y-57278584D01*
X2935822Y-57147392D01*
X3047392Y-57035822D01*
X3178584Y-56948163D01*
X3178586Y-56948162D01*
X3324358Y-56887781D01*
X3479107Y-56857000D01*
X3636893Y-56857000D01*
X3791642Y-56887781D01*
X3791642Y-56887781D01*
G37*
G36*
X7659000Y-58459000D02*
G01*
X6057000Y-58459000D01*
X6057000Y-56857000D01*
X7659000Y-56857000D01*
X7659000Y-58459000D01*
X7659000Y-58459000D01*
G37*
G36*
X14626564Y-56281389D02*
G01*
X14817833Y-56360615D01*
X14817835Y-56360616D01*
X14828642Y-56367837D01*
X14989973Y-56475635D01*
X15136365Y-56622027D01*
X15251385Y-56794167D01*
X15330611Y-56985436D01*
X15371000Y-57188484D01*
X15371000Y-57395516D01*
X15330611Y-57598564D01*
X15273314Y-57736892D01*
X15251384Y-57789835D01*
X15136365Y-57961973D01*
X14989973Y-58108365D01*
X14817835Y-58223384D01*
X14817834Y-58223385D01*
X14817833Y-58223385D01*
X14626564Y-58302611D01*
X14423516Y-58343000D01*
X14216484Y-58343000D01*
X14013436Y-58302611D01*
X13822167Y-58223385D01*
X13822166Y-58223385D01*
X13822165Y-58223384D01*
X13650027Y-58108365D01*
X13503635Y-57961973D01*
X13388616Y-57789835D01*
X13366686Y-57736892D01*
X13309389Y-57598564D01*
X13269000Y-57395516D01*
X13269000Y-57188484D01*
X13309389Y-56985436D01*
X13388615Y-56794167D01*
X13503635Y-56622027D01*
X13650027Y-56475635D01*
X13811358Y-56367837D01*
X13822165Y-56360616D01*
X13822167Y-56360615D01*
X14013436Y-56281389D01*
X14216484Y-56241000D01*
X14423516Y-56241000D01*
X14626564Y-56281389D01*
X14626564Y-56281389D01*
G37*
G36*
X20626564Y-56281389D02*
G01*
X20817833Y-56360615D01*
X20817835Y-56360616D01*
X20828642Y-56367837D01*
X20989973Y-56475635D01*
X21136365Y-56622027D01*
X21251385Y-56794167D01*
X21330611Y-56985436D01*
X21371000Y-57188484D01*
X21371000Y-57395516D01*
X21330611Y-57598564D01*
X21273314Y-57736892D01*
X21251384Y-57789835D01*
X21136365Y-57961973D01*
X20989973Y-58108365D01*
X20817835Y-58223384D01*
X20817834Y-58223385D01*
X20817833Y-58223385D01*
X20626564Y-58302611D01*
X20423516Y-58343000D01*
X20216484Y-58343000D01*
X20013436Y-58302611D01*
X19822167Y-58223385D01*
X19822166Y-58223385D01*
X19822165Y-58223384D01*
X19650027Y-58108365D01*
X19503635Y-57961973D01*
X19388616Y-57789835D01*
X19366686Y-57736892D01*
X19309389Y-57598564D01*
X19269000Y-57395516D01*
X19269000Y-57188484D01*
X19309389Y-56985436D01*
X19388615Y-56794167D01*
X19503635Y-56622027D01*
X19650027Y-56475635D01*
X19811358Y-56367837D01*
X19822165Y-56360616D01*
X19822167Y-56360615D01*
X20013436Y-56281389D01*
X20216484Y-56241000D01*
X20423516Y-56241000D01*
X20626564Y-56281389D01*
X20626564Y-56281389D01*
G37*
G36*
X7091642Y-54887781D02*
G01*
X7237414Y-54948162D01*
X7237416Y-54948163D01*
X7368608Y-55035822D01*
X7480178Y-55147392D01*
X7501068Y-55178657D01*
X7567838Y-55278586D01*
X7628219Y-55424358D01*
X7659000Y-55579107D01*
X7659000Y-55736893D01*
X7628219Y-55891642D01*
X7578551Y-56011550D01*
X7567837Y-56037416D01*
X7480178Y-56168608D01*
X7368608Y-56280178D01*
X7237416Y-56367837D01*
X7237415Y-56367838D01*
X7237414Y-56367838D01*
X7091642Y-56428219D01*
X6936893Y-56459000D01*
X6779107Y-56459000D01*
X6624358Y-56428219D01*
X6478586Y-56367838D01*
X6478585Y-56367838D01*
X6478584Y-56367837D01*
X6347392Y-56280178D01*
X6235822Y-56168608D01*
X6148163Y-56037416D01*
X6137449Y-56011550D01*
X6087781Y-55891642D01*
X6057000Y-55736893D01*
X6057000Y-55579107D01*
X6087781Y-55424358D01*
X6148162Y-55278586D01*
X6214932Y-55178657D01*
X6235822Y-55147392D01*
X6347392Y-55035822D01*
X6478584Y-54948163D01*
X6478586Y-54948162D01*
X6624358Y-54887781D01*
X6779107Y-54857000D01*
X6936893Y-54857000D01*
X7091642Y-54887781D01*
X7091642Y-54887781D01*
G37*
G36*
X3791642Y-54887781D02*
G01*
X3937414Y-54948162D01*
X3937416Y-54948163D01*
X4068608Y-55035822D01*
X4180178Y-55147392D01*
X4201068Y-55178657D01*
X4267838Y-55278586D01*
X4328219Y-55424358D01*
X4359000Y-55579107D01*
X4359000Y-55736893D01*
X4328219Y-55891642D01*
X4278551Y-56011550D01*
X4267837Y-56037416D01*
X4180178Y-56168608D01*
X4068608Y-56280178D01*
X3937416Y-56367837D01*
X3937415Y-56367838D01*
X3937414Y-56367838D01*
X3791642Y-56428219D01*
X3636893Y-56459000D01*
X3479107Y-56459000D01*
X3324358Y-56428219D01*
X3178586Y-56367838D01*
X3178585Y-56367838D01*
X3178584Y-56367837D01*
X3047392Y-56280178D01*
X2935822Y-56168608D01*
X2848163Y-56037416D01*
X2837449Y-56011550D01*
X2787781Y-55891642D01*
X2757000Y-55736893D01*
X2757000Y-55579107D01*
X2787781Y-55424358D01*
X2848162Y-55278586D01*
X2914932Y-55178657D01*
X2935822Y-55147392D01*
X3047392Y-55035822D01*
X3178584Y-54948163D01*
X3178586Y-54948162D01*
X3324358Y-54887781D01*
X3479107Y-54857000D01*
X3636893Y-54857000D01*
X3791642Y-54887781D01*
X3791642Y-54887781D01*
G37*
G36*
X35758433Y-53404893D02*
G01*
X35848657Y-53422839D01*
X35954267Y-53466585D01*
X36103621Y-53528449D01*
X36103622Y-53528450D01*
X36333086Y-53681772D01*
X36528228Y-53876914D01*
X36630675Y-54030237D01*
X36681551Y-54106379D01*
X36787161Y-54361344D01*
X36841000Y-54632012D01*
X36841000Y-54907988D01*
X36787161Y-55178656D01*
X36681551Y-55433621D01*
X36681550Y-55433622D01*
X36528228Y-55663086D01*
X36333086Y-55858228D01*
X36179763Y-55960675D01*
X36103621Y-56011551D01*
X36041177Y-56037416D01*
X35848657Y-56117161D01*
X35758433Y-56135107D01*
X35577988Y-56171000D01*
X35302012Y-56171000D01*
X35121567Y-56135107D01*
X35031343Y-56117161D01*
X34838823Y-56037416D01*
X34776379Y-56011551D01*
X34700237Y-55960675D01*
X34546914Y-55858228D01*
X34351772Y-55663086D01*
X34198450Y-55433622D01*
X34198449Y-55433621D01*
X34092839Y-55178656D01*
X34039000Y-54907988D01*
X34039000Y-54632012D01*
X34092839Y-54361344D01*
X34198449Y-54106379D01*
X34249325Y-54030237D01*
X34351772Y-53876914D01*
X34546914Y-53681772D01*
X34776378Y-53528450D01*
X34776379Y-53528449D01*
X34925733Y-53466585D01*
X35031343Y-53422839D01*
X35121567Y-53404893D01*
X35302012Y-53369000D01*
X35577988Y-53369000D01*
X35758433Y-53404893D01*
X35758433Y-53404893D01*
G37*
G36*
X40958433Y-53404893D02*
G01*
X41048657Y-53422839D01*
X41154267Y-53466585D01*
X41303621Y-53528449D01*
X41303622Y-53528450D01*
X41533086Y-53681772D01*
X41728228Y-53876914D01*
X41830675Y-54030237D01*
X41881551Y-54106379D01*
X41987161Y-54361344D01*
X42041000Y-54632012D01*
X42041000Y-54907988D01*
X41987161Y-55178656D01*
X41881551Y-55433621D01*
X41881550Y-55433622D01*
X41728228Y-55663086D01*
X41533086Y-55858228D01*
X41379763Y-55960675D01*
X41303621Y-56011551D01*
X41241177Y-56037416D01*
X41048657Y-56117161D01*
X40958433Y-56135107D01*
X40777988Y-56171000D01*
X40502012Y-56171000D01*
X40321567Y-56135107D01*
X40231343Y-56117161D01*
X40038823Y-56037416D01*
X39976379Y-56011551D01*
X39900237Y-55960675D01*
X39746914Y-55858228D01*
X39551772Y-55663086D01*
X39398450Y-55433622D01*
X39398449Y-55433621D01*
X39292839Y-55178656D01*
X39239000Y-54907988D01*
X39239000Y-54632012D01*
X39292839Y-54361344D01*
X39398449Y-54106379D01*
X39449325Y-54030237D01*
X39551772Y-53876914D01*
X39746914Y-53681772D01*
X39976378Y-53528450D01*
X39976379Y-53528449D01*
X40125733Y-53466585D01*
X40231343Y-53422839D01*
X40321567Y-53404893D01*
X40502012Y-53369000D01*
X40777988Y-53369000D01*
X40958433Y-53404893D01*
X40958433Y-53404893D01*
G37*
G36*
X3791642Y-50887781D02*
G01*
X3937414Y-50948162D01*
X3937416Y-50948163D01*
X4068608Y-51035822D01*
X4180178Y-51147392D01*
X4230954Y-51223385D01*
X4267838Y-51278586D01*
X4328219Y-51424358D01*
X4359000Y-51579107D01*
X4359000Y-51736893D01*
X4328219Y-51891642D01*
X4267838Y-52037414D01*
X4267837Y-52037416D01*
X4180178Y-52168608D01*
X4068608Y-52280178D01*
X3937416Y-52367837D01*
X3937415Y-52367838D01*
X3937414Y-52367838D01*
X3791642Y-52428219D01*
X3636893Y-52459000D01*
X3479107Y-52459000D01*
X3324358Y-52428219D01*
X3178586Y-52367838D01*
X3178585Y-52367838D01*
X3178584Y-52367837D01*
X3047392Y-52280178D01*
X2935822Y-52168608D01*
X2848163Y-52037416D01*
X2848162Y-52037414D01*
X2787781Y-51891642D01*
X2757000Y-51736893D01*
X2757000Y-51579107D01*
X2787781Y-51424358D01*
X2848162Y-51278586D01*
X2885046Y-51223385D01*
X2935822Y-51147392D01*
X3047392Y-51035822D01*
X3178584Y-50948163D01*
X3178586Y-50948162D01*
X3324358Y-50887781D01*
X3479107Y-50857000D01*
X3636893Y-50857000D01*
X3791642Y-50887781D01*
X3791642Y-50887781D01*
G37*
G36*
X7091642Y-50887781D02*
G01*
X7237414Y-50948162D01*
X7237416Y-50948163D01*
X7368608Y-51035822D01*
X7480178Y-51147392D01*
X7530954Y-51223385D01*
X7567838Y-51278586D01*
X7628219Y-51424358D01*
X7659000Y-51579107D01*
X7659000Y-51736893D01*
X7628219Y-51891642D01*
X7567838Y-52037414D01*
X7567837Y-52037416D01*
X7480178Y-52168608D01*
X7368608Y-52280178D01*
X7237416Y-52367837D01*
X7237415Y-52367838D01*
X7237414Y-52367838D01*
X7091642Y-52428219D01*
X6936893Y-52459000D01*
X6779107Y-52459000D01*
X6624358Y-52428219D01*
X6478586Y-52367838D01*
X6478585Y-52367838D01*
X6478584Y-52367837D01*
X6347392Y-52280178D01*
X6235822Y-52168608D01*
X6148163Y-52037416D01*
X6148162Y-52037414D01*
X6087781Y-51891642D01*
X6057000Y-51736893D01*
X6057000Y-51579107D01*
X6087781Y-51424358D01*
X6148162Y-51278586D01*
X6185046Y-51223385D01*
X6235822Y-51147392D01*
X6347392Y-51035822D01*
X6478584Y-50948163D01*
X6478586Y-50948162D01*
X6624358Y-50887781D01*
X6779107Y-50857000D01*
X6936893Y-50857000D01*
X7091642Y-50887781D01*
X7091642Y-50887781D01*
G37*
G36*
X21371000Y-51343000D02*
G01*
X19269000Y-51343000D01*
X19269000Y-49241000D01*
X21371000Y-49241000D01*
X21371000Y-51343000D01*
X21371000Y-51343000D01*
G37*
G36*
X14626564Y-49281389D02*
G01*
X14817833Y-49360615D01*
X14817835Y-49360616D01*
X14989973Y-49475635D01*
X15136365Y-49622027D01*
X15251385Y-49794167D01*
X15330611Y-49985436D01*
X15371000Y-50188484D01*
X15371000Y-50395516D01*
X15330611Y-50598564D01*
X15303885Y-50663086D01*
X15251384Y-50789835D01*
X15136365Y-50961973D01*
X14989973Y-51108365D01*
X14817835Y-51223384D01*
X14817834Y-51223385D01*
X14817833Y-51223385D01*
X14626564Y-51302611D01*
X14423516Y-51343000D01*
X14216484Y-51343000D01*
X14013436Y-51302611D01*
X13822167Y-51223385D01*
X13822166Y-51223385D01*
X13822165Y-51223384D01*
X13650027Y-51108365D01*
X13503635Y-50961973D01*
X13388616Y-50789835D01*
X13336115Y-50663086D01*
X13309389Y-50598564D01*
X13269000Y-50395516D01*
X13269000Y-50188484D01*
X13309389Y-49985436D01*
X13388615Y-49794167D01*
X13503635Y-49622027D01*
X13650027Y-49475635D01*
X13822165Y-49360616D01*
X13822167Y-49360615D01*
X14013436Y-49281389D01*
X14216484Y-49241000D01*
X14423516Y-49241000D01*
X14626564Y-49281389D01*
X14626564Y-49281389D01*
G37*
G36*
X35758433Y-48404893D02*
G01*
X35848657Y-48422839D01*
X35954267Y-48466585D01*
X36103621Y-48528449D01*
X36103622Y-48528450D01*
X36333086Y-48681772D01*
X36528228Y-48876914D01*
X36630675Y-49030237D01*
X36681551Y-49106379D01*
X36737313Y-49241000D01*
X36786860Y-49360616D01*
X36787161Y-49361344D01*
X36841000Y-49632012D01*
X36841000Y-49907988D01*
X36815256Y-50037414D01*
X36787161Y-50178657D01*
X36745109Y-50280178D01*
X36681551Y-50433621D01*
X36681550Y-50433622D01*
X36528228Y-50663086D01*
X36333086Y-50858228D01*
X36198489Y-50948162D01*
X36103621Y-51011551D01*
X35954267Y-51073415D01*
X35848657Y-51117161D01*
X35758433Y-51135107D01*
X35577988Y-51171000D01*
X35302012Y-51171000D01*
X35121567Y-51135107D01*
X35031343Y-51117161D01*
X34925733Y-51073415D01*
X34776379Y-51011551D01*
X34681511Y-50948162D01*
X34546914Y-50858228D01*
X34351772Y-50663086D01*
X34198450Y-50433622D01*
X34198449Y-50433621D01*
X34134891Y-50280178D01*
X34092839Y-50178657D01*
X34064744Y-50037414D01*
X34039000Y-49907988D01*
X34039000Y-49632012D01*
X34092839Y-49361344D01*
X34093141Y-49360616D01*
X34142687Y-49241000D01*
X34198449Y-49106379D01*
X34249325Y-49030237D01*
X34351772Y-48876914D01*
X34546914Y-48681772D01*
X34776378Y-48528450D01*
X34776379Y-48528449D01*
X34925733Y-48466585D01*
X35031343Y-48422839D01*
X35121567Y-48404893D01*
X35302012Y-48369000D01*
X35577988Y-48369000D01*
X35758433Y-48404893D01*
X35758433Y-48404893D01*
G37*
G36*
X40958433Y-48404893D02*
G01*
X41048657Y-48422839D01*
X41154267Y-48466585D01*
X41303621Y-48528449D01*
X41303622Y-48528450D01*
X41533086Y-48681772D01*
X41728228Y-48876914D01*
X41830675Y-49030237D01*
X41881551Y-49106379D01*
X41937313Y-49241000D01*
X41986860Y-49360616D01*
X41987161Y-49361344D01*
X42041000Y-49632012D01*
X42041000Y-49907988D01*
X42015256Y-50037414D01*
X41987161Y-50178657D01*
X41945109Y-50280178D01*
X41881551Y-50433621D01*
X41881550Y-50433622D01*
X41728228Y-50663086D01*
X41533086Y-50858228D01*
X41398489Y-50948162D01*
X41303621Y-51011551D01*
X41154267Y-51073415D01*
X41048657Y-51117161D01*
X40958433Y-51135107D01*
X40777988Y-51171000D01*
X40502012Y-51171000D01*
X40321567Y-51135107D01*
X40231343Y-51117161D01*
X40125733Y-51073415D01*
X39976379Y-51011551D01*
X39881511Y-50948162D01*
X39746914Y-50858228D01*
X39551772Y-50663086D01*
X39398450Y-50433622D01*
X39398449Y-50433621D01*
X39334891Y-50280178D01*
X39292839Y-50178657D01*
X39264744Y-50037414D01*
X39239000Y-49907988D01*
X39239000Y-49632012D01*
X39292839Y-49361344D01*
X39293141Y-49360616D01*
X39342687Y-49241000D01*
X39398449Y-49106379D01*
X39449325Y-49030237D01*
X39551772Y-48876914D01*
X39746914Y-48681772D01*
X39976378Y-48528450D01*
X39976379Y-48528449D01*
X40125733Y-48466585D01*
X40231343Y-48422839D01*
X40321567Y-48404893D01*
X40502012Y-48369000D01*
X40777988Y-48369000D01*
X40958433Y-48404893D01*
X40958433Y-48404893D01*
G37*
G36*
X3791642Y-48887781D02*
G01*
X3937414Y-48948162D01*
X3937416Y-48948163D01*
X4068608Y-49035822D01*
X4180178Y-49147392D01*
X4242724Y-49241000D01*
X4267838Y-49278586D01*
X4328219Y-49424358D01*
X4359000Y-49579107D01*
X4359000Y-49736893D01*
X4328219Y-49891642D01*
X4321449Y-49907986D01*
X4267837Y-50037416D01*
X4180178Y-50168608D01*
X4068608Y-50280178D01*
X3937416Y-50367837D01*
X3937415Y-50367838D01*
X3937414Y-50367838D01*
X3791642Y-50428219D01*
X3636893Y-50459000D01*
X3479107Y-50459000D01*
X3324358Y-50428219D01*
X3178586Y-50367838D01*
X3178585Y-50367838D01*
X3178584Y-50367837D01*
X3047392Y-50280178D01*
X2935822Y-50168608D01*
X2848163Y-50037416D01*
X2794551Y-49907986D01*
X2787781Y-49891642D01*
X2757000Y-49736893D01*
X2757000Y-49579107D01*
X2787781Y-49424358D01*
X2848162Y-49278586D01*
X2873276Y-49241000D01*
X2935822Y-49147392D01*
X3047392Y-49035822D01*
X3178584Y-48948163D01*
X3178586Y-48948162D01*
X3324358Y-48887781D01*
X3479107Y-48857000D01*
X3636893Y-48857000D01*
X3791642Y-48887781D01*
X3791642Y-48887781D01*
G37*
G36*
X7091642Y-48887781D02*
G01*
X7237414Y-48948162D01*
X7237416Y-48948163D01*
X7368608Y-49035822D01*
X7480178Y-49147392D01*
X7542724Y-49241000D01*
X7567838Y-49278586D01*
X7628219Y-49424358D01*
X7659000Y-49579107D01*
X7659000Y-49736893D01*
X7628219Y-49891642D01*
X7621449Y-49907986D01*
X7567837Y-50037416D01*
X7480178Y-50168608D01*
X7368608Y-50280178D01*
X7237416Y-50367837D01*
X7237415Y-50367838D01*
X7237414Y-50367838D01*
X7091642Y-50428219D01*
X6936893Y-50459000D01*
X6779107Y-50459000D01*
X6624358Y-50428219D01*
X6478586Y-50367838D01*
X6478585Y-50367838D01*
X6478584Y-50367837D01*
X6347392Y-50280178D01*
X6235822Y-50168608D01*
X6148163Y-50037416D01*
X6094551Y-49907986D01*
X6087781Y-49891642D01*
X6057000Y-49736893D01*
X6057000Y-49579107D01*
X6087781Y-49424358D01*
X6148162Y-49278586D01*
X6173276Y-49241000D01*
X6235822Y-49147392D01*
X6347392Y-49035822D01*
X6478584Y-48948163D01*
X6478586Y-48948162D01*
X6624358Y-48887781D01*
X6779107Y-48857000D01*
X6936893Y-48857000D01*
X7091642Y-48887781D01*
X7091642Y-48887781D01*
G37*
G36*
X64848433Y-39274893D02*
G01*
X64938657Y-39292839D01*
X65044267Y-39336585D01*
X65193621Y-39398449D01*
X65193622Y-39398450D01*
X65423086Y-39551772D01*
X65618228Y-39746914D01*
X65720675Y-39900237D01*
X65771551Y-39976379D01*
X65877161Y-40231344D01*
X65931000Y-40502012D01*
X65931000Y-40777988D01*
X65877161Y-41048656D01*
X65771551Y-41303621D01*
X65771550Y-41303622D01*
X65618228Y-41533086D01*
X65423086Y-41728228D01*
X65269763Y-41830675D01*
X65193621Y-41881551D01*
X65044267Y-41943415D01*
X64938657Y-41987161D01*
X64848433Y-42005107D01*
X64667988Y-42041000D01*
X64392012Y-42041000D01*
X64211567Y-42005107D01*
X64121343Y-41987161D01*
X64015733Y-41943415D01*
X63866379Y-41881551D01*
X63790237Y-41830675D01*
X63636914Y-41728228D01*
X63441772Y-41533086D01*
X63288450Y-41303622D01*
X63288449Y-41303621D01*
X63182839Y-41048656D01*
X63129000Y-40777988D01*
X63129000Y-40502012D01*
X63182839Y-40231344D01*
X63288449Y-39976379D01*
X63339325Y-39900237D01*
X63441772Y-39746914D01*
X63636914Y-39551772D01*
X63866378Y-39398450D01*
X63866379Y-39398449D01*
X64015733Y-39336585D01*
X64121343Y-39292839D01*
X64211567Y-39274893D01*
X64392012Y-39239000D01*
X64667988Y-39239000D01*
X64848433Y-39274893D01*
X64848433Y-39274893D01*
G37*
G36*
X59848433Y-39274893D02*
G01*
X59938657Y-39292839D01*
X60044267Y-39336585D01*
X60193621Y-39398449D01*
X60193622Y-39398450D01*
X60423086Y-39551772D01*
X60618228Y-39746914D01*
X60720675Y-39900237D01*
X60771551Y-39976379D01*
X60877161Y-40231344D01*
X60931000Y-40502012D01*
X60931000Y-40777988D01*
X60877161Y-41048656D01*
X60771551Y-41303621D01*
X60771550Y-41303622D01*
X60618228Y-41533086D01*
X60423086Y-41728228D01*
X60269763Y-41830675D01*
X60193621Y-41881551D01*
X60044267Y-41943415D01*
X59938657Y-41987161D01*
X59848433Y-42005107D01*
X59667988Y-42041000D01*
X59392012Y-42041000D01*
X59211567Y-42005107D01*
X59121343Y-41987161D01*
X59015733Y-41943415D01*
X58866379Y-41881551D01*
X58790237Y-41830675D01*
X58636914Y-41728228D01*
X58441772Y-41533086D01*
X58288450Y-41303622D01*
X58288449Y-41303621D01*
X58182839Y-41048656D01*
X58129000Y-40777988D01*
X58129000Y-40502012D01*
X58182839Y-40231344D01*
X58288449Y-39976379D01*
X58339325Y-39900237D01*
X58441772Y-39746914D01*
X58636914Y-39551772D01*
X58866378Y-39398450D01*
X58866379Y-39398449D01*
X59015733Y-39336585D01*
X59121343Y-39292839D01*
X59211567Y-39274893D01*
X59392012Y-39239000D01*
X59667988Y-39239000D01*
X59848433Y-39274893D01*
X59848433Y-39274893D01*
G37*
G36*
X54848433Y-39274893D02*
G01*
X54938657Y-39292839D01*
X55044267Y-39336585D01*
X55193621Y-39398449D01*
X55193622Y-39398450D01*
X55423086Y-39551772D01*
X55618228Y-39746914D01*
X55720675Y-39900237D01*
X55771551Y-39976379D01*
X55877161Y-40231344D01*
X55931000Y-40502012D01*
X55931000Y-40777988D01*
X55877161Y-41048656D01*
X55771551Y-41303621D01*
X55771550Y-41303622D01*
X55618228Y-41533086D01*
X55423086Y-41728228D01*
X55269763Y-41830675D01*
X55193621Y-41881551D01*
X55044267Y-41943415D01*
X54938657Y-41987161D01*
X54848433Y-42005107D01*
X54667988Y-42041000D01*
X54392012Y-42041000D01*
X54211567Y-42005107D01*
X54121343Y-41987161D01*
X54015733Y-41943415D01*
X53866379Y-41881551D01*
X53790237Y-41830675D01*
X53636914Y-41728228D01*
X53441772Y-41533086D01*
X53288450Y-41303622D01*
X53288449Y-41303621D01*
X53182839Y-41048656D01*
X53129000Y-40777988D01*
X53129000Y-40502012D01*
X53182839Y-40231344D01*
X53288449Y-39976379D01*
X53339325Y-39900237D01*
X53441772Y-39746914D01*
X53636914Y-39551772D01*
X53866378Y-39398450D01*
X53866379Y-39398449D01*
X54015733Y-39336585D01*
X54121343Y-39292839D01*
X54211567Y-39274893D01*
X54392012Y-39239000D01*
X54667988Y-39239000D01*
X54848433Y-39274893D01*
X54848433Y-39274893D01*
G37*
G36*
X50931000Y-42041000D02*
G01*
X48129000Y-42041000D01*
X48129000Y-39239000D01*
X50931000Y-39239000D01*
X50931000Y-42041000D01*
X50931000Y-42041000D01*
G37*
G36*
X50931000Y-36841000D02*
G01*
X48129000Y-36841000D01*
X48129000Y-34039000D01*
X50931000Y-34039000D01*
X50931000Y-36841000D01*
X50931000Y-36841000D01*
G37*
G36*
X64848433Y-34074893D02*
G01*
X64938657Y-34092839D01*
X65044267Y-34136585D01*
X65193621Y-34198449D01*
X65193622Y-34198450D01*
X65423086Y-34351772D01*
X65618228Y-34546914D01*
X65720675Y-34700237D01*
X65771551Y-34776379D01*
X65877161Y-35031344D01*
X65931000Y-35302012D01*
X65931000Y-35577988D01*
X65877161Y-35848656D01*
X65771551Y-36103621D01*
X65771550Y-36103622D01*
X65618228Y-36333086D01*
X65423086Y-36528228D01*
X65269763Y-36630675D01*
X65193621Y-36681551D01*
X65044267Y-36743415D01*
X64938657Y-36787161D01*
X64848433Y-36805107D01*
X64667988Y-36841000D01*
X64392012Y-36841000D01*
X64211567Y-36805107D01*
X64121343Y-36787161D01*
X64015733Y-36743415D01*
X63866379Y-36681551D01*
X63790237Y-36630675D01*
X63636914Y-36528228D01*
X63441772Y-36333086D01*
X63288450Y-36103622D01*
X63288449Y-36103621D01*
X63182839Y-35848656D01*
X63129000Y-35577988D01*
X63129000Y-35302012D01*
X63182839Y-35031344D01*
X63288449Y-34776379D01*
X63339325Y-34700237D01*
X63441772Y-34546914D01*
X63636914Y-34351772D01*
X63866378Y-34198450D01*
X63866379Y-34198449D01*
X64015733Y-34136585D01*
X64121343Y-34092839D01*
X64211567Y-34074893D01*
X64392012Y-34039000D01*
X64667988Y-34039000D01*
X64848433Y-34074893D01*
X64848433Y-34074893D01*
G37*
G36*
X54848433Y-34074893D02*
G01*
X54938657Y-34092839D01*
X55044267Y-34136585D01*
X55193621Y-34198449D01*
X55193622Y-34198450D01*
X55423086Y-34351772D01*
X55618228Y-34546914D01*
X55720675Y-34700237D01*
X55771551Y-34776379D01*
X55877161Y-35031344D01*
X55931000Y-35302012D01*
X55931000Y-35577988D01*
X55877161Y-35848656D01*
X55771551Y-36103621D01*
X55771550Y-36103622D01*
X55618228Y-36333086D01*
X55423086Y-36528228D01*
X55269763Y-36630675D01*
X55193621Y-36681551D01*
X55044267Y-36743415D01*
X54938657Y-36787161D01*
X54848433Y-36805107D01*
X54667988Y-36841000D01*
X54392012Y-36841000D01*
X54211567Y-36805107D01*
X54121343Y-36787161D01*
X54015733Y-36743415D01*
X53866379Y-36681551D01*
X53790237Y-36630675D01*
X53636914Y-36528228D01*
X53441772Y-36333086D01*
X53288450Y-36103622D01*
X53288449Y-36103621D01*
X53182839Y-35848656D01*
X53129000Y-35577988D01*
X53129000Y-35302012D01*
X53182839Y-35031344D01*
X53288449Y-34776379D01*
X53339325Y-34700237D01*
X53441772Y-34546914D01*
X53636914Y-34351772D01*
X53866378Y-34198450D01*
X53866379Y-34198449D01*
X54015733Y-34136585D01*
X54121343Y-34092839D01*
X54211567Y-34074893D01*
X54392012Y-34039000D01*
X54667988Y-34039000D01*
X54848433Y-34074893D01*
X54848433Y-34074893D01*
G37*
G36*
X59848433Y-34074893D02*
G01*
X59938657Y-34092839D01*
X60044267Y-34136585D01*
X60193621Y-34198449D01*
X60193622Y-34198450D01*
X60423086Y-34351772D01*
X60618228Y-34546914D01*
X60720675Y-34700237D01*
X60771551Y-34776379D01*
X60877161Y-35031344D01*
X60931000Y-35302012D01*
X60931000Y-35577988D01*
X60877161Y-35848656D01*
X60771551Y-36103621D01*
X60771550Y-36103622D01*
X60618228Y-36333086D01*
X60423086Y-36528228D01*
X60269763Y-36630675D01*
X60193621Y-36681551D01*
X60044267Y-36743415D01*
X59938657Y-36787161D01*
X59848433Y-36805107D01*
X59667988Y-36841000D01*
X59392012Y-36841000D01*
X59211567Y-36805107D01*
X59121343Y-36787161D01*
X59015733Y-36743415D01*
X58866379Y-36681551D01*
X58790237Y-36630675D01*
X58636914Y-36528228D01*
X58441772Y-36333086D01*
X58288450Y-36103622D01*
X58288449Y-36103621D01*
X58182839Y-35848656D01*
X58129000Y-35577988D01*
X58129000Y-35302012D01*
X58182839Y-35031344D01*
X58288449Y-34776379D01*
X58339325Y-34700237D01*
X58441772Y-34546914D01*
X58636914Y-34351772D01*
X58866378Y-34198450D01*
X58866379Y-34198449D01*
X59015733Y-34136585D01*
X59121343Y-34092839D01*
X59211567Y-34074893D01*
X59392012Y-34039000D01*
X59667988Y-34039000D01*
X59848433Y-34074893D01*
X59848433Y-34074893D01*
G37*
G36*
X21721000Y-35811000D02*
G01*
X18919000Y-35811000D01*
X18919000Y-33009000D01*
X21721000Y-33009000D01*
X21721000Y-35811000D01*
X21721000Y-35811000D01*
G37*
G36*
X5638433Y-33044893D02*
G01*
X5728657Y-33062839D01*
X5834267Y-33106585D01*
X5983621Y-33168449D01*
X5983622Y-33168450D01*
X6213086Y-33321772D01*
X6408228Y-33516914D01*
X6510675Y-33670237D01*
X6561551Y-33746379D01*
X6667161Y-34001344D01*
X6721000Y-34272012D01*
X6721000Y-34547988D01*
X6667161Y-34818656D01*
X6561551Y-35073621D01*
X6561550Y-35073622D01*
X6408228Y-35303086D01*
X6213086Y-35498228D01*
X6093719Y-35577986D01*
X5983621Y-35651551D01*
X5834267Y-35713415D01*
X5728657Y-35757161D01*
X5638433Y-35775107D01*
X5457988Y-35811000D01*
X5182012Y-35811000D01*
X5001567Y-35775107D01*
X4911343Y-35757161D01*
X4805733Y-35713415D01*
X4656379Y-35651551D01*
X4546281Y-35577986D01*
X4426914Y-35498228D01*
X4231772Y-35303086D01*
X4078450Y-35073622D01*
X4078449Y-35073621D01*
X3972839Y-34818656D01*
X3919000Y-34547988D01*
X3919000Y-34272012D01*
X3972839Y-34001344D01*
X4078449Y-33746379D01*
X4129325Y-33670237D01*
X4231772Y-33516914D01*
X4426914Y-33321772D01*
X4656378Y-33168450D01*
X4656379Y-33168449D01*
X4805733Y-33106585D01*
X4911343Y-33062839D01*
X5001567Y-33044893D01*
X5182012Y-33009000D01*
X5457988Y-33009000D01*
X5638433Y-33044893D01*
X5638433Y-33044893D01*
G37*
G36*
X10638433Y-33044893D02*
G01*
X10728657Y-33062839D01*
X10834267Y-33106585D01*
X10983621Y-33168449D01*
X10983622Y-33168450D01*
X11213086Y-33321772D01*
X11408228Y-33516914D01*
X11510675Y-33670237D01*
X11561551Y-33746379D01*
X11667161Y-34001344D01*
X11721000Y-34272012D01*
X11721000Y-34547988D01*
X11667161Y-34818656D01*
X11561551Y-35073621D01*
X11561550Y-35073622D01*
X11408228Y-35303086D01*
X11213086Y-35498228D01*
X11093719Y-35577986D01*
X10983621Y-35651551D01*
X10834267Y-35713415D01*
X10728657Y-35757161D01*
X10638433Y-35775107D01*
X10457988Y-35811000D01*
X10182012Y-35811000D01*
X10001567Y-35775107D01*
X9911343Y-35757161D01*
X9805733Y-35713415D01*
X9656379Y-35651551D01*
X9546281Y-35577986D01*
X9426914Y-35498228D01*
X9231772Y-35303086D01*
X9078450Y-35073622D01*
X9078449Y-35073621D01*
X8972839Y-34818656D01*
X8919000Y-34547988D01*
X8919000Y-34272012D01*
X8972839Y-34001344D01*
X9078449Y-33746379D01*
X9129325Y-33670237D01*
X9231772Y-33516914D01*
X9426914Y-33321772D01*
X9656378Y-33168450D01*
X9656379Y-33168449D01*
X9805733Y-33106585D01*
X9911343Y-33062839D01*
X10001567Y-33044893D01*
X10182012Y-33009000D01*
X10457988Y-33009000D01*
X10638433Y-33044893D01*
X10638433Y-33044893D01*
G37*
G36*
X15638433Y-33044893D02*
G01*
X15728657Y-33062839D01*
X15834267Y-33106585D01*
X15983621Y-33168449D01*
X15983622Y-33168450D01*
X16213086Y-33321772D01*
X16408228Y-33516914D01*
X16510675Y-33670237D01*
X16561551Y-33746379D01*
X16667161Y-34001344D01*
X16721000Y-34272012D01*
X16721000Y-34547988D01*
X16667161Y-34818656D01*
X16561551Y-35073621D01*
X16561550Y-35073622D01*
X16408228Y-35303086D01*
X16213086Y-35498228D01*
X16093719Y-35577986D01*
X15983621Y-35651551D01*
X15834267Y-35713415D01*
X15728657Y-35757161D01*
X15638433Y-35775107D01*
X15457988Y-35811000D01*
X15182012Y-35811000D01*
X15001567Y-35775107D01*
X14911343Y-35757161D01*
X14805733Y-35713415D01*
X14656379Y-35651551D01*
X14546281Y-35577986D01*
X14426914Y-35498228D01*
X14231772Y-35303086D01*
X14078450Y-35073622D01*
X14078449Y-35073621D01*
X13972839Y-34818656D01*
X13919000Y-34547988D01*
X13919000Y-34272012D01*
X13972839Y-34001344D01*
X14078449Y-33746379D01*
X14129325Y-33670237D01*
X14231772Y-33516914D01*
X14426914Y-33321772D01*
X14656378Y-33168450D01*
X14656379Y-33168449D01*
X14805733Y-33106585D01*
X14911343Y-33062839D01*
X15001567Y-33044893D01*
X15182012Y-33009000D01*
X15457988Y-33009000D01*
X15638433Y-33044893D01*
X15638433Y-33044893D01*
G37*
G36*
X10638433Y-27844893D02*
G01*
X10728657Y-27862839D01*
X10834267Y-27906585D01*
X10983621Y-27968449D01*
X10983622Y-27968450D01*
X11213086Y-28121772D01*
X11408228Y-28316914D01*
X11510675Y-28470237D01*
X11561551Y-28546379D01*
X11667161Y-28801344D01*
X11721000Y-29072012D01*
X11721000Y-29347988D01*
X11667161Y-29618656D01*
X11561551Y-29873621D01*
X11561550Y-29873622D01*
X11408228Y-30103086D01*
X11213086Y-30298228D01*
X11059763Y-30400675D01*
X10983621Y-30451551D01*
X10834267Y-30513415D01*
X10728657Y-30557161D01*
X10638433Y-30575107D01*
X10457988Y-30611000D01*
X10182012Y-30611000D01*
X10001567Y-30575107D01*
X9911343Y-30557161D01*
X9805733Y-30513415D01*
X9656379Y-30451551D01*
X9580237Y-30400675D01*
X9426914Y-30298228D01*
X9231772Y-30103086D01*
X9078450Y-29873622D01*
X9078449Y-29873621D01*
X8972839Y-29618656D01*
X8919000Y-29347988D01*
X8919000Y-29072012D01*
X8972839Y-28801344D01*
X9078449Y-28546379D01*
X9129325Y-28470237D01*
X9231772Y-28316914D01*
X9426914Y-28121772D01*
X9656378Y-27968450D01*
X9656379Y-27968449D01*
X9805733Y-27906585D01*
X9911343Y-27862839D01*
X10001567Y-27844893D01*
X10182012Y-27809000D01*
X10457988Y-27809000D01*
X10638433Y-27844893D01*
X10638433Y-27844893D01*
G37*
G36*
X15638433Y-27844893D02*
G01*
X15728657Y-27862839D01*
X15834267Y-27906585D01*
X15983621Y-27968449D01*
X15983622Y-27968450D01*
X16213086Y-28121772D01*
X16408228Y-28316914D01*
X16510675Y-28470237D01*
X16561551Y-28546379D01*
X16667161Y-28801344D01*
X16721000Y-29072012D01*
X16721000Y-29347988D01*
X16667161Y-29618656D01*
X16561551Y-29873621D01*
X16561550Y-29873622D01*
X16408228Y-30103086D01*
X16213086Y-30298228D01*
X16059763Y-30400675D01*
X15983621Y-30451551D01*
X15834267Y-30513415D01*
X15728657Y-30557161D01*
X15638433Y-30575107D01*
X15457988Y-30611000D01*
X15182012Y-30611000D01*
X15001567Y-30575107D01*
X14911343Y-30557161D01*
X14805733Y-30513415D01*
X14656379Y-30451551D01*
X14580237Y-30400675D01*
X14426914Y-30298228D01*
X14231772Y-30103086D01*
X14078450Y-29873622D01*
X14078449Y-29873621D01*
X13972839Y-29618656D01*
X13919000Y-29347988D01*
X13919000Y-29072012D01*
X13972839Y-28801344D01*
X14078449Y-28546379D01*
X14129325Y-28470237D01*
X14231772Y-28316914D01*
X14426914Y-28121772D01*
X14656378Y-27968450D01*
X14656379Y-27968449D01*
X14805733Y-27906585D01*
X14911343Y-27862839D01*
X15001567Y-27844893D01*
X15182012Y-27809000D01*
X15457988Y-27809000D01*
X15638433Y-27844893D01*
X15638433Y-27844893D01*
G37*
G36*
X21721000Y-30611000D02*
G01*
X18919000Y-30611000D01*
X18919000Y-27809000D01*
X21721000Y-27809000D01*
X21721000Y-30611000D01*
X21721000Y-30611000D01*
G37*
G36*
X5638433Y-27844893D02*
G01*
X5728657Y-27862839D01*
X5834267Y-27906585D01*
X5983621Y-27968449D01*
X5983622Y-27968450D01*
X6213086Y-28121772D01*
X6408228Y-28316914D01*
X6510675Y-28470237D01*
X6561551Y-28546379D01*
X6667161Y-28801344D01*
X6721000Y-29072012D01*
X6721000Y-29347988D01*
X6667161Y-29618656D01*
X6561551Y-29873621D01*
X6561550Y-29873622D01*
X6408228Y-30103086D01*
X6213086Y-30298228D01*
X6059763Y-30400675D01*
X5983621Y-30451551D01*
X5834267Y-30513415D01*
X5728657Y-30557161D01*
X5638433Y-30575107D01*
X5457988Y-30611000D01*
X5182012Y-30611000D01*
X5001567Y-30575107D01*
X4911343Y-30557161D01*
X4805733Y-30513415D01*
X4656379Y-30451551D01*
X4580237Y-30400675D01*
X4426914Y-30298228D01*
X4231772Y-30103086D01*
X4078450Y-29873622D01*
X4078449Y-29873621D01*
X3972839Y-29618656D01*
X3919000Y-29347988D01*
X3919000Y-29072012D01*
X3972839Y-28801344D01*
X4078449Y-28546379D01*
X4129325Y-28470237D01*
X4231772Y-28316914D01*
X4426914Y-28121772D01*
X4656378Y-27968450D01*
X4656379Y-27968449D01*
X4805733Y-27906585D01*
X4911343Y-27862839D01*
X5001567Y-27844893D01*
X5182012Y-27809000D01*
X5457988Y-27809000D01*
X5638433Y-27844893D01*
X5638433Y-27844893D01*
G37*
G36*
X34728433Y-18714893D02*
G01*
X34818657Y-18732839D01*
X34924267Y-18776585D01*
X35073621Y-18838449D01*
X35073622Y-18838450D01*
X35303086Y-18991772D01*
X35498228Y-19186914D01*
X35600675Y-19340237D01*
X35651551Y-19416379D01*
X35660305Y-19437514D01*
X35738199Y-19625564D01*
X35757161Y-19671344D01*
X35811000Y-19942012D01*
X35811000Y-20217988D01*
X35757161Y-20488656D01*
X35651551Y-20743621D01*
X35651550Y-20743622D01*
X35498228Y-20973086D01*
X35303086Y-21168228D01*
X35149763Y-21270675D01*
X35073621Y-21321551D01*
X34924267Y-21383415D01*
X34818657Y-21427161D01*
X34728433Y-21445107D01*
X34547988Y-21481000D01*
X34272012Y-21481000D01*
X34091567Y-21445107D01*
X34001343Y-21427161D01*
X33895733Y-21383415D01*
X33746379Y-21321551D01*
X33670237Y-21270675D01*
X33516914Y-21168228D01*
X33321772Y-20973086D01*
X33168450Y-20743622D01*
X33168449Y-20743621D01*
X33062839Y-20488656D01*
X33009000Y-20217988D01*
X33009000Y-19942012D01*
X33062839Y-19671344D01*
X33081802Y-19625564D01*
X33159695Y-19437514D01*
X33168449Y-19416379D01*
X33219325Y-19340237D01*
X33321772Y-19186914D01*
X33516914Y-18991772D01*
X33746378Y-18838450D01*
X33746379Y-18838449D01*
X33895733Y-18776585D01*
X34001343Y-18732839D01*
X34091567Y-18714893D01*
X34272012Y-18679000D01*
X34547988Y-18679000D01*
X34728433Y-18714893D01*
X34728433Y-18714893D01*
G37*
G36*
X29528433Y-18714893D02*
G01*
X29618657Y-18732839D01*
X29724267Y-18776585D01*
X29873621Y-18838449D01*
X29873622Y-18838450D01*
X30103086Y-18991772D01*
X30298228Y-19186914D01*
X30400675Y-19340237D01*
X30451551Y-19416379D01*
X30460305Y-19437514D01*
X30538199Y-19625564D01*
X30557161Y-19671344D01*
X30611000Y-19942012D01*
X30611000Y-20217988D01*
X30557161Y-20488656D01*
X30451551Y-20743621D01*
X30451550Y-20743622D01*
X30298228Y-20973086D01*
X30103086Y-21168228D01*
X29949763Y-21270675D01*
X29873621Y-21321551D01*
X29724267Y-21383415D01*
X29618657Y-21427161D01*
X29528433Y-21445107D01*
X29347988Y-21481000D01*
X29072012Y-21481000D01*
X28891567Y-21445107D01*
X28801343Y-21427161D01*
X28695733Y-21383415D01*
X28546379Y-21321551D01*
X28470237Y-21270675D01*
X28316914Y-21168228D01*
X28121772Y-20973086D01*
X27968450Y-20743622D01*
X27968449Y-20743621D01*
X27862839Y-20488656D01*
X27809000Y-20217988D01*
X27809000Y-19942012D01*
X27862839Y-19671344D01*
X27881802Y-19625564D01*
X27959695Y-19437514D01*
X27968449Y-19416379D01*
X28019325Y-19340237D01*
X28121772Y-19186914D01*
X28316914Y-18991772D01*
X28546378Y-18838450D01*
X28546379Y-18838449D01*
X28695733Y-18776585D01*
X28801343Y-18732839D01*
X28891567Y-18714893D01*
X29072012Y-18679000D01*
X29347988Y-18679000D01*
X29528433Y-18714893D01*
X29528433Y-18714893D01*
G37*
G36*
X50186564Y-18323389D02*
G01*
X50341622Y-18387616D01*
X50377835Y-18402616D01*
X50549973Y-18517635D01*
X50696365Y-18664027D01*
X50801363Y-18821167D01*
X50811385Y-18836167D01*
X50890611Y-19027436D01*
X50931000Y-19230484D01*
X50931000Y-19437516D01*
X50890611Y-19640564D01*
X50817598Y-19816833D01*
X50811384Y-19831835D01*
X50696365Y-20003973D01*
X50549973Y-20150365D01*
X50377835Y-20265384D01*
X50377834Y-20265385D01*
X50377833Y-20265385D01*
X50186564Y-20344611D01*
X49983516Y-20385000D01*
X49776484Y-20385000D01*
X49573436Y-20344611D01*
X49382167Y-20265385D01*
X49382166Y-20265385D01*
X49382165Y-20265384D01*
X49210027Y-20150365D01*
X49063635Y-20003973D01*
X48948616Y-19831835D01*
X48942402Y-19816833D01*
X48869389Y-19640564D01*
X48829000Y-19437516D01*
X48829000Y-19230484D01*
X48869389Y-19027436D01*
X48948615Y-18836167D01*
X48958638Y-18821167D01*
X49063635Y-18664027D01*
X49210027Y-18517635D01*
X49382165Y-18402616D01*
X49418378Y-18387616D01*
X49573436Y-18323389D01*
X49776484Y-18283000D01*
X49983516Y-18283000D01*
X50186564Y-18323389D01*
X50186564Y-18323389D01*
G37*
G36*
X56186564Y-18308389D02*
G01*
X56377833Y-18387615D01*
X56377835Y-18387616D01*
X56400284Y-18402616D01*
X56549973Y-18502635D01*
X56696365Y-18649027D01*
X56811385Y-18821167D01*
X56890611Y-19012436D01*
X56931000Y-19215484D01*
X56931000Y-19422516D01*
X56890611Y-19625564D01*
X56871648Y-19671344D01*
X56811384Y-19816835D01*
X56696365Y-19988973D01*
X56549973Y-20135365D01*
X56377835Y-20250384D01*
X56377834Y-20250385D01*
X56377833Y-20250385D01*
X56186564Y-20329611D01*
X55983516Y-20370000D01*
X55776484Y-20370000D01*
X55573436Y-20329611D01*
X55382167Y-20250385D01*
X55382166Y-20250385D01*
X55382165Y-20250384D01*
X55210027Y-20135365D01*
X55063635Y-19988973D01*
X54948616Y-19816835D01*
X54888352Y-19671344D01*
X54869389Y-19625564D01*
X54829000Y-19422516D01*
X54829000Y-19215484D01*
X54869389Y-19012436D01*
X54948615Y-18821167D01*
X55063635Y-18649027D01*
X55210027Y-18502635D01*
X55359716Y-18402616D01*
X55382165Y-18387616D01*
X55382167Y-18387615D01*
X55573436Y-18308389D01*
X55776484Y-18268000D01*
X55983516Y-18268000D01*
X56186564Y-18308389D01*
X56186564Y-18308389D01*
G37*
G36*
X29528433Y-13714893D02*
G01*
X29618657Y-13732839D01*
X29724267Y-13776585D01*
X29873621Y-13838449D01*
X29873622Y-13838450D01*
X30103086Y-13991772D01*
X30298228Y-14186914D01*
X30400675Y-14340237D01*
X30451551Y-14416379D01*
X30557161Y-14671344D01*
X30611000Y-14942012D01*
X30611000Y-15217988D01*
X30557161Y-15488656D01*
X30451551Y-15743621D01*
X30451550Y-15743622D01*
X30298228Y-15973086D01*
X30103086Y-16168228D01*
X29949763Y-16270675D01*
X29873621Y-16321551D01*
X29724267Y-16383415D01*
X29618657Y-16427161D01*
X29528433Y-16445107D01*
X29347988Y-16481000D01*
X29072012Y-16481000D01*
X28891567Y-16445107D01*
X28801343Y-16427161D01*
X28695733Y-16383415D01*
X28546379Y-16321551D01*
X28470237Y-16270675D01*
X28316914Y-16168228D01*
X28121772Y-15973086D01*
X27968450Y-15743622D01*
X27968449Y-15743621D01*
X27862839Y-15488656D01*
X27809000Y-15217988D01*
X27809000Y-14942012D01*
X27862839Y-14671344D01*
X27968449Y-14416379D01*
X28019325Y-14340237D01*
X28121772Y-14186914D01*
X28316914Y-13991772D01*
X28546378Y-13838450D01*
X28546379Y-13838449D01*
X28695733Y-13776585D01*
X28801343Y-13732839D01*
X28891567Y-13714893D01*
X29072012Y-13679000D01*
X29347988Y-13679000D01*
X29528433Y-13714893D01*
X29528433Y-13714893D01*
G37*
G36*
X34728433Y-13714893D02*
G01*
X34818657Y-13732839D01*
X34924267Y-13776585D01*
X35073621Y-13838449D01*
X35073622Y-13838450D01*
X35303086Y-13991772D01*
X35498228Y-14186914D01*
X35600675Y-14340237D01*
X35651551Y-14416379D01*
X35757161Y-14671344D01*
X35811000Y-14942012D01*
X35811000Y-15217988D01*
X35757161Y-15488656D01*
X35651551Y-15743621D01*
X35651550Y-15743622D01*
X35498228Y-15973086D01*
X35303086Y-16168228D01*
X35149763Y-16270675D01*
X35073621Y-16321551D01*
X34924267Y-16383415D01*
X34818657Y-16427161D01*
X34728433Y-16445107D01*
X34547988Y-16481000D01*
X34272012Y-16481000D01*
X34091567Y-16445107D01*
X34001343Y-16427161D01*
X33895733Y-16383415D01*
X33746379Y-16321551D01*
X33670237Y-16270675D01*
X33516914Y-16168228D01*
X33321772Y-15973086D01*
X33168450Y-15743622D01*
X33168449Y-15743621D01*
X33062839Y-15488656D01*
X33009000Y-15217988D01*
X33009000Y-14942012D01*
X33062839Y-14671344D01*
X33168449Y-14416379D01*
X33219325Y-14340237D01*
X33321772Y-14186914D01*
X33516914Y-13991772D01*
X33746378Y-13838450D01*
X33746379Y-13838449D01*
X33895733Y-13776585D01*
X34001343Y-13732839D01*
X34091567Y-13714893D01*
X34272012Y-13679000D01*
X34547988Y-13679000D01*
X34728433Y-13714893D01*
X34728433Y-13714893D01*
G37*
G36*
X50186564Y-11323389D02*
G01*
X50377833Y-11402615D01*
X50377835Y-11402616D01*
X50414569Y-11427161D01*
X50549973Y-11517635D01*
X50696365Y-11664027D01*
X50811385Y-11836167D01*
X50890611Y-12027436D01*
X50931000Y-12230484D01*
X50931000Y-12437516D01*
X50890611Y-12640564D01*
X50811385Y-12831833D01*
X50811384Y-12831835D01*
X50696365Y-13003973D01*
X50549973Y-13150365D01*
X50377835Y-13265384D01*
X50377834Y-13265385D01*
X50377833Y-13265385D01*
X50186564Y-13344611D01*
X49983516Y-13385000D01*
X49776484Y-13385000D01*
X49573436Y-13344611D01*
X49382167Y-13265385D01*
X49382166Y-13265385D01*
X49382165Y-13265384D01*
X49210027Y-13150365D01*
X49063635Y-13003973D01*
X48948616Y-12831835D01*
X48948615Y-12831833D01*
X48869389Y-12640564D01*
X48829000Y-12437516D01*
X48829000Y-12230484D01*
X48869389Y-12027436D01*
X48948615Y-11836167D01*
X49063635Y-11664027D01*
X49210027Y-11517635D01*
X49345431Y-11427161D01*
X49382165Y-11402616D01*
X49382167Y-11402615D01*
X49573436Y-11323389D01*
X49776484Y-11283000D01*
X49983516Y-11283000D01*
X50186564Y-11323389D01*
X50186564Y-11323389D01*
G37*
G36*
X56186564Y-11323389D02*
G01*
X56377833Y-11402615D01*
X56377835Y-11402616D01*
X56414569Y-11427161D01*
X56549973Y-11517635D01*
X56696365Y-11664027D01*
X56811385Y-11836167D01*
X56890611Y-12027436D01*
X56931000Y-12230484D01*
X56931000Y-12437516D01*
X56890611Y-12640564D01*
X56811385Y-12831833D01*
X56811384Y-12831835D01*
X56696365Y-13003973D01*
X56549973Y-13150365D01*
X56377835Y-13265384D01*
X56377834Y-13265385D01*
X56377833Y-13265385D01*
X56186564Y-13344611D01*
X55983516Y-13385000D01*
X55776484Y-13385000D01*
X55573436Y-13344611D01*
X55382167Y-13265385D01*
X55382166Y-13265385D01*
X55382165Y-13265384D01*
X55210027Y-13150365D01*
X55063635Y-13003973D01*
X54948616Y-12831835D01*
X54948615Y-12831833D01*
X54869389Y-12640564D01*
X54829000Y-12437516D01*
X54829000Y-12230484D01*
X54869389Y-12027436D01*
X54948615Y-11836167D01*
X55063635Y-11664027D01*
X55210027Y-11517635D01*
X55345431Y-11427161D01*
X55382165Y-11402616D01*
X55382167Y-11402615D01*
X55573436Y-11323389D01*
X55776484Y-11283000D01*
X55983516Y-11283000D01*
X56186564Y-11323389D01*
X56186564Y-11323389D01*
G37*
G36*
X29528433Y-8714893D02*
G01*
X29618657Y-8732839D01*
X29724267Y-8776585D01*
X29873621Y-8838449D01*
X29873622Y-8838450D01*
X30103086Y-8991772D01*
X30298228Y-9186914D01*
X30400675Y-9340237D01*
X30451551Y-9416379D01*
X30557161Y-9671344D01*
X30611000Y-9942012D01*
X30611000Y-10217988D01*
X30557161Y-10488656D01*
X30451551Y-10743621D01*
X30451550Y-10743622D01*
X30298228Y-10973086D01*
X30103086Y-11168228D01*
X29949763Y-11270675D01*
X29873621Y-11321551D01*
X29724267Y-11383415D01*
X29618657Y-11427161D01*
X29528433Y-11445107D01*
X29347988Y-11481000D01*
X29072012Y-11481000D01*
X28891567Y-11445107D01*
X28801343Y-11427161D01*
X28695733Y-11383415D01*
X28546379Y-11321551D01*
X28470237Y-11270675D01*
X28316914Y-11168228D01*
X28121772Y-10973086D01*
X27968450Y-10743622D01*
X27968449Y-10743621D01*
X27862839Y-10488656D01*
X27809000Y-10217988D01*
X27809000Y-9942012D01*
X27862839Y-9671344D01*
X27968449Y-9416379D01*
X28019325Y-9340237D01*
X28121772Y-9186914D01*
X28316914Y-8991772D01*
X28546378Y-8838450D01*
X28546379Y-8838449D01*
X28695733Y-8776585D01*
X28801343Y-8732839D01*
X28891567Y-8714893D01*
X29072012Y-8679000D01*
X29347988Y-8679000D01*
X29528433Y-8714893D01*
X29528433Y-8714893D01*
G37*
G36*
X34728433Y-8714893D02*
G01*
X34818657Y-8732839D01*
X34924267Y-8776585D01*
X35073621Y-8838449D01*
X35073622Y-8838450D01*
X35303086Y-8991772D01*
X35498228Y-9186914D01*
X35600675Y-9340237D01*
X35651551Y-9416379D01*
X35757161Y-9671344D01*
X35811000Y-9942012D01*
X35811000Y-10217988D01*
X35757161Y-10488656D01*
X35651551Y-10743621D01*
X35651550Y-10743622D01*
X35498228Y-10973086D01*
X35303086Y-11168228D01*
X35149763Y-11270675D01*
X35073621Y-11321551D01*
X34924267Y-11383415D01*
X34818657Y-11427161D01*
X34728433Y-11445107D01*
X34547988Y-11481000D01*
X34272012Y-11481000D01*
X34091567Y-11445107D01*
X34001343Y-11427161D01*
X33895733Y-11383415D01*
X33746379Y-11321551D01*
X33670237Y-11270675D01*
X33516914Y-11168228D01*
X33321772Y-10973086D01*
X33168450Y-10743622D01*
X33168449Y-10743621D01*
X33062839Y-10488656D01*
X33009000Y-10217988D01*
X33009000Y-9942012D01*
X33062839Y-9671344D01*
X33168449Y-9416379D01*
X33219325Y-9340237D01*
X33321772Y-9186914D01*
X33516914Y-8991772D01*
X33746378Y-8838450D01*
X33746379Y-8838449D01*
X33895733Y-8776585D01*
X34001343Y-8732839D01*
X34091567Y-8714893D01*
X34272012Y-8679000D01*
X34547988Y-8679000D01*
X34728433Y-8714893D01*
X34728433Y-8714893D01*
G37*
G36*
X65145256Y-3471298D02*
G01*
X65251579Y-3492447D01*
X65552042Y-3616903D01*
X65822451Y-3797585D01*
X66052415Y-4027549D01*
X66233097Y-4297958D01*
X66357553Y-4598421D01*
X66421000Y-4917391D01*
X66421000Y-5242609D01*
X66357553Y-5561579D01*
X66233097Y-5862042D01*
X66052415Y-6132451D01*
X65822451Y-6362415D01*
X65552042Y-6543097D01*
X65251579Y-6667553D01*
X65145256Y-6688702D01*
X64932611Y-6731000D01*
X64607389Y-6731000D01*
X64394744Y-6688702D01*
X64288421Y-6667553D01*
X63987958Y-6543097D01*
X63717549Y-6362415D01*
X63487585Y-6132451D01*
X63306903Y-5862042D01*
X63182447Y-5561579D01*
X63119000Y-5242609D01*
X63119000Y-4917391D01*
X63182447Y-4598421D01*
X63306903Y-4297958D01*
X63487585Y-4027549D01*
X63717549Y-3797585D01*
X63987958Y-3616903D01*
X64288421Y-3492447D01*
X64394744Y-3471298D01*
X64607389Y-3429000D01*
X64932611Y-3429000D01*
X65145256Y-3471298D01*
X65145256Y-3471298D01*
G37*
G36*
X5455256Y-3471298D02*
G01*
X5561579Y-3492447D01*
X5862042Y-3616903D01*
X6132451Y-3797585D01*
X6362415Y-4027549D01*
X6543097Y-4297958D01*
X6667553Y-4598421D01*
X6731000Y-4917391D01*
X6731000Y-5242609D01*
X6667553Y-5561579D01*
X6543097Y-5862042D01*
X6362415Y-6132451D01*
X6132451Y-6362415D01*
X5862042Y-6543097D01*
X5561579Y-6667553D01*
X5455256Y-6688702D01*
X5242611Y-6731000D01*
X4917389Y-6731000D01*
X4704744Y-6688702D01*
X4598421Y-6667553D01*
X4297958Y-6543097D01*
X4027549Y-6362415D01*
X3797585Y-6132451D01*
X3616903Y-5862042D01*
X3492447Y-5561579D01*
X3429000Y-5242609D01*
X3429000Y-4917391D01*
X3492447Y-4598421D01*
X3616903Y-4297958D01*
X3797585Y-4027549D01*
X4027549Y-3797585D01*
X4297958Y-3616903D01*
X4598421Y-3492447D01*
X4704744Y-3471298D01*
X4917389Y-3429000D01*
X5242611Y-3429000D01*
X5455256Y-3471298D01*
X5455256Y-3471298D01*
G37*
G36*
X35811000Y-6481000D02*
G01*
X33009000Y-6481000D01*
X33009000Y-3679000D01*
X35811000Y-3679000D01*
X35811000Y-6481000D01*
X35811000Y-6481000D01*
G37*
G36*
X30611000Y-6481000D02*
G01*
X27809000Y-6481000D01*
X27809000Y-3679000D01*
X30611000Y-3679000D01*
X30611000Y-6481000D01*
X30611000Y-6481000D01*
G37*
G36*
X50186564Y-4323389D02*
G01*
X50377833Y-4402615D01*
X50377835Y-4402616D01*
X50549973Y-4517635D01*
X50696365Y-4664027D01*
X50811385Y-4836167D01*
X50890611Y-5027436D01*
X50931000Y-5230484D01*
X50931000Y-5437516D01*
X50890611Y-5640564D01*
X50811385Y-5831833D01*
X50811384Y-5831835D01*
X50696365Y-6003973D01*
X50549973Y-6150365D01*
X50377835Y-6265384D01*
X50377834Y-6265385D01*
X50377833Y-6265385D01*
X50186564Y-6344611D01*
X49983516Y-6385000D01*
X49776484Y-6385000D01*
X49573436Y-6344611D01*
X49382167Y-6265385D01*
X49382166Y-6265385D01*
X49382165Y-6265384D01*
X49210027Y-6150365D01*
X49063635Y-6003973D01*
X48948616Y-5831835D01*
X48948615Y-5831833D01*
X48869389Y-5640564D01*
X48829000Y-5437516D01*
X48829000Y-5230484D01*
X48869389Y-5027436D01*
X48948615Y-4836167D01*
X49063635Y-4664027D01*
X49210027Y-4517635D01*
X49382165Y-4402616D01*
X49382167Y-4402615D01*
X49573436Y-4323389D01*
X49776484Y-4283000D01*
X49983516Y-4283000D01*
X50186564Y-4323389D01*
X50186564Y-4323389D01*
G37*
G36*
X56931000Y-6385000D02*
G01*
X54829000Y-6385000D01*
X54829000Y-4283000D01*
X56931000Y-4283000D01*
X56931000Y-6385000D01*
X56931000Y-6385000D01*
G37*
M02*
