M48
; DRILL file {KiCad 5.1.2} date 2019-07-18T12:52:02 CEST
; FORMAT={-:-/ absolute / inch / decimal}
; #@! TF.CreationDate,2019-07-18T12:52:02+02:00
; #@! TF.GenerationSoftware,Kicad,Pcbnew,5.1.2
; #@! TF.FileFunction,Plated,1,2,PTH
FMAT,2
INCH
T1C0.0157
T2C0.0354
T3C0.0394
T4C0.0551
%
G90
G05
T1
X0.04Y-0.5
X0.07Y-0.53
X0.18Y-1.86
X0.36Y-1.64
X0.4128Y-1.6428
X0.42Y-2.39
X0.42Y-2.5775
X0.46Y-2.43
X0.4614Y-2.5786
T2
X0.1401Y-1.955
X0.1401Y-2.0338
X0.1401Y-2.1913
X0.1401Y-2.27
X0.27Y-1.955
X0.27Y-2.0338
X0.27Y-2.1913
X0.27Y-2.27
T3
X0.5638Y-1.93
X0.5638Y-2.2056
X0.5638Y-2.4812
X0.8Y-1.93
X0.8Y-2.2056
X0.8Y-2.4806
X1.9638Y-0.25
X1.9638Y-0.5256
X1.9638Y-0.8012
X2.2Y-0.25
X2.2Y-0.5256
X2.2Y-0.8006
T4
X1.15Y-0.2
X1.15Y-0.3969
X1.15Y-0.5937
X1.15Y-0.7906
X1.3547Y-0.2
X1.3547Y-0.3969
X1.3547Y-0.5937
X1.3547Y-0.7906
X1.3953Y-1.9594
X1.3953Y-2.1563
X1.3953Y-2.3531
X1.3953Y-2.55
X1.6Y-1.9594
X1.6Y-2.1563
X1.6Y-2.3531
X1.6Y-2.55
X0.2094Y-1.15
X0.2094Y-1.3547
X0.4063Y-1.15
X0.4063Y-1.3547
X0.6031Y-1.15
X0.6031Y-1.3547
X0.8Y-1.15
X0.8Y-1.3547
X1.95Y-1.3953
X1.95Y-1.6
X2.1469Y-1.3953
X2.1469Y-1.6
X2.3437Y-1.3953
X2.3437Y-1.6
X2.5406Y-1.3953
X2.5406Y-1.6
T0
M30
