G04 #@! TF.GenerationSoftware,KiCad,Pcbnew,5.1.2*
G04 #@! TF.CreationDate,2019-08-02T13:22:20+02:00*
G04 #@! TF.ProjectId,junction,6a756e63-7469-46f6-9e2e-6b696361645f,rev?*
G04 #@! TF.SameCoordinates,Original*
G04 #@! TF.FileFunction,Copper,L1,Top*
G04 #@! TF.FilePolarity,Positive*
%FSLAX46Y46*%
G04 Gerber Fmt 4.6, Leading zero omitted, Abs format (unit mm)*
G04 Created by KiCad (PCBNEW 5.1.2) date 2019-08-02 13:22:20*
%MOMM*%
%LPD*%
G04 APERTURE LIST*
%ADD10C,2.700000*%
%ADD11R,2.700000X2.700000*%
%ADD12C,0.100000*%
%ADD13C,0.950000*%
%ADD14R,2.000000X2.000000*%
%ADD15C,2.000000*%
%ADD16R,1.500000X1.500000*%
%ADD17C,1.500000*%
%ADD18C,0.800000*%
%ADD19C,0.250000*%
%ADD20C,0.200000*%
G04 APERTURE END LIST*
D10*
X35440000Y-49770000D03*
X35440000Y-54770000D03*
D11*
X35440000Y-64770000D03*
D10*
X35440000Y-59770000D03*
X40640000Y-49770000D03*
X40640000Y-54770000D03*
X40640000Y-59770000D03*
D11*
X40640000Y-64770000D03*
X20320000Y-29210000D03*
D10*
X15320000Y-29210000D03*
X10320000Y-29210000D03*
X5320000Y-29210000D03*
X15320000Y-34410000D03*
D11*
X20320000Y-34410000D03*
D10*
X10320000Y-34410000D03*
X5320000Y-34410000D03*
X34410000Y-20080000D03*
X34410000Y-15080000D03*
D11*
X34410000Y-5080000D03*
D10*
X34410000Y-10080000D03*
X29210000Y-20080000D03*
X29210000Y-15080000D03*
X29210000Y-10080000D03*
D11*
X29210000Y-5080000D03*
X49530000Y-40640000D03*
D10*
X54530000Y-40640000D03*
X59530000Y-40640000D03*
X64530000Y-40640000D03*
X54530000Y-35440000D03*
D11*
X49530000Y-35440000D03*
D10*
X59530000Y-35440000D03*
X64530000Y-35440000D03*
D12*
G36*
X7880779Y-44067144D02*
G01*
X7903834Y-44070563D01*
X7926443Y-44076227D01*
X7948387Y-44084079D01*
X7969457Y-44094044D01*
X7989448Y-44106026D01*
X8008168Y-44119910D01*
X8025438Y-44135562D01*
X8041090Y-44152832D01*
X8054974Y-44171552D01*
X8066956Y-44191543D01*
X8076921Y-44212613D01*
X8084773Y-44234557D01*
X8090437Y-44257166D01*
X8093856Y-44280221D01*
X8095000Y-44303500D01*
X8095000Y-44878500D01*
X8093856Y-44901779D01*
X8090437Y-44924834D01*
X8084773Y-44947443D01*
X8076921Y-44969387D01*
X8066956Y-44990457D01*
X8054974Y-45010448D01*
X8041090Y-45029168D01*
X8025438Y-45046438D01*
X8008168Y-45062090D01*
X7989448Y-45075974D01*
X7969457Y-45087956D01*
X7948387Y-45097921D01*
X7926443Y-45105773D01*
X7903834Y-45111437D01*
X7880779Y-45114856D01*
X7857500Y-45116000D01*
X7382500Y-45116000D01*
X7359221Y-45114856D01*
X7336166Y-45111437D01*
X7313557Y-45105773D01*
X7291613Y-45097921D01*
X7270543Y-45087956D01*
X7250552Y-45075974D01*
X7231832Y-45062090D01*
X7214562Y-45046438D01*
X7198910Y-45029168D01*
X7185026Y-45010448D01*
X7173044Y-44990457D01*
X7163079Y-44969387D01*
X7155227Y-44947443D01*
X7149563Y-44924834D01*
X7146144Y-44901779D01*
X7145000Y-44878500D01*
X7145000Y-44303500D01*
X7146144Y-44280221D01*
X7149563Y-44257166D01*
X7155227Y-44234557D01*
X7163079Y-44212613D01*
X7173044Y-44191543D01*
X7185026Y-44171552D01*
X7198910Y-44152832D01*
X7214562Y-44135562D01*
X7231832Y-44119910D01*
X7250552Y-44106026D01*
X7270543Y-44094044D01*
X7291613Y-44084079D01*
X7313557Y-44076227D01*
X7336166Y-44070563D01*
X7359221Y-44067144D01*
X7382500Y-44066000D01*
X7857500Y-44066000D01*
X7880779Y-44067144D01*
X7880779Y-44067144D01*
G37*
D13*
X7620000Y-44591000D03*
D12*
G36*
X7880779Y-45817144D02*
G01*
X7903834Y-45820563D01*
X7926443Y-45826227D01*
X7948387Y-45834079D01*
X7969457Y-45844044D01*
X7989448Y-45856026D01*
X8008168Y-45869910D01*
X8025438Y-45885562D01*
X8041090Y-45902832D01*
X8054974Y-45921552D01*
X8066956Y-45941543D01*
X8076921Y-45962613D01*
X8084773Y-45984557D01*
X8090437Y-46007166D01*
X8093856Y-46030221D01*
X8095000Y-46053500D01*
X8095000Y-46628500D01*
X8093856Y-46651779D01*
X8090437Y-46674834D01*
X8084773Y-46697443D01*
X8076921Y-46719387D01*
X8066956Y-46740457D01*
X8054974Y-46760448D01*
X8041090Y-46779168D01*
X8025438Y-46796438D01*
X8008168Y-46812090D01*
X7989448Y-46825974D01*
X7969457Y-46837956D01*
X7948387Y-46847921D01*
X7926443Y-46855773D01*
X7903834Y-46861437D01*
X7880779Y-46864856D01*
X7857500Y-46866000D01*
X7382500Y-46866000D01*
X7359221Y-46864856D01*
X7336166Y-46861437D01*
X7313557Y-46855773D01*
X7291613Y-46847921D01*
X7270543Y-46837956D01*
X7250552Y-46825974D01*
X7231832Y-46812090D01*
X7214562Y-46796438D01*
X7198910Y-46779168D01*
X7185026Y-46760448D01*
X7173044Y-46740457D01*
X7163079Y-46719387D01*
X7155227Y-46697443D01*
X7149563Y-46674834D01*
X7146144Y-46651779D01*
X7145000Y-46628500D01*
X7145000Y-46053500D01*
X7146144Y-46030221D01*
X7149563Y-46007166D01*
X7155227Y-45984557D01*
X7163079Y-45962613D01*
X7173044Y-45941543D01*
X7185026Y-45921552D01*
X7198910Y-45902832D01*
X7214562Y-45885562D01*
X7231832Y-45869910D01*
X7250552Y-45856026D01*
X7270543Y-45844044D01*
X7291613Y-45834079D01*
X7313557Y-45826227D01*
X7336166Y-45820563D01*
X7359221Y-45817144D01*
X7382500Y-45816000D01*
X7857500Y-45816000D01*
X7880779Y-45817144D01*
X7880779Y-45817144D01*
G37*
D13*
X7620000Y-46341000D03*
D12*
G36*
X3054779Y-44067144D02*
G01*
X3077834Y-44070563D01*
X3100443Y-44076227D01*
X3122387Y-44084079D01*
X3143457Y-44094044D01*
X3163448Y-44106026D01*
X3182168Y-44119910D01*
X3199438Y-44135562D01*
X3215090Y-44152832D01*
X3228974Y-44171552D01*
X3240956Y-44191543D01*
X3250921Y-44212613D01*
X3258773Y-44234557D01*
X3264437Y-44257166D01*
X3267856Y-44280221D01*
X3269000Y-44303500D01*
X3269000Y-44878500D01*
X3267856Y-44901779D01*
X3264437Y-44924834D01*
X3258773Y-44947443D01*
X3250921Y-44969387D01*
X3240956Y-44990457D01*
X3228974Y-45010448D01*
X3215090Y-45029168D01*
X3199438Y-45046438D01*
X3182168Y-45062090D01*
X3163448Y-45075974D01*
X3143457Y-45087956D01*
X3122387Y-45097921D01*
X3100443Y-45105773D01*
X3077834Y-45111437D01*
X3054779Y-45114856D01*
X3031500Y-45116000D01*
X2556500Y-45116000D01*
X2533221Y-45114856D01*
X2510166Y-45111437D01*
X2487557Y-45105773D01*
X2465613Y-45097921D01*
X2444543Y-45087956D01*
X2424552Y-45075974D01*
X2405832Y-45062090D01*
X2388562Y-45046438D01*
X2372910Y-45029168D01*
X2359026Y-45010448D01*
X2347044Y-44990457D01*
X2337079Y-44969387D01*
X2329227Y-44947443D01*
X2323563Y-44924834D01*
X2320144Y-44901779D01*
X2319000Y-44878500D01*
X2319000Y-44303500D01*
X2320144Y-44280221D01*
X2323563Y-44257166D01*
X2329227Y-44234557D01*
X2337079Y-44212613D01*
X2347044Y-44191543D01*
X2359026Y-44171552D01*
X2372910Y-44152832D01*
X2388562Y-44135562D01*
X2405832Y-44119910D01*
X2424552Y-44106026D01*
X2444543Y-44094044D01*
X2465613Y-44084079D01*
X2487557Y-44076227D01*
X2510166Y-44070563D01*
X2533221Y-44067144D01*
X2556500Y-44066000D01*
X3031500Y-44066000D01*
X3054779Y-44067144D01*
X3054779Y-44067144D01*
G37*
D13*
X2794000Y-44591000D03*
D12*
G36*
X3054779Y-45817144D02*
G01*
X3077834Y-45820563D01*
X3100443Y-45826227D01*
X3122387Y-45834079D01*
X3143457Y-45844044D01*
X3163448Y-45856026D01*
X3182168Y-45869910D01*
X3199438Y-45885562D01*
X3215090Y-45902832D01*
X3228974Y-45921552D01*
X3240956Y-45941543D01*
X3250921Y-45962613D01*
X3258773Y-45984557D01*
X3264437Y-46007166D01*
X3267856Y-46030221D01*
X3269000Y-46053500D01*
X3269000Y-46628500D01*
X3267856Y-46651779D01*
X3264437Y-46674834D01*
X3258773Y-46697443D01*
X3250921Y-46719387D01*
X3240956Y-46740457D01*
X3228974Y-46760448D01*
X3215090Y-46779168D01*
X3199438Y-46796438D01*
X3182168Y-46812090D01*
X3163448Y-46825974D01*
X3143457Y-46837956D01*
X3122387Y-46847921D01*
X3100443Y-46855773D01*
X3077834Y-46861437D01*
X3054779Y-46864856D01*
X3031500Y-46866000D01*
X2556500Y-46866000D01*
X2533221Y-46864856D01*
X2510166Y-46861437D01*
X2487557Y-46855773D01*
X2465613Y-46847921D01*
X2444543Y-46837956D01*
X2424552Y-46825974D01*
X2405832Y-46812090D01*
X2388562Y-46796438D01*
X2372910Y-46779168D01*
X2359026Y-46760448D01*
X2347044Y-46740457D01*
X2337079Y-46719387D01*
X2329227Y-46697443D01*
X2323563Y-46674834D01*
X2320144Y-46651779D01*
X2319000Y-46628500D01*
X2319000Y-46053500D01*
X2320144Y-46030221D01*
X2323563Y-46007166D01*
X2329227Y-45984557D01*
X2337079Y-45962613D01*
X2347044Y-45941543D01*
X2359026Y-45921552D01*
X2372910Y-45902832D01*
X2388562Y-45885562D01*
X2405832Y-45869910D01*
X2424552Y-45856026D01*
X2444543Y-45844044D01*
X2465613Y-45834079D01*
X2487557Y-45826227D01*
X2510166Y-45820563D01*
X2533221Y-45817144D01*
X2556500Y-45816000D01*
X3031500Y-45816000D01*
X3054779Y-45817144D01*
X3054779Y-45817144D01*
G37*
D13*
X2794000Y-46341000D03*
D14*
X55880000Y-5334000D03*
D15*
X55880000Y-12334000D03*
X55880000Y-19319000D03*
X49880000Y-5334000D03*
X49880000Y-12334000D03*
X49880000Y-19334000D03*
D14*
X20320000Y-50292000D03*
D15*
X20320000Y-57292000D03*
X20320000Y-64277000D03*
X14320000Y-50292000D03*
X14320000Y-57292000D03*
X14320000Y-64292000D03*
D16*
X6858000Y-57658000D03*
D17*
X6858000Y-55658000D03*
X6858000Y-51658000D03*
X6858000Y-49658000D03*
X3558000Y-57658000D03*
X3558000Y-55658000D03*
X3558000Y-51658000D03*
X3558000Y-49658000D03*
D18*
X9906000Y-57600313D03*
X10160000Y-67310000D03*
X9144000Y-58928000D03*
X9398000Y-68072000D03*
X1016000Y-12700000D03*
X4572000Y-47244000D03*
X1778000Y-13462000D03*
X10484500Y-41726500D03*
X9144000Y-41656000D03*
D19*
X7045000Y-46341000D02*
X7620000Y-46341000D01*
X2032000Y-48514000D02*
X4205000Y-46341000D01*
X6858000Y-54597340D02*
X6108660Y-53848000D01*
X3302000Y-53848000D02*
X2032000Y-52578000D01*
X2032000Y-52578000D02*
X2032000Y-48514000D01*
X4205000Y-46341000D02*
X7045000Y-46341000D01*
X6858000Y-55658000D02*
X6858000Y-54597340D01*
X6108660Y-53848000D02*
X3302000Y-53848000D01*
X2294928Y-46840072D02*
X2794000Y-46341000D01*
X1270000Y-47865000D02*
X2294928Y-46840072D01*
X3558000Y-55658000D02*
X1270000Y-53370000D01*
X1270000Y-53370000D02*
X1270000Y-47865000D01*
X35440000Y-64770000D02*
X40640000Y-64770000D01*
X6858000Y-60452000D02*
X10795000Y-64389000D01*
X33840000Y-64770000D02*
X35440000Y-64770000D01*
X6858000Y-57658000D02*
X6858000Y-60452000D01*
X12619967Y-67737967D02*
X30872033Y-67737967D01*
X10795000Y-65913000D02*
X12619967Y-67737967D01*
X10795000Y-64389000D02*
X10795000Y-65913000D01*
X30872033Y-67737967D02*
X33840000Y-64770000D01*
X35440000Y-59770000D02*
X40640000Y-59770000D01*
X12307978Y-68187978D02*
X41032022Y-68187978D01*
X4307999Y-58407999D02*
X4307999Y-58709800D01*
X10344989Y-66224989D02*
X12307978Y-68187978D01*
X42672000Y-66548000D02*
X42672000Y-61802000D01*
X41989999Y-61119999D02*
X40640000Y-59770000D01*
X10344989Y-64746790D02*
X10344989Y-66224989D01*
X42672000Y-61802000D02*
X41989999Y-61119999D01*
X3558000Y-57658000D02*
X4307999Y-58407999D01*
X4307999Y-58709800D02*
X10344989Y-64746790D01*
X41032022Y-68187978D02*
X42672000Y-66548000D01*
X49530000Y-37040000D02*
X49530000Y-40640000D01*
X49530000Y-35440000D02*
X49530000Y-37040000D01*
X9906000Y-54706000D02*
X9906000Y-57034628D01*
X6858000Y-51658000D02*
X9906000Y-54706000D01*
X9906000Y-57034628D02*
X9906000Y-57600313D01*
X10559999Y-67709999D02*
X10160000Y-67310000D01*
X42106011Y-68637989D02*
X11487989Y-68637989D01*
X49530000Y-40640000D02*
X49530000Y-61214000D01*
X11487989Y-68637989D02*
X10559999Y-67709999D01*
X49530000Y-61214000D02*
X42106011Y-68637989D01*
X54530000Y-38730812D02*
X54530000Y-35440000D01*
X54530000Y-40640000D02*
X54530000Y-38730812D01*
X6858000Y-53086000D02*
X9144000Y-55372000D01*
X4986000Y-53086000D02*
X6858000Y-53086000D01*
X9144000Y-58362315D02*
X9144000Y-58928000D01*
X9144000Y-55372000D02*
X9144000Y-58362315D01*
X3558000Y-51658000D02*
X4986000Y-53086000D01*
X42386603Y-69088000D02*
X10414000Y-69088000D01*
X54530000Y-56944603D02*
X42386603Y-69088000D01*
X10414000Y-69088000D02*
X9797999Y-68471999D01*
X9797999Y-68471999D02*
X9398000Y-68072000D01*
X54530000Y-40640000D02*
X54530000Y-56944603D01*
X29210000Y-6680000D02*
X29210000Y-5080000D01*
X25476000Y-10414000D02*
X29210000Y-6680000D01*
X1016000Y-12700000D02*
X3302000Y-10414000D01*
X3302000Y-10414000D02*
X25476000Y-10414000D01*
X30810000Y-5080000D02*
X34410000Y-5080000D01*
X29210000Y-5080000D02*
X30810000Y-5080000D01*
X3558000Y-49658000D02*
X3558000Y-48258000D01*
X3558000Y-48258000D02*
X4572000Y-47244000D01*
X1778000Y-13462000D02*
X4064000Y-11176000D01*
X27300812Y-10080000D02*
X29210000Y-10080000D01*
X26204812Y-11176000D02*
X27300812Y-10080000D01*
X4064000Y-11176000D02*
X26204812Y-11176000D01*
X31119188Y-10080000D02*
X34410000Y-10080000D01*
X29210000Y-10080000D02*
X31119188Y-10080000D01*
X7620000Y-44591000D02*
X10484500Y-41726500D01*
X15240000Y-34490000D02*
X15320000Y-34410000D01*
X15320000Y-35480000D02*
X15320000Y-34410000D01*
X2794000Y-44591000D02*
X6209000Y-44591000D01*
X6209000Y-44591000D02*
X9144000Y-41656000D01*
D20*
G36*
X69621001Y-69621000D02*
G01*
X379000Y-69621000D01*
X379000Y-47865000D01*
X788683Y-47865000D01*
X791001Y-47888533D01*
X791000Y-53346477D01*
X788683Y-53370000D01*
X791000Y-53393523D01*
X791000Y-53393525D01*
X797931Y-53463899D01*
X825321Y-53554191D01*
X869800Y-53637405D01*
X929657Y-53710343D01*
X947940Y-53725347D01*
X2514627Y-55292035D01*
X2496426Y-55335975D01*
X2454000Y-55549265D01*
X2454000Y-55766735D01*
X2496426Y-55980025D01*
X2579648Y-56180940D01*
X2700467Y-56361759D01*
X2854241Y-56515533D01*
X3035060Y-56636352D01*
X3087323Y-56658000D01*
X3035060Y-56679648D01*
X2854241Y-56800467D01*
X2700467Y-56954241D01*
X2579648Y-57135060D01*
X2496426Y-57335975D01*
X2454000Y-57549265D01*
X2454000Y-57766735D01*
X2496426Y-57980025D01*
X2579648Y-58180940D01*
X2700467Y-58361759D01*
X2854241Y-58515533D01*
X3035060Y-58636352D01*
X3235975Y-58719574D01*
X3449265Y-58762000D01*
X3666735Y-58762000D01*
X3828651Y-58729793D01*
X3828999Y-58733323D01*
X3828999Y-58733326D01*
X3835930Y-58803700D01*
X3863321Y-58893992D01*
X3907799Y-58977205D01*
X3928363Y-59002262D01*
X3967657Y-59050143D01*
X3985935Y-59065143D01*
X7014522Y-62093731D01*
X6643136Y-61845578D01*
X6042574Y-61596817D01*
X5405022Y-61470000D01*
X4754978Y-61470000D01*
X4117426Y-61596817D01*
X3516864Y-61845578D01*
X2976373Y-62206723D01*
X2516723Y-62666373D01*
X2155578Y-63206864D01*
X1906817Y-63807426D01*
X1780000Y-64444978D01*
X1780000Y-65095022D01*
X1906817Y-65732574D01*
X2155578Y-66333136D01*
X2516723Y-66873627D01*
X2976373Y-67333277D01*
X3516864Y-67694422D01*
X4117426Y-67943183D01*
X4754978Y-68070000D01*
X5405022Y-68070000D01*
X6042574Y-67943183D01*
X6643136Y-67694422D01*
X7183627Y-67333277D01*
X7643277Y-66873627D01*
X8004422Y-66333136D01*
X8253183Y-65732574D01*
X8380000Y-65095022D01*
X8380000Y-64444978D01*
X8253183Y-63807426D01*
X8004422Y-63206864D01*
X7756270Y-62835478D01*
X9865989Y-64945198D01*
X9865990Y-66201456D01*
X9863672Y-66224989D01*
X9872921Y-66318889D01*
X9900311Y-66409181D01*
X9944789Y-66492394D01*
X9974967Y-66529165D01*
X10004647Y-66565332D01*
X10011315Y-66570804D01*
X9940066Y-66584976D01*
X9802847Y-66641814D01*
X9679353Y-66724330D01*
X9574330Y-66829353D01*
X9491814Y-66952847D01*
X9434976Y-67090066D01*
X9406000Y-67235738D01*
X9406000Y-67318000D01*
X9323738Y-67318000D01*
X9178066Y-67346976D01*
X9040847Y-67403814D01*
X8917353Y-67486330D01*
X8812330Y-67591353D01*
X8729814Y-67714847D01*
X8672976Y-67852066D01*
X8644000Y-67997738D01*
X8644000Y-68146262D01*
X8672976Y-68291934D01*
X8729814Y-68429153D01*
X8812330Y-68552647D01*
X8917353Y-68657670D01*
X9040847Y-68740186D01*
X9178066Y-68797024D01*
X9323738Y-68826000D01*
X9472262Y-68826000D01*
X9474205Y-68825613D01*
X9475930Y-68827338D01*
X9475935Y-68827342D01*
X10058657Y-69410065D01*
X10073657Y-69428343D01*
X10116417Y-69463435D01*
X10146594Y-69488200D01*
X10191073Y-69511974D01*
X10229808Y-69532679D01*
X10320100Y-69560069D01*
X10390474Y-69567000D01*
X10390477Y-69567000D01*
X10414000Y-69569317D01*
X10437523Y-69567000D01*
X42363080Y-69567000D01*
X42386603Y-69569317D01*
X42410126Y-69567000D01*
X42410129Y-69567000D01*
X42480503Y-69560069D01*
X42570795Y-69532679D01*
X42654008Y-69488200D01*
X42726946Y-69428343D01*
X42741950Y-69410060D01*
X47707032Y-64444978D01*
X61470000Y-64444978D01*
X61470000Y-65095022D01*
X61596817Y-65732574D01*
X61845578Y-66333136D01*
X62206723Y-66873627D01*
X62666373Y-67333277D01*
X63206864Y-67694422D01*
X63807426Y-67943183D01*
X64444978Y-68070000D01*
X65095022Y-68070000D01*
X65732574Y-67943183D01*
X66333136Y-67694422D01*
X66873627Y-67333277D01*
X67333277Y-66873627D01*
X67694422Y-66333136D01*
X67943183Y-65732574D01*
X68070000Y-65095022D01*
X68070000Y-64444978D01*
X67943183Y-63807426D01*
X67694422Y-63206864D01*
X67333277Y-62666373D01*
X66873627Y-62206723D01*
X66333136Y-61845578D01*
X65732574Y-61596817D01*
X65095022Y-61470000D01*
X64444978Y-61470000D01*
X63807426Y-61596817D01*
X63206864Y-61845578D01*
X62666373Y-62206723D01*
X62206723Y-62666373D01*
X61845578Y-63206864D01*
X61596817Y-63807426D01*
X61470000Y-64444978D01*
X47707032Y-64444978D01*
X54852065Y-57299946D01*
X54870343Y-57284946D01*
X54929122Y-57213322D01*
X54930200Y-57212009D01*
X54974679Y-57128795D01*
X54991237Y-57074211D01*
X55002069Y-57038503D01*
X55009000Y-56968129D01*
X55009000Y-56968126D01*
X55011317Y-56944603D01*
X55009000Y-56921080D01*
X55009000Y-42282104D01*
X55027038Y-42278516D01*
X55337147Y-42150065D01*
X55616237Y-41963583D01*
X55687940Y-41891880D01*
X58495909Y-41891880D01*
X58652235Y-42110141D01*
X58955911Y-42253135D01*
X59281650Y-42334139D01*
X59616932Y-42350037D01*
X59948873Y-42300220D01*
X60264717Y-42186602D01*
X60407765Y-42110141D01*
X60564091Y-41891880D01*
X59530000Y-40857789D01*
X58495909Y-41891880D01*
X55687940Y-41891880D01*
X55853583Y-41726237D01*
X56040065Y-41447147D01*
X56168516Y-41137038D01*
X56234000Y-40807829D01*
X56234000Y-40726932D01*
X57819963Y-40726932D01*
X57869780Y-41058873D01*
X57983398Y-41374717D01*
X58059859Y-41517765D01*
X58278120Y-41674091D01*
X59312211Y-40640000D01*
X59747789Y-40640000D01*
X60781880Y-41674091D01*
X61000141Y-41517765D01*
X61143135Y-41214089D01*
X61224139Y-40888350D01*
X61240037Y-40553068D01*
X61227897Y-40472171D01*
X62826000Y-40472171D01*
X62826000Y-40807829D01*
X62891484Y-41137038D01*
X63019935Y-41447147D01*
X63206417Y-41726237D01*
X63443763Y-41963583D01*
X63722853Y-42150065D01*
X64032962Y-42278516D01*
X64362171Y-42344000D01*
X64697829Y-42344000D01*
X65027038Y-42278516D01*
X65337147Y-42150065D01*
X65616237Y-41963583D01*
X65853583Y-41726237D01*
X66040065Y-41447147D01*
X66168516Y-41137038D01*
X66234000Y-40807829D01*
X66234000Y-40472171D01*
X66168516Y-40142962D01*
X66040065Y-39832853D01*
X65853583Y-39553763D01*
X65616237Y-39316417D01*
X65337147Y-39129935D01*
X65027038Y-39001484D01*
X64697829Y-38936000D01*
X64362171Y-38936000D01*
X64032962Y-39001484D01*
X63722853Y-39129935D01*
X63443763Y-39316417D01*
X63206417Y-39553763D01*
X63019935Y-39832853D01*
X62891484Y-40142962D01*
X62826000Y-40472171D01*
X61227897Y-40472171D01*
X61190220Y-40221127D01*
X61076602Y-39905283D01*
X61000141Y-39762235D01*
X60781880Y-39605909D01*
X59747789Y-40640000D01*
X59312211Y-40640000D01*
X58278120Y-39605909D01*
X58059859Y-39762235D01*
X57916865Y-40065911D01*
X57835861Y-40391650D01*
X57819963Y-40726932D01*
X56234000Y-40726932D01*
X56234000Y-40472171D01*
X56168516Y-40142962D01*
X56040065Y-39832853D01*
X55853583Y-39553763D01*
X55687940Y-39388120D01*
X58495909Y-39388120D01*
X59530000Y-40422211D01*
X60564091Y-39388120D01*
X60407765Y-39169859D01*
X60104089Y-39026865D01*
X59778350Y-38945861D01*
X59443068Y-38929963D01*
X59111127Y-38979780D01*
X58795283Y-39093398D01*
X58652235Y-39169859D01*
X58495909Y-39388120D01*
X55687940Y-39388120D01*
X55616237Y-39316417D01*
X55337147Y-39129935D01*
X55027038Y-39001484D01*
X55009000Y-38997896D01*
X55009000Y-37082104D01*
X55027038Y-37078516D01*
X55337147Y-36950065D01*
X55616237Y-36763583D01*
X55687940Y-36691880D01*
X58495909Y-36691880D01*
X58652235Y-36910141D01*
X58955911Y-37053135D01*
X59281650Y-37134139D01*
X59616932Y-37150037D01*
X59948873Y-37100220D01*
X60264717Y-36986602D01*
X60407765Y-36910141D01*
X60564091Y-36691880D01*
X59530000Y-35657789D01*
X58495909Y-36691880D01*
X55687940Y-36691880D01*
X55853583Y-36526237D01*
X56040065Y-36247147D01*
X56168516Y-35937038D01*
X56234000Y-35607829D01*
X56234000Y-35526932D01*
X57819963Y-35526932D01*
X57869780Y-35858873D01*
X57983398Y-36174717D01*
X58059859Y-36317765D01*
X58278120Y-36474091D01*
X59312211Y-35440000D01*
X59747789Y-35440000D01*
X60781880Y-36474091D01*
X61000141Y-36317765D01*
X61143135Y-36014089D01*
X61224139Y-35688350D01*
X61240037Y-35353068D01*
X61227897Y-35272171D01*
X62826000Y-35272171D01*
X62826000Y-35607829D01*
X62891484Y-35937038D01*
X63019935Y-36247147D01*
X63206417Y-36526237D01*
X63443763Y-36763583D01*
X63722853Y-36950065D01*
X64032962Y-37078516D01*
X64362171Y-37144000D01*
X64697829Y-37144000D01*
X65027038Y-37078516D01*
X65337147Y-36950065D01*
X65616237Y-36763583D01*
X65853583Y-36526237D01*
X66040065Y-36247147D01*
X66168516Y-35937038D01*
X66234000Y-35607829D01*
X66234000Y-35272171D01*
X66168516Y-34942962D01*
X66040065Y-34632853D01*
X65853583Y-34353763D01*
X65616237Y-34116417D01*
X65337147Y-33929935D01*
X65027038Y-33801484D01*
X64697829Y-33736000D01*
X64362171Y-33736000D01*
X64032962Y-33801484D01*
X63722853Y-33929935D01*
X63443763Y-34116417D01*
X63206417Y-34353763D01*
X63019935Y-34632853D01*
X62891484Y-34942962D01*
X62826000Y-35272171D01*
X61227897Y-35272171D01*
X61190220Y-35021127D01*
X61076602Y-34705283D01*
X61000141Y-34562235D01*
X60781880Y-34405909D01*
X59747789Y-35440000D01*
X59312211Y-35440000D01*
X58278120Y-34405909D01*
X58059859Y-34562235D01*
X57916865Y-34865911D01*
X57835861Y-35191650D01*
X57819963Y-35526932D01*
X56234000Y-35526932D01*
X56234000Y-35272171D01*
X56168516Y-34942962D01*
X56040065Y-34632853D01*
X55853583Y-34353763D01*
X55687940Y-34188120D01*
X58495909Y-34188120D01*
X59530000Y-35222211D01*
X60564091Y-34188120D01*
X60407765Y-33969859D01*
X60104089Y-33826865D01*
X59778350Y-33745861D01*
X59443068Y-33729963D01*
X59111127Y-33779780D01*
X58795283Y-33893398D01*
X58652235Y-33969859D01*
X58495909Y-34188120D01*
X55687940Y-34188120D01*
X55616237Y-34116417D01*
X55337147Y-33929935D01*
X55027038Y-33801484D01*
X54697829Y-33736000D01*
X54362171Y-33736000D01*
X54032962Y-33801484D01*
X53722853Y-33929935D01*
X53443763Y-34116417D01*
X53206417Y-34353763D01*
X53019935Y-34632853D01*
X52891484Y-34942962D01*
X52826000Y-35272171D01*
X52826000Y-35607829D01*
X52891484Y-35937038D01*
X53019935Y-36247147D01*
X53206417Y-36526237D01*
X53443763Y-36763583D01*
X53722853Y-36950065D01*
X54032962Y-37078516D01*
X54051001Y-37082104D01*
X54051000Y-38754337D01*
X54051001Y-38754347D01*
X54051001Y-38997896D01*
X54032962Y-39001484D01*
X53722853Y-39129935D01*
X53443763Y-39316417D01*
X53206417Y-39553763D01*
X53019935Y-39832853D01*
X52891484Y-40142962D01*
X52826000Y-40472171D01*
X52826000Y-40807829D01*
X52891484Y-41137038D01*
X53019935Y-41447147D01*
X53206417Y-41726237D01*
X53443763Y-41963583D01*
X53722853Y-42150065D01*
X54032962Y-42278516D01*
X54051000Y-42282104D01*
X54051001Y-56746194D01*
X50009000Y-60788195D01*
X50009000Y-42345712D01*
X50880000Y-42345712D01*
X50949396Y-42338877D01*
X51016125Y-42318635D01*
X51077623Y-42285764D01*
X51131526Y-42241526D01*
X51175764Y-42187623D01*
X51208635Y-42126125D01*
X51228877Y-42059396D01*
X51235712Y-41990000D01*
X51235712Y-39290000D01*
X51228877Y-39220604D01*
X51208635Y-39153875D01*
X51175764Y-39092377D01*
X51131526Y-39038474D01*
X51077623Y-38994236D01*
X51016125Y-38961365D01*
X50949396Y-38941123D01*
X50880000Y-38934288D01*
X50009000Y-38934288D01*
X50009000Y-37145712D01*
X50880000Y-37145712D01*
X50949396Y-37138877D01*
X51016125Y-37118635D01*
X51077623Y-37085764D01*
X51131526Y-37041526D01*
X51175764Y-36987623D01*
X51208635Y-36926125D01*
X51228877Y-36859396D01*
X51235712Y-36790000D01*
X51235712Y-34090000D01*
X51228877Y-34020604D01*
X51208635Y-33953875D01*
X51175764Y-33892377D01*
X51131526Y-33838474D01*
X51077623Y-33794236D01*
X51016125Y-33761365D01*
X50949396Y-33741123D01*
X50880000Y-33734288D01*
X48180000Y-33734288D01*
X48110604Y-33741123D01*
X48043875Y-33761365D01*
X47982377Y-33794236D01*
X47928474Y-33838474D01*
X47884236Y-33892377D01*
X47851365Y-33953875D01*
X47831123Y-34020604D01*
X47824288Y-34090000D01*
X47824288Y-36790000D01*
X47831123Y-36859396D01*
X47851365Y-36926125D01*
X47884236Y-36987623D01*
X47928474Y-37041526D01*
X47982377Y-37085764D01*
X48043875Y-37118635D01*
X48110604Y-37138877D01*
X48180000Y-37145712D01*
X49051000Y-37145712D01*
X49051001Y-38934288D01*
X48180000Y-38934288D01*
X48110604Y-38941123D01*
X48043875Y-38961365D01*
X47982377Y-38994236D01*
X47928474Y-39038474D01*
X47884236Y-39092377D01*
X47851365Y-39153875D01*
X47831123Y-39220604D01*
X47824288Y-39290000D01*
X47824288Y-41990000D01*
X47831123Y-42059396D01*
X47851365Y-42126125D01*
X47884236Y-42187623D01*
X47928474Y-42241526D01*
X47982377Y-42285764D01*
X48043875Y-42318635D01*
X48110604Y-42338877D01*
X48180000Y-42345712D01*
X49051000Y-42345712D01*
X49051001Y-61015591D01*
X41907604Y-68158989D01*
X41738418Y-68158989D01*
X42994065Y-66903343D01*
X43012343Y-66888343D01*
X43053713Y-66837932D01*
X43072200Y-66815406D01*
X43116678Y-66732193D01*
X43116679Y-66732192D01*
X43144069Y-66641900D01*
X43151000Y-66571526D01*
X43151000Y-66571522D01*
X43153317Y-66548001D01*
X43151000Y-66524480D01*
X43151000Y-61825520D01*
X43153317Y-61801999D01*
X43151000Y-61778474D01*
X43144069Y-61708100D01*
X43116679Y-61617808D01*
X43072988Y-61536069D01*
X43072200Y-61534594D01*
X43028549Y-61481405D01*
X43012343Y-61461657D01*
X42994065Y-61446657D01*
X42345342Y-60797935D01*
X42345338Y-60797930D01*
X42139847Y-60592439D01*
X42150065Y-60577147D01*
X42278516Y-60267038D01*
X42344000Y-59937829D01*
X42344000Y-59602171D01*
X42278516Y-59272962D01*
X42150065Y-58962853D01*
X41963583Y-58683763D01*
X41726237Y-58446417D01*
X41447147Y-58259935D01*
X41137038Y-58131484D01*
X40807829Y-58066000D01*
X40472171Y-58066000D01*
X40142962Y-58131484D01*
X39832853Y-58259935D01*
X39553763Y-58446417D01*
X39316417Y-58683763D01*
X39129935Y-58962853D01*
X39001484Y-59272962D01*
X38997896Y-59291000D01*
X37082104Y-59291000D01*
X37078516Y-59272962D01*
X36950065Y-58962853D01*
X36763583Y-58683763D01*
X36526237Y-58446417D01*
X36247147Y-58259935D01*
X35937038Y-58131484D01*
X35607829Y-58066000D01*
X35272171Y-58066000D01*
X34942962Y-58131484D01*
X34632853Y-58259935D01*
X34353763Y-58446417D01*
X34116417Y-58683763D01*
X33929935Y-58962853D01*
X33801484Y-59272962D01*
X33736000Y-59602171D01*
X33736000Y-59937829D01*
X33801484Y-60267038D01*
X33929935Y-60577147D01*
X34116417Y-60856237D01*
X34353763Y-61093583D01*
X34632853Y-61280065D01*
X34942962Y-61408516D01*
X35272171Y-61474000D01*
X35607829Y-61474000D01*
X35937038Y-61408516D01*
X36247147Y-61280065D01*
X36526237Y-61093583D01*
X36763583Y-60856237D01*
X36950065Y-60577147D01*
X37078516Y-60267038D01*
X37082104Y-60249000D01*
X38997896Y-60249000D01*
X39001484Y-60267038D01*
X39129935Y-60577147D01*
X39316417Y-60856237D01*
X39553763Y-61093583D01*
X39832853Y-61280065D01*
X40142962Y-61408516D01*
X40472171Y-61474000D01*
X40807829Y-61474000D01*
X41137038Y-61408516D01*
X41447147Y-61280065D01*
X41462439Y-61269847D01*
X41667930Y-61475338D01*
X41667935Y-61475342D01*
X42193001Y-62000409D01*
X42193001Y-63128649D01*
X42187623Y-63124236D01*
X42126125Y-63091365D01*
X42059396Y-63071123D01*
X41990000Y-63064288D01*
X39290000Y-63064288D01*
X39220604Y-63071123D01*
X39153875Y-63091365D01*
X39092377Y-63124236D01*
X39038474Y-63168474D01*
X38994236Y-63222377D01*
X38961365Y-63283875D01*
X38941123Y-63350604D01*
X38934288Y-63420000D01*
X38934288Y-64291000D01*
X37145712Y-64291000D01*
X37145712Y-63420000D01*
X37138877Y-63350604D01*
X37118635Y-63283875D01*
X37085764Y-63222377D01*
X37041526Y-63168474D01*
X36987623Y-63124236D01*
X36926125Y-63091365D01*
X36859396Y-63071123D01*
X36790000Y-63064288D01*
X34090000Y-63064288D01*
X34020604Y-63071123D01*
X33953875Y-63091365D01*
X33892377Y-63124236D01*
X33838474Y-63168474D01*
X33794236Y-63222377D01*
X33761365Y-63283875D01*
X33741123Y-63350604D01*
X33734288Y-63420000D01*
X33734288Y-64301514D01*
X33655808Y-64325321D01*
X33625858Y-64341330D01*
X33621314Y-57504000D01*
X43177405Y-57504000D01*
X43246112Y-57497268D01*
X43312541Y-57477192D01*
X43373776Y-57444541D01*
X43427465Y-57400571D01*
X43471544Y-57346973D01*
X43504320Y-57285804D01*
X43524532Y-57219417D01*
X43531405Y-57150362D01*
X43536596Y-52070362D01*
X43529794Y-52000938D01*
X43509649Y-51934530D01*
X43476936Y-51873328D01*
X43432912Y-51819684D01*
X43379268Y-51775660D01*
X43318066Y-51742947D01*
X43251658Y-51722802D01*
X43182596Y-51716000D01*
X30989731Y-51716000D01*
X30923001Y-51722346D01*
X30856460Y-51742045D01*
X30795039Y-51774346D01*
X30741101Y-51818010D01*
X21062029Y-61368000D01*
X12192000Y-61368000D01*
X12122938Y-61374802D01*
X12056530Y-61394947D01*
X11995328Y-61427660D01*
X11941684Y-61471684D01*
X11897660Y-61525328D01*
X11864947Y-61586530D01*
X11844802Y-61652938D01*
X11838000Y-61722000D01*
X11838000Y-66278593D01*
X11274000Y-65714593D01*
X11274000Y-64412523D01*
X11276317Y-64389000D01*
X11272140Y-64346590D01*
X11267069Y-64295100D01*
X11239679Y-64204808D01*
X11206985Y-64143643D01*
X11195200Y-64121594D01*
X11170435Y-64091417D01*
X11135343Y-64048657D01*
X11117065Y-64033657D01*
X7337000Y-60253593D01*
X7337000Y-58763712D01*
X7608000Y-58763712D01*
X7677396Y-58756877D01*
X7744125Y-58736635D01*
X7805623Y-58703764D01*
X7859526Y-58659526D01*
X7903764Y-58605623D01*
X7936635Y-58544125D01*
X7956877Y-58477396D01*
X7963712Y-58408000D01*
X7963712Y-56908000D01*
X7956877Y-56838604D01*
X7936635Y-56771875D01*
X7903764Y-56710377D01*
X7859526Y-56656474D01*
X7805623Y-56612236D01*
X7744125Y-56579365D01*
X7677396Y-56559123D01*
X7608000Y-56552288D01*
X7506751Y-56552288D01*
X7561759Y-56515533D01*
X7715533Y-56361759D01*
X7836352Y-56180940D01*
X7919574Y-55980025D01*
X7962000Y-55766735D01*
X7962000Y-55549265D01*
X7919574Y-55335975D01*
X7836352Y-55135060D01*
X7715533Y-54954241D01*
X7561759Y-54800467D01*
X7380940Y-54679648D01*
X7337000Y-54661447D01*
X7337000Y-54620863D01*
X7339317Y-54597340D01*
X7337000Y-54573814D01*
X7330069Y-54503440D01*
X7302679Y-54413148D01*
X7277294Y-54365657D01*
X7258200Y-54329934D01*
X7233435Y-54299757D01*
X7198343Y-54256997D01*
X7180065Y-54241997D01*
X6503067Y-53565000D01*
X6659593Y-53565000D01*
X8665000Y-55570408D01*
X8665001Y-58338780D01*
X8665000Y-58338790D01*
X8665000Y-58341230D01*
X8663353Y-58342330D01*
X8558330Y-58447353D01*
X8475814Y-58570847D01*
X8418976Y-58708066D01*
X8390000Y-58853738D01*
X8390000Y-59002262D01*
X8418976Y-59147934D01*
X8475814Y-59285153D01*
X8558330Y-59408647D01*
X8663353Y-59513670D01*
X8786847Y-59596186D01*
X8924066Y-59653024D01*
X9069738Y-59682000D01*
X9218262Y-59682000D01*
X9363934Y-59653024D01*
X9501153Y-59596186D01*
X9624647Y-59513670D01*
X9729670Y-59408647D01*
X9812186Y-59285153D01*
X9869024Y-59147934D01*
X9898000Y-59002262D01*
X9898000Y-58853738D01*
X9869024Y-58708066D01*
X9812186Y-58570847D01*
X9729670Y-58447353D01*
X9624647Y-58342330D01*
X9623000Y-58341230D01*
X9623000Y-58299214D01*
X9686066Y-58325337D01*
X9831738Y-58354313D01*
X9980262Y-58354313D01*
X10125934Y-58325337D01*
X10202179Y-58293755D01*
X13536034Y-58293755D01*
X13650016Y-58476154D01*
X13893907Y-58584108D01*
X14154171Y-58642408D01*
X14420809Y-58648812D01*
X14683574Y-58603074D01*
X14932366Y-58506952D01*
X14989984Y-58476154D01*
X15103966Y-58293755D01*
X19536034Y-58293755D01*
X19650016Y-58476154D01*
X19893907Y-58584108D01*
X20154171Y-58642408D01*
X20420809Y-58648812D01*
X20683574Y-58603074D01*
X20932366Y-58506952D01*
X20989984Y-58476154D01*
X21103966Y-58293755D01*
X20320000Y-57509789D01*
X19536034Y-58293755D01*
X15103966Y-58293755D01*
X14320000Y-57509789D01*
X13536034Y-58293755D01*
X10202179Y-58293755D01*
X10263153Y-58268499D01*
X10386647Y-58185983D01*
X10491670Y-58080960D01*
X10574186Y-57957466D01*
X10631024Y-57820247D01*
X10660000Y-57674575D01*
X10660000Y-57526051D01*
X10633497Y-57392809D01*
X12963188Y-57392809D01*
X13008926Y-57655574D01*
X13105048Y-57904366D01*
X13135846Y-57961984D01*
X13318245Y-58075966D01*
X14102211Y-57292000D01*
X14537789Y-57292000D01*
X15321755Y-58075966D01*
X15504154Y-57961984D01*
X15612108Y-57718093D01*
X15670408Y-57457829D01*
X15671969Y-57392809D01*
X18963188Y-57392809D01*
X19008926Y-57655574D01*
X19105048Y-57904366D01*
X19135846Y-57961984D01*
X19318245Y-58075966D01*
X20102211Y-57292000D01*
X20537789Y-57292000D01*
X21321755Y-58075966D01*
X21504154Y-57961984D01*
X21612108Y-57718093D01*
X21670408Y-57457829D01*
X21676812Y-57191191D01*
X21631074Y-56928426D01*
X21534952Y-56679634D01*
X21504154Y-56622016D01*
X21321755Y-56508034D01*
X20537789Y-57292000D01*
X20102211Y-57292000D01*
X19318245Y-56508034D01*
X19135846Y-56622016D01*
X19027892Y-56865907D01*
X18969592Y-57126171D01*
X18963188Y-57392809D01*
X15671969Y-57392809D01*
X15676812Y-57191191D01*
X15631074Y-56928426D01*
X15534952Y-56679634D01*
X15504154Y-56622016D01*
X15321755Y-56508034D01*
X14537789Y-57292000D01*
X14102211Y-57292000D01*
X13318245Y-56508034D01*
X13135846Y-56622016D01*
X13027892Y-56865907D01*
X12969592Y-57126171D01*
X12963188Y-57392809D01*
X10633497Y-57392809D01*
X10631024Y-57380379D01*
X10574186Y-57243160D01*
X10491670Y-57119666D01*
X10386647Y-57014643D01*
X10385000Y-57013543D01*
X10385000Y-56290245D01*
X13536034Y-56290245D01*
X14320000Y-57074211D01*
X15103966Y-56290245D01*
X19536034Y-56290245D01*
X20320000Y-57074211D01*
X21103966Y-56290245D01*
X20989984Y-56107846D01*
X20746093Y-55999892D01*
X20485829Y-55941592D01*
X20219191Y-55935188D01*
X19956426Y-55980926D01*
X19707634Y-56077048D01*
X19650016Y-56107846D01*
X19536034Y-56290245D01*
X15103966Y-56290245D01*
X14989984Y-56107846D01*
X14746093Y-55999892D01*
X14485829Y-55941592D01*
X14219191Y-55935188D01*
X13956426Y-55980926D01*
X13707634Y-56077048D01*
X13650016Y-56107846D01*
X13536034Y-56290245D01*
X10385000Y-56290245D01*
X10385000Y-54729523D01*
X10387317Y-54706000D01*
X10385000Y-54682474D01*
X10378069Y-54612100D01*
X10350679Y-54521808D01*
X10329974Y-54483073D01*
X10306200Y-54438594D01*
X10281435Y-54408417D01*
X10246343Y-54365657D01*
X10228065Y-54350657D01*
X7901373Y-52023966D01*
X7919574Y-51980025D01*
X7962000Y-51766735D01*
X7962000Y-51549265D01*
X7919574Y-51335975D01*
X7836352Y-51135060D01*
X7715533Y-50954241D01*
X7561759Y-50800467D01*
X7380940Y-50679648D01*
X7328677Y-50658000D01*
X7380940Y-50636352D01*
X7561759Y-50515533D01*
X7715533Y-50361759D01*
X7836352Y-50180940D01*
X7845587Y-50158643D01*
X12966000Y-50158643D01*
X12966000Y-50425357D01*
X13018034Y-50686947D01*
X13120101Y-50933359D01*
X13268280Y-51155124D01*
X13456876Y-51343720D01*
X13678641Y-51491899D01*
X13925053Y-51593966D01*
X14186643Y-51646000D01*
X14453357Y-51646000D01*
X14714947Y-51593966D01*
X14961359Y-51491899D01*
X15183124Y-51343720D01*
X15371720Y-51155124D01*
X15519899Y-50933359D01*
X15621966Y-50686947D01*
X15674000Y-50425357D01*
X15674000Y-50158643D01*
X15621966Y-49897053D01*
X15519899Y-49650641D01*
X15371720Y-49428876D01*
X15234844Y-49292000D01*
X18964288Y-49292000D01*
X18964288Y-51292000D01*
X18971123Y-51361396D01*
X18991365Y-51428125D01*
X19024236Y-51489623D01*
X19068474Y-51543526D01*
X19122377Y-51587764D01*
X19183875Y-51620635D01*
X19250604Y-51640877D01*
X19320000Y-51647712D01*
X21320000Y-51647712D01*
X21389396Y-51640877D01*
X21456125Y-51620635D01*
X21517623Y-51587764D01*
X21571526Y-51543526D01*
X21615764Y-51489623D01*
X21648635Y-51428125D01*
X21668877Y-51361396D01*
X21675712Y-51292000D01*
X21675712Y-49602171D01*
X33736000Y-49602171D01*
X33736000Y-49937829D01*
X33801484Y-50267038D01*
X33929935Y-50577147D01*
X34116417Y-50856237D01*
X34353763Y-51093583D01*
X34632853Y-51280065D01*
X34942962Y-51408516D01*
X35272171Y-51474000D01*
X35607829Y-51474000D01*
X35937038Y-51408516D01*
X36247147Y-51280065D01*
X36526237Y-51093583D01*
X36763583Y-50856237D01*
X36950065Y-50577147D01*
X37078516Y-50267038D01*
X37144000Y-49937829D01*
X37144000Y-49602171D01*
X38936000Y-49602171D01*
X38936000Y-49937829D01*
X39001484Y-50267038D01*
X39129935Y-50577147D01*
X39316417Y-50856237D01*
X39553763Y-51093583D01*
X39832853Y-51280065D01*
X40142962Y-51408516D01*
X40472171Y-51474000D01*
X40807829Y-51474000D01*
X41137038Y-51408516D01*
X41447147Y-51280065D01*
X41726237Y-51093583D01*
X41963583Y-50856237D01*
X42150065Y-50577147D01*
X42278516Y-50267038D01*
X42344000Y-49937829D01*
X42344000Y-49602171D01*
X42278516Y-49272962D01*
X42150065Y-48962853D01*
X41963583Y-48683763D01*
X41726237Y-48446417D01*
X41447147Y-48259935D01*
X41137038Y-48131484D01*
X40807829Y-48066000D01*
X40472171Y-48066000D01*
X40142962Y-48131484D01*
X39832853Y-48259935D01*
X39553763Y-48446417D01*
X39316417Y-48683763D01*
X39129935Y-48962853D01*
X39001484Y-49272962D01*
X38936000Y-49602171D01*
X37144000Y-49602171D01*
X37078516Y-49272962D01*
X36950065Y-48962853D01*
X36763583Y-48683763D01*
X36526237Y-48446417D01*
X36247147Y-48259935D01*
X35937038Y-48131484D01*
X35607829Y-48066000D01*
X35272171Y-48066000D01*
X34942962Y-48131484D01*
X34632853Y-48259935D01*
X34353763Y-48446417D01*
X34116417Y-48683763D01*
X33929935Y-48962853D01*
X33801484Y-49272962D01*
X33736000Y-49602171D01*
X21675712Y-49602171D01*
X21675712Y-49292000D01*
X21668877Y-49222604D01*
X21648635Y-49155875D01*
X21615764Y-49094377D01*
X21571526Y-49040474D01*
X21517623Y-48996236D01*
X21456125Y-48963365D01*
X21389396Y-48943123D01*
X21320000Y-48936288D01*
X19320000Y-48936288D01*
X19250604Y-48943123D01*
X19183875Y-48963365D01*
X19122377Y-48996236D01*
X19068474Y-49040474D01*
X19024236Y-49094377D01*
X18991365Y-49155875D01*
X18971123Y-49222604D01*
X18964288Y-49292000D01*
X15234844Y-49292000D01*
X15183124Y-49240280D01*
X14961359Y-49092101D01*
X14714947Y-48990034D01*
X14453357Y-48938000D01*
X14186643Y-48938000D01*
X13925053Y-48990034D01*
X13678641Y-49092101D01*
X13456876Y-49240280D01*
X13268280Y-49428876D01*
X13120101Y-49650641D01*
X13018034Y-49897053D01*
X12966000Y-50158643D01*
X7845587Y-50158643D01*
X7919574Y-49980025D01*
X7962000Y-49766735D01*
X7962000Y-49549265D01*
X7919574Y-49335975D01*
X7836352Y-49135060D01*
X7715533Y-48954241D01*
X7561759Y-48800467D01*
X7380940Y-48679648D01*
X7180025Y-48596426D01*
X6966735Y-48554000D01*
X6749265Y-48554000D01*
X6535975Y-48596426D01*
X6335060Y-48679648D01*
X6154241Y-48800467D01*
X6000467Y-48954241D01*
X5879648Y-49135060D01*
X5796426Y-49335975D01*
X5754000Y-49549265D01*
X5754000Y-49766735D01*
X5796426Y-49980025D01*
X5879648Y-50180940D01*
X6000467Y-50361759D01*
X6154241Y-50515533D01*
X6335060Y-50636352D01*
X6387323Y-50658000D01*
X6335060Y-50679648D01*
X6154241Y-50800467D01*
X6000467Y-50954241D01*
X5879648Y-51135060D01*
X5796426Y-51335975D01*
X5754000Y-51549265D01*
X5754000Y-51766735D01*
X5796426Y-51980025D01*
X5879648Y-52180940D01*
X6000467Y-52361759D01*
X6154241Y-52515533D01*
X6291131Y-52607000D01*
X5184408Y-52607000D01*
X4601373Y-52023966D01*
X4619574Y-51980025D01*
X4662000Y-51766735D01*
X4662000Y-51549265D01*
X4619574Y-51335975D01*
X4536352Y-51135060D01*
X4415533Y-50954241D01*
X4261759Y-50800467D01*
X4080940Y-50679648D01*
X4028677Y-50658000D01*
X4080940Y-50636352D01*
X4261759Y-50515533D01*
X4415533Y-50361759D01*
X4536352Y-50180940D01*
X4619574Y-49980025D01*
X4662000Y-49766735D01*
X4662000Y-49549265D01*
X4619574Y-49335975D01*
X4536352Y-49135060D01*
X4415533Y-48954241D01*
X4261759Y-48800467D01*
X4080940Y-48679648D01*
X4037000Y-48661447D01*
X4037000Y-48456407D01*
X4495794Y-47997613D01*
X4497738Y-47998000D01*
X4646262Y-47998000D01*
X4791934Y-47969024D01*
X4929153Y-47912186D01*
X5052647Y-47829670D01*
X5157670Y-47724647D01*
X5240186Y-47601153D01*
X5297024Y-47463934D01*
X5326000Y-47318262D01*
X5326000Y-47169738D01*
X5297024Y-47024066D01*
X5240186Y-46886847D01*
X5195520Y-46820000D01*
X6823671Y-46820000D01*
X6834444Y-46855512D01*
X6889262Y-46958071D01*
X6963036Y-47047964D01*
X7052929Y-47121738D01*
X7155488Y-47176556D01*
X7266770Y-47210314D01*
X7382500Y-47221712D01*
X7857500Y-47221712D01*
X7973230Y-47210314D01*
X8084512Y-47176556D01*
X8187071Y-47121738D01*
X8276964Y-47047964D01*
X8350738Y-46958071D01*
X8405556Y-46855512D01*
X8439314Y-46744230D01*
X8450712Y-46628500D01*
X8450712Y-46053500D01*
X8439314Y-45937770D01*
X8405556Y-45826488D01*
X8350738Y-45723929D01*
X8276964Y-45634036D01*
X8187071Y-45560262D01*
X8084512Y-45505444D01*
X7973230Y-45471686D01*
X7915497Y-45466000D01*
X7973230Y-45460314D01*
X8084512Y-45426556D01*
X8187071Y-45371738D01*
X8276964Y-45297964D01*
X8350738Y-45208071D01*
X8405556Y-45105512D01*
X8439314Y-44994230D01*
X8450712Y-44878500D01*
X8450712Y-44437695D01*
X10408294Y-42480113D01*
X10410238Y-42480500D01*
X10558762Y-42480500D01*
X10704434Y-42451524D01*
X10841653Y-42394686D01*
X10965147Y-42312170D01*
X11070170Y-42207147D01*
X11152686Y-42083653D01*
X11209524Y-41946434D01*
X11238500Y-41800762D01*
X11238500Y-41652238D01*
X11209524Y-41506566D01*
X11152686Y-41369347D01*
X11070170Y-41245853D01*
X10965147Y-41140830D01*
X10841653Y-41058314D01*
X10704434Y-41001476D01*
X10558762Y-40972500D01*
X10410238Y-40972500D01*
X10264566Y-41001476D01*
X10127347Y-41058314D01*
X10003853Y-41140830D01*
X9898830Y-41245853D01*
X9831793Y-41346182D01*
X9812186Y-41298847D01*
X9729670Y-41175353D01*
X9624647Y-41070330D01*
X9501153Y-40987814D01*
X9363934Y-40930976D01*
X9218262Y-40902000D01*
X9069738Y-40902000D01*
X8924066Y-40930976D01*
X8786847Y-40987814D01*
X8663353Y-41070330D01*
X8558330Y-41175353D01*
X8475814Y-41298847D01*
X8418976Y-41436066D01*
X8390000Y-41581738D01*
X8390000Y-41730262D01*
X8390387Y-41732206D01*
X6010593Y-44112000D01*
X3590329Y-44112000D01*
X3579556Y-44076488D01*
X3524738Y-43973929D01*
X3450964Y-43884036D01*
X3361071Y-43810262D01*
X3258512Y-43755444D01*
X3147230Y-43721686D01*
X3031500Y-43710288D01*
X2556500Y-43710288D01*
X2440770Y-43721686D01*
X2329488Y-43755444D01*
X2226929Y-43810262D01*
X2137036Y-43884036D01*
X2063262Y-43973929D01*
X2008444Y-44076488D01*
X1974686Y-44187770D01*
X1963288Y-44303500D01*
X1963288Y-44878500D01*
X1974686Y-44994230D01*
X2008444Y-45105512D01*
X2063262Y-45208071D01*
X2137036Y-45297964D01*
X2226929Y-45371738D01*
X2329488Y-45426556D01*
X2440770Y-45460314D01*
X2498503Y-45466000D01*
X2440770Y-45471686D01*
X2329488Y-45505444D01*
X2226929Y-45560262D01*
X2137036Y-45634036D01*
X2063262Y-45723929D01*
X2008444Y-45826488D01*
X1974686Y-45937770D01*
X1963288Y-46053500D01*
X1963288Y-46494304D01*
X947936Y-47509657D01*
X929658Y-47524657D01*
X914661Y-47542932D01*
X869800Y-47597595D01*
X825322Y-47680808D01*
X797932Y-47771100D01*
X788683Y-47865000D01*
X379000Y-47865000D01*
X379000Y-34242171D01*
X3616000Y-34242171D01*
X3616000Y-34577829D01*
X3681484Y-34907038D01*
X3809935Y-35217147D01*
X3996417Y-35496237D01*
X4233763Y-35733583D01*
X4512853Y-35920065D01*
X4822962Y-36048516D01*
X5152171Y-36114000D01*
X5487829Y-36114000D01*
X5817038Y-36048516D01*
X6127147Y-35920065D01*
X6406237Y-35733583D01*
X6477940Y-35661880D01*
X9285909Y-35661880D01*
X9442235Y-35880141D01*
X9745911Y-36023135D01*
X10071650Y-36104139D01*
X10406932Y-36120037D01*
X10738873Y-36070220D01*
X11054717Y-35956602D01*
X11197765Y-35880141D01*
X11354091Y-35661880D01*
X10320000Y-34627789D01*
X9285909Y-35661880D01*
X6477940Y-35661880D01*
X6643583Y-35496237D01*
X6830065Y-35217147D01*
X6958516Y-34907038D01*
X7024000Y-34577829D01*
X7024000Y-34496932D01*
X8609963Y-34496932D01*
X8659780Y-34828873D01*
X8773398Y-35144717D01*
X8849859Y-35287765D01*
X9068120Y-35444091D01*
X10102211Y-34410000D01*
X10537789Y-34410000D01*
X11571880Y-35444091D01*
X11790141Y-35287765D01*
X11933135Y-34984089D01*
X12014139Y-34658350D01*
X12030037Y-34323068D01*
X12017897Y-34242171D01*
X13616000Y-34242171D01*
X13616000Y-34577829D01*
X13681484Y-34907038D01*
X13809935Y-35217147D01*
X13996417Y-35496237D01*
X14233763Y-35733583D01*
X14512853Y-35920065D01*
X14822962Y-36048516D01*
X15152171Y-36114000D01*
X15487829Y-36114000D01*
X15817038Y-36048516D01*
X16127147Y-35920065D01*
X16406237Y-35733583D01*
X16643583Y-35496237D01*
X16830065Y-35217147D01*
X16958516Y-34907038D01*
X17024000Y-34577829D01*
X17024000Y-34242171D01*
X16958516Y-33912962D01*
X16830065Y-33602853D01*
X16643583Y-33323763D01*
X16406237Y-33086417D01*
X16366702Y-33060000D01*
X18614288Y-33060000D01*
X18614288Y-35760000D01*
X18621123Y-35829396D01*
X18641365Y-35896125D01*
X18674236Y-35957623D01*
X18718474Y-36011526D01*
X18772377Y-36055764D01*
X18833875Y-36088635D01*
X18900604Y-36108877D01*
X18970000Y-36115712D01*
X21670000Y-36115712D01*
X21739396Y-36108877D01*
X21806125Y-36088635D01*
X21867623Y-36055764D01*
X21921526Y-36011526D01*
X21965764Y-35957623D01*
X21998635Y-35896125D01*
X22018877Y-35829396D01*
X22025712Y-35760000D01*
X22025712Y-34557700D01*
X29117605Y-34557700D01*
X29127180Y-35555145D01*
X29304677Y-36536716D01*
X29645021Y-37474348D01*
X30138480Y-38341230D01*
X30770944Y-39112577D01*
X31524331Y-39766332D01*
X32377097Y-40283804D01*
X33304860Y-40650195D01*
X34281093Y-40855030D01*
X35277881Y-40892451D01*
X36266724Y-40761390D01*
X37219347Y-40465592D01*
X38108512Y-40013517D01*
X38908796Y-39418090D01*
X39597315Y-38696336D01*
X40154382Y-37868892D01*
X40564070Y-36959419D01*
X40814665Y-35993919D01*
X40899000Y-35000000D01*
X40897913Y-34886754D01*
X40794512Y-33894638D01*
X40525429Y-32934127D01*
X40098357Y-32032685D01*
X39525507Y-31216089D01*
X38823259Y-30507686D01*
X38011693Y-29927731D01*
X37114013Y-29492809D01*
X36155886Y-29215354D01*
X35164710Y-29103300D01*
X34168824Y-29159850D01*
X33196703Y-29383389D01*
X32276145Y-29767523D01*
X31433470Y-30301270D01*
X30692773Y-30969368D01*
X30075232Y-31752714D01*
X29598506Y-32628910D01*
X29276226Y-33572903D01*
X29117605Y-34557700D01*
X22025712Y-34557700D01*
X22025712Y-33060000D01*
X22018877Y-32990604D01*
X21998635Y-32923875D01*
X21965764Y-32862377D01*
X21921526Y-32808474D01*
X21867623Y-32764236D01*
X21806125Y-32731365D01*
X21739396Y-32711123D01*
X21670000Y-32704288D01*
X18970000Y-32704288D01*
X18900604Y-32711123D01*
X18833875Y-32731365D01*
X18772377Y-32764236D01*
X18718474Y-32808474D01*
X18674236Y-32862377D01*
X18641365Y-32923875D01*
X18621123Y-32990604D01*
X18614288Y-33060000D01*
X16366702Y-33060000D01*
X16127147Y-32899935D01*
X15817038Y-32771484D01*
X15487829Y-32706000D01*
X15152171Y-32706000D01*
X14822962Y-32771484D01*
X14512853Y-32899935D01*
X14233763Y-33086417D01*
X13996417Y-33323763D01*
X13809935Y-33602853D01*
X13681484Y-33912962D01*
X13616000Y-34242171D01*
X12017897Y-34242171D01*
X11980220Y-33991127D01*
X11866602Y-33675283D01*
X11790141Y-33532235D01*
X11571880Y-33375909D01*
X10537789Y-34410000D01*
X10102211Y-34410000D01*
X9068120Y-33375909D01*
X8849859Y-33532235D01*
X8706865Y-33835911D01*
X8625861Y-34161650D01*
X8609963Y-34496932D01*
X7024000Y-34496932D01*
X7024000Y-34242171D01*
X6958516Y-33912962D01*
X6830065Y-33602853D01*
X6643583Y-33323763D01*
X6477940Y-33158120D01*
X9285909Y-33158120D01*
X10320000Y-34192211D01*
X11354091Y-33158120D01*
X11197765Y-32939859D01*
X10894089Y-32796865D01*
X10568350Y-32715861D01*
X10233068Y-32699963D01*
X9901127Y-32749780D01*
X9585283Y-32863398D01*
X9442235Y-32939859D01*
X9285909Y-33158120D01*
X6477940Y-33158120D01*
X6406237Y-33086417D01*
X6127147Y-32899935D01*
X5817038Y-32771484D01*
X5487829Y-32706000D01*
X5152171Y-32706000D01*
X4822962Y-32771484D01*
X4512853Y-32899935D01*
X4233763Y-33086417D01*
X3996417Y-33323763D01*
X3809935Y-33602853D01*
X3681484Y-33912962D01*
X3616000Y-34242171D01*
X379000Y-34242171D01*
X379000Y-29042171D01*
X3616000Y-29042171D01*
X3616000Y-29377829D01*
X3681484Y-29707038D01*
X3809935Y-30017147D01*
X3996417Y-30296237D01*
X4233763Y-30533583D01*
X4512853Y-30720065D01*
X4822962Y-30848516D01*
X5152171Y-30914000D01*
X5487829Y-30914000D01*
X5817038Y-30848516D01*
X6127147Y-30720065D01*
X6406237Y-30533583D01*
X6477940Y-30461880D01*
X9285909Y-30461880D01*
X9442235Y-30680141D01*
X9745911Y-30823135D01*
X10071650Y-30904139D01*
X10406932Y-30920037D01*
X10738873Y-30870220D01*
X11054717Y-30756602D01*
X11197765Y-30680141D01*
X11354091Y-30461880D01*
X10320000Y-29427789D01*
X9285909Y-30461880D01*
X6477940Y-30461880D01*
X6643583Y-30296237D01*
X6830065Y-30017147D01*
X6958516Y-29707038D01*
X7024000Y-29377829D01*
X7024000Y-29296932D01*
X8609963Y-29296932D01*
X8659780Y-29628873D01*
X8773398Y-29944717D01*
X8849859Y-30087765D01*
X9068120Y-30244091D01*
X10102211Y-29210000D01*
X10537789Y-29210000D01*
X11571880Y-30244091D01*
X11790141Y-30087765D01*
X11933135Y-29784089D01*
X12014139Y-29458350D01*
X12030037Y-29123068D01*
X12017897Y-29042171D01*
X13616000Y-29042171D01*
X13616000Y-29377829D01*
X13681484Y-29707038D01*
X13809935Y-30017147D01*
X13996417Y-30296237D01*
X14233763Y-30533583D01*
X14512853Y-30720065D01*
X14822962Y-30848516D01*
X15152171Y-30914000D01*
X15487829Y-30914000D01*
X15817038Y-30848516D01*
X16127147Y-30720065D01*
X16406237Y-30533583D01*
X16643583Y-30296237D01*
X16830065Y-30017147D01*
X16958516Y-29707038D01*
X17024000Y-29377829D01*
X17024000Y-29042171D01*
X16958516Y-28712962D01*
X16830065Y-28402853D01*
X16643583Y-28123763D01*
X16406237Y-27886417D01*
X16366702Y-27860000D01*
X18614288Y-27860000D01*
X18614288Y-30560000D01*
X18621123Y-30629396D01*
X18641365Y-30696125D01*
X18674236Y-30757623D01*
X18718474Y-30811526D01*
X18772377Y-30855764D01*
X18833875Y-30888635D01*
X18900604Y-30908877D01*
X18970000Y-30915712D01*
X21670000Y-30915712D01*
X21739396Y-30908877D01*
X21806125Y-30888635D01*
X21867623Y-30855764D01*
X21921526Y-30811526D01*
X21965764Y-30757623D01*
X21998635Y-30696125D01*
X22018877Y-30629396D01*
X22025712Y-30560000D01*
X22025712Y-27860000D01*
X22018877Y-27790604D01*
X21998635Y-27723875D01*
X21965764Y-27662377D01*
X21921526Y-27608474D01*
X21867623Y-27564236D01*
X21806125Y-27531365D01*
X21739396Y-27511123D01*
X21670000Y-27504288D01*
X18970000Y-27504288D01*
X18900604Y-27511123D01*
X18833875Y-27531365D01*
X18772377Y-27564236D01*
X18718474Y-27608474D01*
X18674236Y-27662377D01*
X18641365Y-27723875D01*
X18621123Y-27790604D01*
X18614288Y-27860000D01*
X16366702Y-27860000D01*
X16127147Y-27699935D01*
X15817038Y-27571484D01*
X15487829Y-27506000D01*
X15152171Y-27506000D01*
X14822962Y-27571484D01*
X14512853Y-27699935D01*
X14233763Y-27886417D01*
X13996417Y-28123763D01*
X13809935Y-28402853D01*
X13681484Y-28712962D01*
X13616000Y-29042171D01*
X12017897Y-29042171D01*
X11980220Y-28791127D01*
X11866602Y-28475283D01*
X11790141Y-28332235D01*
X11571880Y-28175909D01*
X10537789Y-29210000D01*
X10102211Y-29210000D01*
X9068120Y-28175909D01*
X8849859Y-28332235D01*
X8706865Y-28635911D01*
X8625861Y-28961650D01*
X8609963Y-29296932D01*
X7024000Y-29296932D01*
X7024000Y-29042171D01*
X6958516Y-28712962D01*
X6830065Y-28402853D01*
X6643583Y-28123763D01*
X6477940Y-27958120D01*
X9285909Y-27958120D01*
X10320000Y-28992211D01*
X11354091Y-27958120D01*
X11197765Y-27739859D01*
X10894089Y-27596865D01*
X10568350Y-27515861D01*
X10233068Y-27499963D01*
X9901127Y-27549780D01*
X9585283Y-27663398D01*
X9442235Y-27739859D01*
X9285909Y-27958120D01*
X6477940Y-27958120D01*
X6406237Y-27886417D01*
X6127147Y-27699935D01*
X5817038Y-27571484D01*
X5487829Y-27506000D01*
X5152171Y-27506000D01*
X4822962Y-27571484D01*
X4512853Y-27699935D01*
X4233763Y-27886417D01*
X3996417Y-28123763D01*
X3809935Y-28402853D01*
X3681484Y-28712962D01*
X3616000Y-29042171D01*
X379000Y-29042171D01*
X379000Y-19912171D01*
X27506000Y-19912171D01*
X27506000Y-20247829D01*
X27571484Y-20577038D01*
X27699935Y-20887147D01*
X27886417Y-21166237D01*
X28123763Y-21403583D01*
X28402853Y-21590065D01*
X28712962Y-21718516D01*
X29042171Y-21784000D01*
X29377829Y-21784000D01*
X29707038Y-21718516D01*
X30017147Y-21590065D01*
X30296237Y-21403583D01*
X30533583Y-21166237D01*
X30720065Y-20887147D01*
X30848516Y-20577038D01*
X30914000Y-20247829D01*
X30914000Y-19912171D01*
X32706000Y-19912171D01*
X32706000Y-20247829D01*
X32771484Y-20577038D01*
X32899935Y-20887147D01*
X33086417Y-21166237D01*
X33323763Y-21403583D01*
X33602853Y-21590065D01*
X33912962Y-21718516D01*
X34242171Y-21784000D01*
X34577829Y-21784000D01*
X34907038Y-21718516D01*
X35217147Y-21590065D01*
X35496237Y-21403583D01*
X35733583Y-21166237D01*
X35920065Y-20887147D01*
X36048516Y-20577038D01*
X36114000Y-20247829D01*
X36114000Y-19912171D01*
X36048516Y-19582962D01*
X35920065Y-19272853D01*
X35733583Y-18993763D01*
X35496237Y-18756417D01*
X35217147Y-18569935D01*
X34907038Y-18441484D01*
X34577829Y-18376000D01*
X34242171Y-18376000D01*
X33912962Y-18441484D01*
X33602853Y-18569935D01*
X33323763Y-18756417D01*
X33086417Y-18993763D01*
X32899935Y-19272853D01*
X32771484Y-19582962D01*
X32706000Y-19912171D01*
X30914000Y-19912171D01*
X30848516Y-19582962D01*
X30720065Y-19272853D01*
X30533583Y-18993763D01*
X30296237Y-18756417D01*
X30017147Y-18569935D01*
X29707038Y-18441484D01*
X29377829Y-18376000D01*
X29042171Y-18376000D01*
X28712962Y-18441484D01*
X28402853Y-18569935D01*
X28123763Y-18756417D01*
X27886417Y-18993763D01*
X27699935Y-19272853D01*
X27571484Y-19582962D01*
X27506000Y-19912171D01*
X379000Y-19912171D01*
X379000Y-13103826D01*
X430330Y-13180647D01*
X535353Y-13285670D01*
X658847Y-13368186D01*
X796066Y-13425024D01*
X941738Y-13454000D01*
X1024000Y-13454000D01*
X1024000Y-13536262D01*
X1052976Y-13681934D01*
X1109814Y-13819153D01*
X1192330Y-13942647D01*
X1297353Y-14047670D01*
X1420847Y-14130186D01*
X1558066Y-14187024D01*
X1703738Y-14216000D01*
X1852262Y-14216000D01*
X1997934Y-14187024D01*
X2135153Y-14130186D01*
X2258647Y-14047670D01*
X2363670Y-13942647D01*
X2446186Y-13819153D01*
X2503024Y-13681934D01*
X2532000Y-13536262D01*
X2532000Y-13387738D01*
X2531613Y-13385794D01*
X3217407Y-12700000D01*
X26316000Y-12700000D01*
X26316000Y-17272000D01*
X26322802Y-17341062D01*
X26342947Y-17407470D01*
X26375660Y-17468672D01*
X26419684Y-17522316D01*
X26473328Y-17566340D01*
X26534530Y-17599053D01*
X26600938Y-17619198D01*
X26670000Y-17626000D01*
X35805818Y-17626000D01*
X41102545Y-22361897D01*
X41141828Y-22392340D01*
X41203030Y-22425053D01*
X41269438Y-22445198D01*
X41338500Y-22452000D01*
X58420000Y-22452000D01*
X58489062Y-22445198D01*
X58555470Y-22425053D01*
X58616672Y-22392340D01*
X58670316Y-22348316D01*
X58714340Y-22294672D01*
X58747053Y-22233470D01*
X58767198Y-22167062D01*
X58774000Y-22098000D01*
X58774000Y-16764000D01*
X58767198Y-16694938D01*
X58747053Y-16628530D01*
X58714340Y-16567328D01*
X58670316Y-16513684D01*
X58616672Y-16469660D01*
X58555470Y-16436947D01*
X58489062Y-16416802D01*
X58420000Y-16410000D01*
X44311116Y-16410000D01*
X40084030Y-13335755D01*
X49096034Y-13335755D01*
X49210016Y-13518154D01*
X49453907Y-13626108D01*
X49714171Y-13684408D01*
X49980809Y-13690812D01*
X50243574Y-13645074D01*
X50492366Y-13548952D01*
X50549984Y-13518154D01*
X50663966Y-13335755D01*
X55096034Y-13335755D01*
X55210016Y-13518154D01*
X55453907Y-13626108D01*
X55714171Y-13684408D01*
X55980809Y-13690812D01*
X56243574Y-13645074D01*
X56492366Y-13548952D01*
X56549984Y-13518154D01*
X56663966Y-13335755D01*
X55880000Y-12551789D01*
X55096034Y-13335755D01*
X50663966Y-13335755D01*
X49880000Y-12551789D01*
X49096034Y-13335755D01*
X40084030Y-13335755D01*
X38845229Y-12434809D01*
X48523188Y-12434809D01*
X48568926Y-12697574D01*
X48665048Y-12946366D01*
X48695846Y-13003984D01*
X48878245Y-13117966D01*
X49662211Y-12334000D01*
X50097789Y-12334000D01*
X50881755Y-13117966D01*
X51064154Y-13003984D01*
X51172108Y-12760093D01*
X51230408Y-12499829D01*
X51231969Y-12434809D01*
X54523188Y-12434809D01*
X54568926Y-12697574D01*
X54665048Y-12946366D01*
X54695846Y-13003984D01*
X54878245Y-13117966D01*
X55662211Y-12334000D01*
X56097789Y-12334000D01*
X56881755Y-13117966D01*
X57064154Y-13003984D01*
X57172108Y-12760093D01*
X57230408Y-12499829D01*
X57236812Y-12233191D01*
X57191074Y-11970426D01*
X57094952Y-11721634D01*
X57064154Y-11664016D01*
X56881755Y-11550034D01*
X56097789Y-12334000D01*
X55662211Y-12334000D01*
X54878245Y-11550034D01*
X54695846Y-11664016D01*
X54587892Y-11907907D01*
X54529592Y-12168171D01*
X54523188Y-12434809D01*
X51231969Y-12434809D01*
X51236812Y-12233191D01*
X51191074Y-11970426D01*
X51094952Y-11721634D01*
X51064154Y-11664016D01*
X50881755Y-11550034D01*
X50097789Y-12334000D01*
X49662211Y-12334000D01*
X48878245Y-11550034D01*
X48695846Y-11664016D01*
X48587892Y-11907907D01*
X48529592Y-12168171D01*
X48523188Y-12434809D01*
X38845229Y-12434809D01*
X38816213Y-12413707D01*
X38743470Y-12372947D01*
X38677062Y-12352802D01*
X38608000Y-12346000D01*
X26670000Y-12346000D01*
X26600938Y-12352802D01*
X26534530Y-12372947D01*
X26473328Y-12405660D01*
X26419684Y-12449684D01*
X26375660Y-12503328D01*
X26342947Y-12564530D01*
X26322802Y-12630938D01*
X26316000Y-12700000D01*
X3217407Y-12700000D01*
X4262408Y-11655000D01*
X26181289Y-11655000D01*
X26204812Y-11657317D01*
X26228335Y-11655000D01*
X26228338Y-11655000D01*
X26298712Y-11648069D01*
X26389004Y-11620679D01*
X26472217Y-11576200D01*
X26545155Y-11516343D01*
X26560159Y-11498060D01*
X27499220Y-10559000D01*
X27567896Y-10559000D01*
X27571484Y-10577038D01*
X27699935Y-10887147D01*
X27886417Y-11166237D01*
X28123763Y-11403583D01*
X28402853Y-11590065D01*
X28712962Y-11718516D01*
X29042171Y-11784000D01*
X29377829Y-11784000D01*
X29707038Y-11718516D01*
X30017147Y-11590065D01*
X30296237Y-11403583D01*
X30533583Y-11166237D01*
X30720065Y-10887147D01*
X30848516Y-10577038D01*
X30852104Y-10559000D01*
X32767896Y-10559000D01*
X32771484Y-10577038D01*
X32899935Y-10887147D01*
X33086417Y-11166237D01*
X33323763Y-11403583D01*
X33602853Y-11590065D01*
X33912962Y-11718516D01*
X34242171Y-11784000D01*
X34577829Y-11784000D01*
X34907038Y-11718516D01*
X35217147Y-11590065D01*
X35496237Y-11403583D01*
X35567575Y-11332245D01*
X49096034Y-11332245D01*
X49880000Y-12116211D01*
X50663966Y-11332245D01*
X55096034Y-11332245D01*
X55880000Y-12116211D01*
X56663966Y-11332245D01*
X56549984Y-11149846D01*
X56306093Y-11041892D01*
X56045829Y-10983592D01*
X55779191Y-10977188D01*
X55516426Y-11022926D01*
X55267634Y-11119048D01*
X55210016Y-11149846D01*
X55096034Y-11332245D01*
X50663966Y-11332245D01*
X50549984Y-11149846D01*
X50306093Y-11041892D01*
X50045829Y-10983592D01*
X49779191Y-10977188D01*
X49516426Y-11022926D01*
X49267634Y-11119048D01*
X49210016Y-11149846D01*
X49096034Y-11332245D01*
X35567575Y-11332245D01*
X35733583Y-11166237D01*
X35920065Y-10887147D01*
X36048516Y-10577038D01*
X36114000Y-10247829D01*
X36114000Y-9912171D01*
X36048516Y-9582962D01*
X35920065Y-9272853D01*
X35733583Y-8993763D01*
X35496237Y-8756417D01*
X35217147Y-8569935D01*
X34907038Y-8441484D01*
X34577829Y-8376000D01*
X34242171Y-8376000D01*
X33912962Y-8441484D01*
X33602853Y-8569935D01*
X33323763Y-8756417D01*
X33086417Y-8993763D01*
X32899935Y-9272853D01*
X32771484Y-9582962D01*
X32767896Y-9601000D01*
X30852104Y-9601000D01*
X30848516Y-9582962D01*
X30720065Y-9272853D01*
X30533583Y-8993763D01*
X30296237Y-8756417D01*
X30017147Y-8569935D01*
X29707038Y-8441484D01*
X29377829Y-8376000D01*
X29042171Y-8376000D01*
X28712962Y-8441484D01*
X28402853Y-8569935D01*
X28123763Y-8756417D01*
X27886417Y-8993763D01*
X27699935Y-9272853D01*
X27571484Y-9582962D01*
X27567896Y-9601000D01*
X27324332Y-9601000D01*
X27300811Y-9598683D01*
X27277290Y-9601000D01*
X27277286Y-9601000D01*
X27206912Y-9607931D01*
X27116620Y-9635321D01*
X27077885Y-9656026D01*
X27033406Y-9679800D01*
X27003229Y-9704565D01*
X26960469Y-9739657D01*
X26945469Y-9757935D01*
X26006405Y-10697000D01*
X25870407Y-10697000D01*
X29532071Y-7035338D01*
X29550343Y-7020343D01*
X29565339Y-7002070D01*
X29610200Y-6947407D01*
X29654678Y-6864193D01*
X29654679Y-6864192D01*
X29678486Y-6785712D01*
X30560000Y-6785712D01*
X30629396Y-6778877D01*
X30696125Y-6758635D01*
X30757623Y-6725764D01*
X30811526Y-6681526D01*
X30855764Y-6627623D01*
X30888635Y-6566125D01*
X30908877Y-6499396D01*
X30915712Y-6430000D01*
X30915712Y-5559000D01*
X32704288Y-5559000D01*
X32704288Y-6430000D01*
X32711123Y-6499396D01*
X32731365Y-6566125D01*
X32764236Y-6627623D01*
X32808474Y-6681526D01*
X32862377Y-6725764D01*
X32923875Y-6758635D01*
X32990604Y-6778877D01*
X33060000Y-6785712D01*
X35760000Y-6785712D01*
X35829396Y-6778877D01*
X35896125Y-6758635D01*
X35957623Y-6725764D01*
X36011526Y-6681526D01*
X36055764Y-6627623D01*
X36088635Y-6566125D01*
X36108877Y-6499396D01*
X36115712Y-6430000D01*
X36115712Y-5200643D01*
X48526000Y-5200643D01*
X48526000Y-5467357D01*
X48578034Y-5728947D01*
X48680101Y-5975359D01*
X48828280Y-6197124D01*
X49016876Y-6385720D01*
X49238641Y-6533899D01*
X49485053Y-6635966D01*
X49746643Y-6688000D01*
X50013357Y-6688000D01*
X50274947Y-6635966D01*
X50521359Y-6533899D01*
X50743124Y-6385720D01*
X50931720Y-6197124D01*
X51079899Y-5975359D01*
X51181966Y-5728947D01*
X51234000Y-5467357D01*
X51234000Y-5200643D01*
X51181966Y-4939053D01*
X51079899Y-4692641D01*
X50931720Y-4470876D01*
X50794844Y-4334000D01*
X54524288Y-4334000D01*
X54524288Y-6334000D01*
X54531123Y-6403396D01*
X54551365Y-6470125D01*
X54584236Y-6531623D01*
X54628474Y-6585526D01*
X54682377Y-6629764D01*
X54743875Y-6662635D01*
X54810604Y-6682877D01*
X54880000Y-6689712D01*
X56880000Y-6689712D01*
X56949396Y-6682877D01*
X57016125Y-6662635D01*
X57077623Y-6629764D01*
X57131526Y-6585526D01*
X57175764Y-6531623D01*
X57208635Y-6470125D01*
X57228877Y-6403396D01*
X57235712Y-6334000D01*
X57235712Y-4754978D01*
X61470000Y-4754978D01*
X61470000Y-5405022D01*
X61596817Y-6042574D01*
X61845578Y-6643136D01*
X62206723Y-7183627D01*
X62666373Y-7643277D01*
X63206864Y-8004422D01*
X63807426Y-8253183D01*
X64444978Y-8380000D01*
X65095022Y-8380000D01*
X65732574Y-8253183D01*
X66333136Y-8004422D01*
X66873627Y-7643277D01*
X67333277Y-7183627D01*
X67694422Y-6643136D01*
X67943183Y-6042574D01*
X68070000Y-5405022D01*
X68070000Y-4754978D01*
X67943183Y-4117426D01*
X67694422Y-3516864D01*
X67333277Y-2976373D01*
X66873627Y-2516723D01*
X66333136Y-2155578D01*
X65732574Y-1906817D01*
X65095022Y-1780000D01*
X64444978Y-1780000D01*
X63807426Y-1906817D01*
X63206864Y-2155578D01*
X62666373Y-2516723D01*
X62206723Y-2976373D01*
X61845578Y-3516864D01*
X61596817Y-4117426D01*
X61470000Y-4754978D01*
X57235712Y-4754978D01*
X57235712Y-4334000D01*
X57228877Y-4264604D01*
X57208635Y-4197875D01*
X57175764Y-4136377D01*
X57131526Y-4082474D01*
X57077623Y-4038236D01*
X57016125Y-4005365D01*
X56949396Y-3985123D01*
X56880000Y-3978288D01*
X54880000Y-3978288D01*
X54810604Y-3985123D01*
X54743875Y-4005365D01*
X54682377Y-4038236D01*
X54628474Y-4082474D01*
X54584236Y-4136377D01*
X54551365Y-4197875D01*
X54531123Y-4264604D01*
X54524288Y-4334000D01*
X50794844Y-4334000D01*
X50743124Y-4282280D01*
X50521359Y-4134101D01*
X50274947Y-4032034D01*
X50013357Y-3980000D01*
X49746643Y-3980000D01*
X49485053Y-4032034D01*
X49238641Y-4134101D01*
X49016876Y-4282280D01*
X48828280Y-4470876D01*
X48680101Y-4692641D01*
X48578034Y-4939053D01*
X48526000Y-5200643D01*
X36115712Y-5200643D01*
X36115712Y-3730000D01*
X36108877Y-3660604D01*
X36088635Y-3593875D01*
X36055764Y-3532377D01*
X36011526Y-3478474D01*
X35957623Y-3434236D01*
X35896125Y-3401365D01*
X35829396Y-3381123D01*
X35760000Y-3374288D01*
X33060000Y-3374288D01*
X32990604Y-3381123D01*
X32923875Y-3401365D01*
X32862377Y-3434236D01*
X32808474Y-3478474D01*
X32764236Y-3532377D01*
X32731365Y-3593875D01*
X32711123Y-3660604D01*
X32704288Y-3730000D01*
X32704288Y-4601000D01*
X30915712Y-4601000D01*
X30915712Y-3730000D01*
X30908877Y-3660604D01*
X30888635Y-3593875D01*
X30855764Y-3532377D01*
X30811526Y-3478474D01*
X30757623Y-3434236D01*
X30696125Y-3401365D01*
X30629396Y-3381123D01*
X30560000Y-3374288D01*
X27860000Y-3374288D01*
X27790604Y-3381123D01*
X27723875Y-3401365D01*
X27662377Y-3434236D01*
X27608474Y-3478474D01*
X27564236Y-3532377D01*
X27531365Y-3593875D01*
X27511123Y-3660604D01*
X27504288Y-3730000D01*
X27504288Y-6430000D01*
X27511123Y-6499396D01*
X27531365Y-6566125D01*
X27564236Y-6627623D01*
X27608474Y-6681526D01*
X27662377Y-6725764D01*
X27723875Y-6758635D01*
X27790604Y-6778877D01*
X27860000Y-6785712D01*
X28426879Y-6785712D01*
X25277593Y-9935000D01*
X3325520Y-9935000D01*
X3301999Y-9932683D01*
X3278478Y-9935000D01*
X3278474Y-9935000D01*
X3208100Y-9941931D01*
X3117808Y-9969321D01*
X3092565Y-9982814D01*
X3034593Y-10013800D01*
X2995708Y-10045713D01*
X2961657Y-10073657D01*
X2946660Y-10091932D01*
X1092206Y-11946387D01*
X1090262Y-11946000D01*
X941738Y-11946000D01*
X796066Y-11974976D01*
X658847Y-12031814D01*
X535353Y-12114330D01*
X430330Y-12219353D01*
X379000Y-12296174D01*
X379000Y-4754978D01*
X1780000Y-4754978D01*
X1780000Y-5405022D01*
X1906817Y-6042574D01*
X2155578Y-6643136D01*
X2516723Y-7183627D01*
X2976373Y-7643277D01*
X3516864Y-8004422D01*
X4117426Y-8253183D01*
X4754978Y-8380000D01*
X5405022Y-8380000D01*
X6042574Y-8253183D01*
X6643136Y-8004422D01*
X7183627Y-7643277D01*
X7643277Y-7183627D01*
X8004422Y-6643136D01*
X8253183Y-6042574D01*
X8380000Y-5405022D01*
X8380000Y-4754978D01*
X8253183Y-4117426D01*
X8004422Y-3516864D01*
X7643277Y-2976373D01*
X7183627Y-2516723D01*
X6643136Y-2155578D01*
X6042574Y-1906817D01*
X5405022Y-1780000D01*
X4754978Y-1780000D01*
X4117426Y-1906817D01*
X3516864Y-2155578D01*
X2976373Y-2516723D01*
X2516723Y-2976373D01*
X2155578Y-3516864D01*
X1906817Y-4117426D01*
X1780000Y-4754978D01*
X379000Y-4754978D01*
X379000Y-379000D01*
X69621000Y-379000D01*
X69621001Y-69621000D01*
X69621001Y-69621000D01*
G37*
X69621001Y-69621000D02*
X379000Y-69621000D01*
X379000Y-47865000D01*
X788683Y-47865000D01*
X791001Y-47888533D01*
X791000Y-53346477D01*
X788683Y-53370000D01*
X791000Y-53393523D01*
X791000Y-53393525D01*
X797931Y-53463899D01*
X825321Y-53554191D01*
X869800Y-53637405D01*
X929657Y-53710343D01*
X947940Y-53725347D01*
X2514627Y-55292035D01*
X2496426Y-55335975D01*
X2454000Y-55549265D01*
X2454000Y-55766735D01*
X2496426Y-55980025D01*
X2579648Y-56180940D01*
X2700467Y-56361759D01*
X2854241Y-56515533D01*
X3035060Y-56636352D01*
X3087323Y-56658000D01*
X3035060Y-56679648D01*
X2854241Y-56800467D01*
X2700467Y-56954241D01*
X2579648Y-57135060D01*
X2496426Y-57335975D01*
X2454000Y-57549265D01*
X2454000Y-57766735D01*
X2496426Y-57980025D01*
X2579648Y-58180940D01*
X2700467Y-58361759D01*
X2854241Y-58515533D01*
X3035060Y-58636352D01*
X3235975Y-58719574D01*
X3449265Y-58762000D01*
X3666735Y-58762000D01*
X3828651Y-58729793D01*
X3828999Y-58733323D01*
X3828999Y-58733326D01*
X3835930Y-58803700D01*
X3863321Y-58893992D01*
X3907799Y-58977205D01*
X3928363Y-59002262D01*
X3967657Y-59050143D01*
X3985935Y-59065143D01*
X7014522Y-62093731D01*
X6643136Y-61845578D01*
X6042574Y-61596817D01*
X5405022Y-61470000D01*
X4754978Y-61470000D01*
X4117426Y-61596817D01*
X3516864Y-61845578D01*
X2976373Y-62206723D01*
X2516723Y-62666373D01*
X2155578Y-63206864D01*
X1906817Y-63807426D01*
X1780000Y-64444978D01*
X1780000Y-65095022D01*
X1906817Y-65732574D01*
X2155578Y-66333136D01*
X2516723Y-66873627D01*
X2976373Y-67333277D01*
X3516864Y-67694422D01*
X4117426Y-67943183D01*
X4754978Y-68070000D01*
X5405022Y-68070000D01*
X6042574Y-67943183D01*
X6643136Y-67694422D01*
X7183627Y-67333277D01*
X7643277Y-66873627D01*
X8004422Y-66333136D01*
X8253183Y-65732574D01*
X8380000Y-65095022D01*
X8380000Y-64444978D01*
X8253183Y-63807426D01*
X8004422Y-63206864D01*
X7756270Y-62835478D01*
X9865989Y-64945198D01*
X9865990Y-66201456D01*
X9863672Y-66224989D01*
X9872921Y-66318889D01*
X9900311Y-66409181D01*
X9944789Y-66492394D01*
X9974967Y-66529165D01*
X10004647Y-66565332D01*
X10011315Y-66570804D01*
X9940066Y-66584976D01*
X9802847Y-66641814D01*
X9679353Y-66724330D01*
X9574330Y-66829353D01*
X9491814Y-66952847D01*
X9434976Y-67090066D01*
X9406000Y-67235738D01*
X9406000Y-67318000D01*
X9323738Y-67318000D01*
X9178066Y-67346976D01*
X9040847Y-67403814D01*
X8917353Y-67486330D01*
X8812330Y-67591353D01*
X8729814Y-67714847D01*
X8672976Y-67852066D01*
X8644000Y-67997738D01*
X8644000Y-68146262D01*
X8672976Y-68291934D01*
X8729814Y-68429153D01*
X8812330Y-68552647D01*
X8917353Y-68657670D01*
X9040847Y-68740186D01*
X9178066Y-68797024D01*
X9323738Y-68826000D01*
X9472262Y-68826000D01*
X9474205Y-68825613D01*
X9475930Y-68827338D01*
X9475935Y-68827342D01*
X10058657Y-69410065D01*
X10073657Y-69428343D01*
X10116417Y-69463435D01*
X10146594Y-69488200D01*
X10191073Y-69511974D01*
X10229808Y-69532679D01*
X10320100Y-69560069D01*
X10390474Y-69567000D01*
X10390477Y-69567000D01*
X10414000Y-69569317D01*
X10437523Y-69567000D01*
X42363080Y-69567000D01*
X42386603Y-69569317D01*
X42410126Y-69567000D01*
X42410129Y-69567000D01*
X42480503Y-69560069D01*
X42570795Y-69532679D01*
X42654008Y-69488200D01*
X42726946Y-69428343D01*
X42741950Y-69410060D01*
X47707032Y-64444978D01*
X61470000Y-64444978D01*
X61470000Y-65095022D01*
X61596817Y-65732574D01*
X61845578Y-66333136D01*
X62206723Y-66873627D01*
X62666373Y-67333277D01*
X63206864Y-67694422D01*
X63807426Y-67943183D01*
X64444978Y-68070000D01*
X65095022Y-68070000D01*
X65732574Y-67943183D01*
X66333136Y-67694422D01*
X66873627Y-67333277D01*
X67333277Y-66873627D01*
X67694422Y-66333136D01*
X67943183Y-65732574D01*
X68070000Y-65095022D01*
X68070000Y-64444978D01*
X67943183Y-63807426D01*
X67694422Y-63206864D01*
X67333277Y-62666373D01*
X66873627Y-62206723D01*
X66333136Y-61845578D01*
X65732574Y-61596817D01*
X65095022Y-61470000D01*
X64444978Y-61470000D01*
X63807426Y-61596817D01*
X63206864Y-61845578D01*
X62666373Y-62206723D01*
X62206723Y-62666373D01*
X61845578Y-63206864D01*
X61596817Y-63807426D01*
X61470000Y-64444978D01*
X47707032Y-64444978D01*
X54852065Y-57299946D01*
X54870343Y-57284946D01*
X54929122Y-57213322D01*
X54930200Y-57212009D01*
X54974679Y-57128795D01*
X54991237Y-57074211D01*
X55002069Y-57038503D01*
X55009000Y-56968129D01*
X55009000Y-56968126D01*
X55011317Y-56944603D01*
X55009000Y-56921080D01*
X55009000Y-42282104D01*
X55027038Y-42278516D01*
X55337147Y-42150065D01*
X55616237Y-41963583D01*
X55687940Y-41891880D01*
X58495909Y-41891880D01*
X58652235Y-42110141D01*
X58955911Y-42253135D01*
X59281650Y-42334139D01*
X59616932Y-42350037D01*
X59948873Y-42300220D01*
X60264717Y-42186602D01*
X60407765Y-42110141D01*
X60564091Y-41891880D01*
X59530000Y-40857789D01*
X58495909Y-41891880D01*
X55687940Y-41891880D01*
X55853583Y-41726237D01*
X56040065Y-41447147D01*
X56168516Y-41137038D01*
X56234000Y-40807829D01*
X56234000Y-40726932D01*
X57819963Y-40726932D01*
X57869780Y-41058873D01*
X57983398Y-41374717D01*
X58059859Y-41517765D01*
X58278120Y-41674091D01*
X59312211Y-40640000D01*
X59747789Y-40640000D01*
X60781880Y-41674091D01*
X61000141Y-41517765D01*
X61143135Y-41214089D01*
X61224139Y-40888350D01*
X61240037Y-40553068D01*
X61227897Y-40472171D01*
X62826000Y-40472171D01*
X62826000Y-40807829D01*
X62891484Y-41137038D01*
X63019935Y-41447147D01*
X63206417Y-41726237D01*
X63443763Y-41963583D01*
X63722853Y-42150065D01*
X64032962Y-42278516D01*
X64362171Y-42344000D01*
X64697829Y-42344000D01*
X65027038Y-42278516D01*
X65337147Y-42150065D01*
X65616237Y-41963583D01*
X65853583Y-41726237D01*
X66040065Y-41447147D01*
X66168516Y-41137038D01*
X66234000Y-40807829D01*
X66234000Y-40472171D01*
X66168516Y-40142962D01*
X66040065Y-39832853D01*
X65853583Y-39553763D01*
X65616237Y-39316417D01*
X65337147Y-39129935D01*
X65027038Y-39001484D01*
X64697829Y-38936000D01*
X64362171Y-38936000D01*
X64032962Y-39001484D01*
X63722853Y-39129935D01*
X63443763Y-39316417D01*
X63206417Y-39553763D01*
X63019935Y-39832853D01*
X62891484Y-40142962D01*
X62826000Y-40472171D01*
X61227897Y-40472171D01*
X61190220Y-40221127D01*
X61076602Y-39905283D01*
X61000141Y-39762235D01*
X60781880Y-39605909D01*
X59747789Y-40640000D01*
X59312211Y-40640000D01*
X58278120Y-39605909D01*
X58059859Y-39762235D01*
X57916865Y-40065911D01*
X57835861Y-40391650D01*
X57819963Y-40726932D01*
X56234000Y-40726932D01*
X56234000Y-40472171D01*
X56168516Y-40142962D01*
X56040065Y-39832853D01*
X55853583Y-39553763D01*
X55687940Y-39388120D01*
X58495909Y-39388120D01*
X59530000Y-40422211D01*
X60564091Y-39388120D01*
X60407765Y-39169859D01*
X60104089Y-39026865D01*
X59778350Y-38945861D01*
X59443068Y-38929963D01*
X59111127Y-38979780D01*
X58795283Y-39093398D01*
X58652235Y-39169859D01*
X58495909Y-39388120D01*
X55687940Y-39388120D01*
X55616237Y-39316417D01*
X55337147Y-39129935D01*
X55027038Y-39001484D01*
X55009000Y-38997896D01*
X55009000Y-37082104D01*
X55027038Y-37078516D01*
X55337147Y-36950065D01*
X55616237Y-36763583D01*
X55687940Y-36691880D01*
X58495909Y-36691880D01*
X58652235Y-36910141D01*
X58955911Y-37053135D01*
X59281650Y-37134139D01*
X59616932Y-37150037D01*
X59948873Y-37100220D01*
X60264717Y-36986602D01*
X60407765Y-36910141D01*
X60564091Y-36691880D01*
X59530000Y-35657789D01*
X58495909Y-36691880D01*
X55687940Y-36691880D01*
X55853583Y-36526237D01*
X56040065Y-36247147D01*
X56168516Y-35937038D01*
X56234000Y-35607829D01*
X56234000Y-35526932D01*
X57819963Y-35526932D01*
X57869780Y-35858873D01*
X57983398Y-36174717D01*
X58059859Y-36317765D01*
X58278120Y-36474091D01*
X59312211Y-35440000D01*
X59747789Y-35440000D01*
X60781880Y-36474091D01*
X61000141Y-36317765D01*
X61143135Y-36014089D01*
X61224139Y-35688350D01*
X61240037Y-35353068D01*
X61227897Y-35272171D01*
X62826000Y-35272171D01*
X62826000Y-35607829D01*
X62891484Y-35937038D01*
X63019935Y-36247147D01*
X63206417Y-36526237D01*
X63443763Y-36763583D01*
X63722853Y-36950065D01*
X64032962Y-37078516D01*
X64362171Y-37144000D01*
X64697829Y-37144000D01*
X65027038Y-37078516D01*
X65337147Y-36950065D01*
X65616237Y-36763583D01*
X65853583Y-36526237D01*
X66040065Y-36247147D01*
X66168516Y-35937038D01*
X66234000Y-35607829D01*
X66234000Y-35272171D01*
X66168516Y-34942962D01*
X66040065Y-34632853D01*
X65853583Y-34353763D01*
X65616237Y-34116417D01*
X65337147Y-33929935D01*
X65027038Y-33801484D01*
X64697829Y-33736000D01*
X64362171Y-33736000D01*
X64032962Y-33801484D01*
X63722853Y-33929935D01*
X63443763Y-34116417D01*
X63206417Y-34353763D01*
X63019935Y-34632853D01*
X62891484Y-34942962D01*
X62826000Y-35272171D01*
X61227897Y-35272171D01*
X61190220Y-35021127D01*
X61076602Y-34705283D01*
X61000141Y-34562235D01*
X60781880Y-34405909D01*
X59747789Y-35440000D01*
X59312211Y-35440000D01*
X58278120Y-34405909D01*
X58059859Y-34562235D01*
X57916865Y-34865911D01*
X57835861Y-35191650D01*
X57819963Y-35526932D01*
X56234000Y-35526932D01*
X56234000Y-35272171D01*
X56168516Y-34942962D01*
X56040065Y-34632853D01*
X55853583Y-34353763D01*
X55687940Y-34188120D01*
X58495909Y-34188120D01*
X59530000Y-35222211D01*
X60564091Y-34188120D01*
X60407765Y-33969859D01*
X60104089Y-33826865D01*
X59778350Y-33745861D01*
X59443068Y-33729963D01*
X59111127Y-33779780D01*
X58795283Y-33893398D01*
X58652235Y-33969859D01*
X58495909Y-34188120D01*
X55687940Y-34188120D01*
X55616237Y-34116417D01*
X55337147Y-33929935D01*
X55027038Y-33801484D01*
X54697829Y-33736000D01*
X54362171Y-33736000D01*
X54032962Y-33801484D01*
X53722853Y-33929935D01*
X53443763Y-34116417D01*
X53206417Y-34353763D01*
X53019935Y-34632853D01*
X52891484Y-34942962D01*
X52826000Y-35272171D01*
X52826000Y-35607829D01*
X52891484Y-35937038D01*
X53019935Y-36247147D01*
X53206417Y-36526237D01*
X53443763Y-36763583D01*
X53722853Y-36950065D01*
X54032962Y-37078516D01*
X54051001Y-37082104D01*
X54051000Y-38754337D01*
X54051001Y-38754347D01*
X54051001Y-38997896D01*
X54032962Y-39001484D01*
X53722853Y-39129935D01*
X53443763Y-39316417D01*
X53206417Y-39553763D01*
X53019935Y-39832853D01*
X52891484Y-40142962D01*
X52826000Y-40472171D01*
X52826000Y-40807829D01*
X52891484Y-41137038D01*
X53019935Y-41447147D01*
X53206417Y-41726237D01*
X53443763Y-41963583D01*
X53722853Y-42150065D01*
X54032962Y-42278516D01*
X54051000Y-42282104D01*
X54051001Y-56746194D01*
X50009000Y-60788195D01*
X50009000Y-42345712D01*
X50880000Y-42345712D01*
X50949396Y-42338877D01*
X51016125Y-42318635D01*
X51077623Y-42285764D01*
X51131526Y-42241526D01*
X51175764Y-42187623D01*
X51208635Y-42126125D01*
X51228877Y-42059396D01*
X51235712Y-41990000D01*
X51235712Y-39290000D01*
X51228877Y-39220604D01*
X51208635Y-39153875D01*
X51175764Y-39092377D01*
X51131526Y-39038474D01*
X51077623Y-38994236D01*
X51016125Y-38961365D01*
X50949396Y-38941123D01*
X50880000Y-38934288D01*
X50009000Y-38934288D01*
X50009000Y-37145712D01*
X50880000Y-37145712D01*
X50949396Y-37138877D01*
X51016125Y-37118635D01*
X51077623Y-37085764D01*
X51131526Y-37041526D01*
X51175764Y-36987623D01*
X51208635Y-36926125D01*
X51228877Y-36859396D01*
X51235712Y-36790000D01*
X51235712Y-34090000D01*
X51228877Y-34020604D01*
X51208635Y-33953875D01*
X51175764Y-33892377D01*
X51131526Y-33838474D01*
X51077623Y-33794236D01*
X51016125Y-33761365D01*
X50949396Y-33741123D01*
X50880000Y-33734288D01*
X48180000Y-33734288D01*
X48110604Y-33741123D01*
X48043875Y-33761365D01*
X47982377Y-33794236D01*
X47928474Y-33838474D01*
X47884236Y-33892377D01*
X47851365Y-33953875D01*
X47831123Y-34020604D01*
X47824288Y-34090000D01*
X47824288Y-36790000D01*
X47831123Y-36859396D01*
X47851365Y-36926125D01*
X47884236Y-36987623D01*
X47928474Y-37041526D01*
X47982377Y-37085764D01*
X48043875Y-37118635D01*
X48110604Y-37138877D01*
X48180000Y-37145712D01*
X49051000Y-37145712D01*
X49051001Y-38934288D01*
X48180000Y-38934288D01*
X48110604Y-38941123D01*
X48043875Y-38961365D01*
X47982377Y-38994236D01*
X47928474Y-39038474D01*
X47884236Y-39092377D01*
X47851365Y-39153875D01*
X47831123Y-39220604D01*
X47824288Y-39290000D01*
X47824288Y-41990000D01*
X47831123Y-42059396D01*
X47851365Y-42126125D01*
X47884236Y-42187623D01*
X47928474Y-42241526D01*
X47982377Y-42285764D01*
X48043875Y-42318635D01*
X48110604Y-42338877D01*
X48180000Y-42345712D01*
X49051000Y-42345712D01*
X49051001Y-61015591D01*
X41907604Y-68158989D01*
X41738418Y-68158989D01*
X42994065Y-66903343D01*
X43012343Y-66888343D01*
X43053713Y-66837932D01*
X43072200Y-66815406D01*
X43116678Y-66732193D01*
X43116679Y-66732192D01*
X43144069Y-66641900D01*
X43151000Y-66571526D01*
X43151000Y-66571522D01*
X43153317Y-66548001D01*
X43151000Y-66524480D01*
X43151000Y-61825520D01*
X43153317Y-61801999D01*
X43151000Y-61778474D01*
X43144069Y-61708100D01*
X43116679Y-61617808D01*
X43072988Y-61536069D01*
X43072200Y-61534594D01*
X43028549Y-61481405D01*
X43012343Y-61461657D01*
X42994065Y-61446657D01*
X42345342Y-60797935D01*
X42345338Y-60797930D01*
X42139847Y-60592439D01*
X42150065Y-60577147D01*
X42278516Y-60267038D01*
X42344000Y-59937829D01*
X42344000Y-59602171D01*
X42278516Y-59272962D01*
X42150065Y-58962853D01*
X41963583Y-58683763D01*
X41726237Y-58446417D01*
X41447147Y-58259935D01*
X41137038Y-58131484D01*
X40807829Y-58066000D01*
X40472171Y-58066000D01*
X40142962Y-58131484D01*
X39832853Y-58259935D01*
X39553763Y-58446417D01*
X39316417Y-58683763D01*
X39129935Y-58962853D01*
X39001484Y-59272962D01*
X38997896Y-59291000D01*
X37082104Y-59291000D01*
X37078516Y-59272962D01*
X36950065Y-58962853D01*
X36763583Y-58683763D01*
X36526237Y-58446417D01*
X36247147Y-58259935D01*
X35937038Y-58131484D01*
X35607829Y-58066000D01*
X35272171Y-58066000D01*
X34942962Y-58131484D01*
X34632853Y-58259935D01*
X34353763Y-58446417D01*
X34116417Y-58683763D01*
X33929935Y-58962853D01*
X33801484Y-59272962D01*
X33736000Y-59602171D01*
X33736000Y-59937829D01*
X33801484Y-60267038D01*
X33929935Y-60577147D01*
X34116417Y-60856237D01*
X34353763Y-61093583D01*
X34632853Y-61280065D01*
X34942962Y-61408516D01*
X35272171Y-61474000D01*
X35607829Y-61474000D01*
X35937038Y-61408516D01*
X36247147Y-61280065D01*
X36526237Y-61093583D01*
X36763583Y-60856237D01*
X36950065Y-60577147D01*
X37078516Y-60267038D01*
X37082104Y-60249000D01*
X38997896Y-60249000D01*
X39001484Y-60267038D01*
X39129935Y-60577147D01*
X39316417Y-60856237D01*
X39553763Y-61093583D01*
X39832853Y-61280065D01*
X40142962Y-61408516D01*
X40472171Y-61474000D01*
X40807829Y-61474000D01*
X41137038Y-61408516D01*
X41447147Y-61280065D01*
X41462439Y-61269847D01*
X41667930Y-61475338D01*
X41667935Y-61475342D01*
X42193001Y-62000409D01*
X42193001Y-63128649D01*
X42187623Y-63124236D01*
X42126125Y-63091365D01*
X42059396Y-63071123D01*
X41990000Y-63064288D01*
X39290000Y-63064288D01*
X39220604Y-63071123D01*
X39153875Y-63091365D01*
X39092377Y-63124236D01*
X39038474Y-63168474D01*
X38994236Y-63222377D01*
X38961365Y-63283875D01*
X38941123Y-63350604D01*
X38934288Y-63420000D01*
X38934288Y-64291000D01*
X37145712Y-64291000D01*
X37145712Y-63420000D01*
X37138877Y-63350604D01*
X37118635Y-63283875D01*
X37085764Y-63222377D01*
X37041526Y-63168474D01*
X36987623Y-63124236D01*
X36926125Y-63091365D01*
X36859396Y-63071123D01*
X36790000Y-63064288D01*
X34090000Y-63064288D01*
X34020604Y-63071123D01*
X33953875Y-63091365D01*
X33892377Y-63124236D01*
X33838474Y-63168474D01*
X33794236Y-63222377D01*
X33761365Y-63283875D01*
X33741123Y-63350604D01*
X33734288Y-63420000D01*
X33734288Y-64301514D01*
X33655808Y-64325321D01*
X33625858Y-64341330D01*
X33621314Y-57504000D01*
X43177405Y-57504000D01*
X43246112Y-57497268D01*
X43312541Y-57477192D01*
X43373776Y-57444541D01*
X43427465Y-57400571D01*
X43471544Y-57346973D01*
X43504320Y-57285804D01*
X43524532Y-57219417D01*
X43531405Y-57150362D01*
X43536596Y-52070362D01*
X43529794Y-52000938D01*
X43509649Y-51934530D01*
X43476936Y-51873328D01*
X43432912Y-51819684D01*
X43379268Y-51775660D01*
X43318066Y-51742947D01*
X43251658Y-51722802D01*
X43182596Y-51716000D01*
X30989731Y-51716000D01*
X30923001Y-51722346D01*
X30856460Y-51742045D01*
X30795039Y-51774346D01*
X30741101Y-51818010D01*
X21062029Y-61368000D01*
X12192000Y-61368000D01*
X12122938Y-61374802D01*
X12056530Y-61394947D01*
X11995328Y-61427660D01*
X11941684Y-61471684D01*
X11897660Y-61525328D01*
X11864947Y-61586530D01*
X11844802Y-61652938D01*
X11838000Y-61722000D01*
X11838000Y-66278593D01*
X11274000Y-65714593D01*
X11274000Y-64412523D01*
X11276317Y-64389000D01*
X11272140Y-64346590D01*
X11267069Y-64295100D01*
X11239679Y-64204808D01*
X11206985Y-64143643D01*
X11195200Y-64121594D01*
X11170435Y-64091417D01*
X11135343Y-64048657D01*
X11117065Y-64033657D01*
X7337000Y-60253593D01*
X7337000Y-58763712D01*
X7608000Y-58763712D01*
X7677396Y-58756877D01*
X7744125Y-58736635D01*
X7805623Y-58703764D01*
X7859526Y-58659526D01*
X7903764Y-58605623D01*
X7936635Y-58544125D01*
X7956877Y-58477396D01*
X7963712Y-58408000D01*
X7963712Y-56908000D01*
X7956877Y-56838604D01*
X7936635Y-56771875D01*
X7903764Y-56710377D01*
X7859526Y-56656474D01*
X7805623Y-56612236D01*
X7744125Y-56579365D01*
X7677396Y-56559123D01*
X7608000Y-56552288D01*
X7506751Y-56552288D01*
X7561759Y-56515533D01*
X7715533Y-56361759D01*
X7836352Y-56180940D01*
X7919574Y-55980025D01*
X7962000Y-55766735D01*
X7962000Y-55549265D01*
X7919574Y-55335975D01*
X7836352Y-55135060D01*
X7715533Y-54954241D01*
X7561759Y-54800467D01*
X7380940Y-54679648D01*
X7337000Y-54661447D01*
X7337000Y-54620863D01*
X7339317Y-54597340D01*
X7337000Y-54573814D01*
X7330069Y-54503440D01*
X7302679Y-54413148D01*
X7277294Y-54365657D01*
X7258200Y-54329934D01*
X7233435Y-54299757D01*
X7198343Y-54256997D01*
X7180065Y-54241997D01*
X6503067Y-53565000D01*
X6659593Y-53565000D01*
X8665000Y-55570408D01*
X8665001Y-58338780D01*
X8665000Y-58338790D01*
X8665000Y-58341230D01*
X8663353Y-58342330D01*
X8558330Y-58447353D01*
X8475814Y-58570847D01*
X8418976Y-58708066D01*
X8390000Y-58853738D01*
X8390000Y-59002262D01*
X8418976Y-59147934D01*
X8475814Y-59285153D01*
X8558330Y-59408647D01*
X8663353Y-59513670D01*
X8786847Y-59596186D01*
X8924066Y-59653024D01*
X9069738Y-59682000D01*
X9218262Y-59682000D01*
X9363934Y-59653024D01*
X9501153Y-59596186D01*
X9624647Y-59513670D01*
X9729670Y-59408647D01*
X9812186Y-59285153D01*
X9869024Y-59147934D01*
X9898000Y-59002262D01*
X9898000Y-58853738D01*
X9869024Y-58708066D01*
X9812186Y-58570847D01*
X9729670Y-58447353D01*
X9624647Y-58342330D01*
X9623000Y-58341230D01*
X9623000Y-58299214D01*
X9686066Y-58325337D01*
X9831738Y-58354313D01*
X9980262Y-58354313D01*
X10125934Y-58325337D01*
X10202179Y-58293755D01*
X13536034Y-58293755D01*
X13650016Y-58476154D01*
X13893907Y-58584108D01*
X14154171Y-58642408D01*
X14420809Y-58648812D01*
X14683574Y-58603074D01*
X14932366Y-58506952D01*
X14989984Y-58476154D01*
X15103966Y-58293755D01*
X19536034Y-58293755D01*
X19650016Y-58476154D01*
X19893907Y-58584108D01*
X20154171Y-58642408D01*
X20420809Y-58648812D01*
X20683574Y-58603074D01*
X20932366Y-58506952D01*
X20989984Y-58476154D01*
X21103966Y-58293755D01*
X20320000Y-57509789D01*
X19536034Y-58293755D01*
X15103966Y-58293755D01*
X14320000Y-57509789D01*
X13536034Y-58293755D01*
X10202179Y-58293755D01*
X10263153Y-58268499D01*
X10386647Y-58185983D01*
X10491670Y-58080960D01*
X10574186Y-57957466D01*
X10631024Y-57820247D01*
X10660000Y-57674575D01*
X10660000Y-57526051D01*
X10633497Y-57392809D01*
X12963188Y-57392809D01*
X13008926Y-57655574D01*
X13105048Y-57904366D01*
X13135846Y-57961984D01*
X13318245Y-58075966D01*
X14102211Y-57292000D01*
X14537789Y-57292000D01*
X15321755Y-58075966D01*
X15504154Y-57961984D01*
X15612108Y-57718093D01*
X15670408Y-57457829D01*
X15671969Y-57392809D01*
X18963188Y-57392809D01*
X19008926Y-57655574D01*
X19105048Y-57904366D01*
X19135846Y-57961984D01*
X19318245Y-58075966D01*
X20102211Y-57292000D01*
X20537789Y-57292000D01*
X21321755Y-58075966D01*
X21504154Y-57961984D01*
X21612108Y-57718093D01*
X21670408Y-57457829D01*
X21676812Y-57191191D01*
X21631074Y-56928426D01*
X21534952Y-56679634D01*
X21504154Y-56622016D01*
X21321755Y-56508034D01*
X20537789Y-57292000D01*
X20102211Y-57292000D01*
X19318245Y-56508034D01*
X19135846Y-56622016D01*
X19027892Y-56865907D01*
X18969592Y-57126171D01*
X18963188Y-57392809D01*
X15671969Y-57392809D01*
X15676812Y-57191191D01*
X15631074Y-56928426D01*
X15534952Y-56679634D01*
X15504154Y-56622016D01*
X15321755Y-56508034D01*
X14537789Y-57292000D01*
X14102211Y-57292000D01*
X13318245Y-56508034D01*
X13135846Y-56622016D01*
X13027892Y-56865907D01*
X12969592Y-57126171D01*
X12963188Y-57392809D01*
X10633497Y-57392809D01*
X10631024Y-57380379D01*
X10574186Y-57243160D01*
X10491670Y-57119666D01*
X10386647Y-57014643D01*
X10385000Y-57013543D01*
X10385000Y-56290245D01*
X13536034Y-56290245D01*
X14320000Y-57074211D01*
X15103966Y-56290245D01*
X19536034Y-56290245D01*
X20320000Y-57074211D01*
X21103966Y-56290245D01*
X20989984Y-56107846D01*
X20746093Y-55999892D01*
X20485829Y-55941592D01*
X20219191Y-55935188D01*
X19956426Y-55980926D01*
X19707634Y-56077048D01*
X19650016Y-56107846D01*
X19536034Y-56290245D01*
X15103966Y-56290245D01*
X14989984Y-56107846D01*
X14746093Y-55999892D01*
X14485829Y-55941592D01*
X14219191Y-55935188D01*
X13956426Y-55980926D01*
X13707634Y-56077048D01*
X13650016Y-56107846D01*
X13536034Y-56290245D01*
X10385000Y-56290245D01*
X10385000Y-54729523D01*
X10387317Y-54706000D01*
X10385000Y-54682474D01*
X10378069Y-54612100D01*
X10350679Y-54521808D01*
X10329974Y-54483073D01*
X10306200Y-54438594D01*
X10281435Y-54408417D01*
X10246343Y-54365657D01*
X10228065Y-54350657D01*
X7901373Y-52023966D01*
X7919574Y-51980025D01*
X7962000Y-51766735D01*
X7962000Y-51549265D01*
X7919574Y-51335975D01*
X7836352Y-51135060D01*
X7715533Y-50954241D01*
X7561759Y-50800467D01*
X7380940Y-50679648D01*
X7328677Y-50658000D01*
X7380940Y-50636352D01*
X7561759Y-50515533D01*
X7715533Y-50361759D01*
X7836352Y-50180940D01*
X7845587Y-50158643D01*
X12966000Y-50158643D01*
X12966000Y-50425357D01*
X13018034Y-50686947D01*
X13120101Y-50933359D01*
X13268280Y-51155124D01*
X13456876Y-51343720D01*
X13678641Y-51491899D01*
X13925053Y-51593966D01*
X14186643Y-51646000D01*
X14453357Y-51646000D01*
X14714947Y-51593966D01*
X14961359Y-51491899D01*
X15183124Y-51343720D01*
X15371720Y-51155124D01*
X15519899Y-50933359D01*
X15621966Y-50686947D01*
X15674000Y-50425357D01*
X15674000Y-50158643D01*
X15621966Y-49897053D01*
X15519899Y-49650641D01*
X15371720Y-49428876D01*
X15234844Y-49292000D01*
X18964288Y-49292000D01*
X18964288Y-51292000D01*
X18971123Y-51361396D01*
X18991365Y-51428125D01*
X19024236Y-51489623D01*
X19068474Y-51543526D01*
X19122377Y-51587764D01*
X19183875Y-51620635D01*
X19250604Y-51640877D01*
X19320000Y-51647712D01*
X21320000Y-51647712D01*
X21389396Y-51640877D01*
X21456125Y-51620635D01*
X21517623Y-51587764D01*
X21571526Y-51543526D01*
X21615764Y-51489623D01*
X21648635Y-51428125D01*
X21668877Y-51361396D01*
X21675712Y-51292000D01*
X21675712Y-49602171D01*
X33736000Y-49602171D01*
X33736000Y-49937829D01*
X33801484Y-50267038D01*
X33929935Y-50577147D01*
X34116417Y-50856237D01*
X34353763Y-51093583D01*
X34632853Y-51280065D01*
X34942962Y-51408516D01*
X35272171Y-51474000D01*
X35607829Y-51474000D01*
X35937038Y-51408516D01*
X36247147Y-51280065D01*
X36526237Y-51093583D01*
X36763583Y-50856237D01*
X36950065Y-50577147D01*
X37078516Y-50267038D01*
X37144000Y-49937829D01*
X37144000Y-49602171D01*
X38936000Y-49602171D01*
X38936000Y-49937829D01*
X39001484Y-50267038D01*
X39129935Y-50577147D01*
X39316417Y-50856237D01*
X39553763Y-51093583D01*
X39832853Y-51280065D01*
X40142962Y-51408516D01*
X40472171Y-51474000D01*
X40807829Y-51474000D01*
X41137038Y-51408516D01*
X41447147Y-51280065D01*
X41726237Y-51093583D01*
X41963583Y-50856237D01*
X42150065Y-50577147D01*
X42278516Y-50267038D01*
X42344000Y-49937829D01*
X42344000Y-49602171D01*
X42278516Y-49272962D01*
X42150065Y-48962853D01*
X41963583Y-48683763D01*
X41726237Y-48446417D01*
X41447147Y-48259935D01*
X41137038Y-48131484D01*
X40807829Y-48066000D01*
X40472171Y-48066000D01*
X40142962Y-48131484D01*
X39832853Y-48259935D01*
X39553763Y-48446417D01*
X39316417Y-48683763D01*
X39129935Y-48962853D01*
X39001484Y-49272962D01*
X38936000Y-49602171D01*
X37144000Y-49602171D01*
X37078516Y-49272962D01*
X36950065Y-48962853D01*
X36763583Y-48683763D01*
X36526237Y-48446417D01*
X36247147Y-48259935D01*
X35937038Y-48131484D01*
X35607829Y-48066000D01*
X35272171Y-48066000D01*
X34942962Y-48131484D01*
X34632853Y-48259935D01*
X34353763Y-48446417D01*
X34116417Y-48683763D01*
X33929935Y-48962853D01*
X33801484Y-49272962D01*
X33736000Y-49602171D01*
X21675712Y-49602171D01*
X21675712Y-49292000D01*
X21668877Y-49222604D01*
X21648635Y-49155875D01*
X21615764Y-49094377D01*
X21571526Y-49040474D01*
X21517623Y-48996236D01*
X21456125Y-48963365D01*
X21389396Y-48943123D01*
X21320000Y-48936288D01*
X19320000Y-48936288D01*
X19250604Y-48943123D01*
X19183875Y-48963365D01*
X19122377Y-48996236D01*
X19068474Y-49040474D01*
X19024236Y-49094377D01*
X18991365Y-49155875D01*
X18971123Y-49222604D01*
X18964288Y-49292000D01*
X15234844Y-49292000D01*
X15183124Y-49240280D01*
X14961359Y-49092101D01*
X14714947Y-48990034D01*
X14453357Y-48938000D01*
X14186643Y-48938000D01*
X13925053Y-48990034D01*
X13678641Y-49092101D01*
X13456876Y-49240280D01*
X13268280Y-49428876D01*
X13120101Y-49650641D01*
X13018034Y-49897053D01*
X12966000Y-50158643D01*
X7845587Y-50158643D01*
X7919574Y-49980025D01*
X7962000Y-49766735D01*
X7962000Y-49549265D01*
X7919574Y-49335975D01*
X7836352Y-49135060D01*
X7715533Y-48954241D01*
X7561759Y-48800467D01*
X7380940Y-48679648D01*
X7180025Y-48596426D01*
X6966735Y-48554000D01*
X6749265Y-48554000D01*
X6535975Y-48596426D01*
X6335060Y-48679648D01*
X6154241Y-48800467D01*
X6000467Y-48954241D01*
X5879648Y-49135060D01*
X5796426Y-49335975D01*
X5754000Y-49549265D01*
X5754000Y-49766735D01*
X5796426Y-49980025D01*
X5879648Y-50180940D01*
X6000467Y-50361759D01*
X6154241Y-50515533D01*
X6335060Y-50636352D01*
X6387323Y-50658000D01*
X6335060Y-50679648D01*
X6154241Y-50800467D01*
X6000467Y-50954241D01*
X5879648Y-51135060D01*
X5796426Y-51335975D01*
X5754000Y-51549265D01*
X5754000Y-51766735D01*
X5796426Y-51980025D01*
X5879648Y-52180940D01*
X6000467Y-52361759D01*
X6154241Y-52515533D01*
X6291131Y-52607000D01*
X5184408Y-52607000D01*
X4601373Y-52023966D01*
X4619574Y-51980025D01*
X4662000Y-51766735D01*
X4662000Y-51549265D01*
X4619574Y-51335975D01*
X4536352Y-51135060D01*
X4415533Y-50954241D01*
X4261759Y-50800467D01*
X4080940Y-50679648D01*
X4028677Y-50658000D01*
X4080940Y-50636352D01*
X4261759Y-50515533D01*
X4415533Y-50361759D01*
X4536352Y-50180940D01*
X4619574Y-49980025D01*
X4662000Y-49766735D01*
X4662000Y-49549265D01*
X4619574Y-49335975D01*
X4536352Y-49135060D01*
X4415533Y-48954241D01*
X4261759Y-48800467D01*
X4080940Y-48679648D01*
X4037000Y-48661447D01*
X4037000Y-48456407D01*
X4495794Y-47997613D01*
X4497738Y-47998000D01*
X4646262Y-47998000D01*
X4791934Y-47969024D01*
X4929153Y-47912186D01*
X5052647Y-47829670D01*
X5157670Y-47724647D01*
X5240186Y-47601153D01*
X5297024Y-47463934D01*
X5326000Y-47318262D01*
X5326000Y-47169738D01*
X5297024Y-47024066D01*
X5240186Y-46886847D01*
X5195520Y-46820000D01*
X6823671Y-46820000D01*
X6834444Y-46855512D01*
X6889262Y-46958071D01*
X6963036Y-47047964D01*
X7052929Y-47121738D01*
X7155488Y-47176556D01*
X7266770Y-47210314D01*
X7382500Y-47221712D01*
X7857500Y-47221712D01*
X7973230Y-47210314D01*
X8084512Y-47176556D01*
X8187071Y-47121738D01*
X8276964Y-47047964D01*
X8350738Y-46958071D01*
X8405556Y-46855512D01*
X8439314Y-46744230D01*
X8450712Y-46628500D01*
X8450712Y-46053500D01*
X8439314Y-45937770D01*
X8405556Y-45826488D01*
X8350738Y-45723929D01*
X8276964Y-45634036D01*
X8187071Y-45560262D01*
X8084512Y-45505444D01*
X7973230Y-45471686D01*
X7915497Y-45466000D01*
X7973230Y-45460314D01*
X8084512Y-45426556D01*
X8187071Y-45371738D01*
X8276964Y-45297964D01*
X8350738Y-45208071D01*
X8405556Y-45105512D01*
X8439314Y-44994230D01*
X8450712Y-44878500D01*
X8450712Y-44437695D01*
X10408294Y-42480113D01*
X10410238Y-42480500D01*
X10558762Y-42480500D01*
X10704434Y-42451524D01*
X10841653Y-42394686D01*
X10965147Y-42312170D01*
X11070170Y-42207147D01*
X11152686Y-42083653D01*
X11209524Y-41946434D01*
X11238500Y-41800762D01*
X11238500Y-41652238D01*
X11209524Y-41506566D01*
X11152686Y-41369347D01*
X11070170Y-41245853D01*
X10965147Y-41140830D01*
X10841653Y-41058314D01*
X10704434Y-41001476D01*
X10558762Y-40972500D01*
X10410238Y-40972500D01*
X10264566Y-41001476D01*
X10127347Y-41058314D01*
X10003853Y-41140830D01*
X9898830Y-41245853D01*
X9831793Y-41346182D01*
X9812186Y-41298847D01*
X9729670Y-41175353D01*
X9624647Y-41070330D01*
X9501153Y-40987814D01*
X9363934Y-40930976D01*
X9218262Y-40902000D01*
X9069738Y-40902000D01*
X8924066Y-40930976D01*
X8786847Y-40987814D01*
X8663353Y-41070330D01*
X8558330Y-41175353D01*
X8475814Y-41298847D01*
X8418976Y-41436066D01*
X8390000Y-41581738D01*
X8390000Y-41730262D01*
X8390387Y-41732206D01*
X6010593Y-44112000D01*
X3590329Y-44112000D01*
X3579556Y-44076488D01*
X3524738Y-43973929D01*
X3450964Y-43884036D01*
X3361071Y-43810262D01*
X3258512Y-43755444D01*
X3147230Y-43721686D01*
X3031500Y-43710288D01*
X2556500Y-43710288D01*
X2440770Y-43721686D01*
X2329488Y-43755444D01*
X2226929Y-43810262D01*
X2137036Y-43884036D01*
X2063262Y-43973929D01*
X2008444Y-44076488D01*
X1974686Y-44187770D01*
X1963288Y-44303500D01*
X1963288Y-44878500D01*
X1974686Y-44994230D01*
X2008444Y-45105512D01*
X2063262Y-45208071D01*
X2137036Y-45297964D01*
X2226929Y-45371738D01*
X2329488Y-45426556D01*
X2440770Y-45460314D01*
X2498503Y-45466000D01*
X2440770Y-45471686D01*
X2329488Y-45505444D01*
X2226929Y-45560262D01*
X2137036Y-45634036D01*
X2063262Y-45723929D01*
X2008444Y-45826488D01*
X1974686Y-45937770D01*
X1963288Y-46053500D01*
X1963288Y-46494304D01*
X947936Y-47509657D01*
X929658Y-47524657D01*
X914661Y-47542932D01*
X869800Y-47597595D01*
X825322Y-47680808D01*
X797932Y-47771100D01*
X788683Y-47865000D01*
X379000Y-47865000D01*
X379000Y-34242171D01*
X3616000Y-34242171D01*
X3616000Y-34577829D01*
X3681484Y-34907038D01*
X3809935Y-35217147D01*
X3996417Y-35496237D01*
X4233763Y-35733583D01*
X4512853Y-35920065D01*
X4822962Y-36048516D01*
X5152171Y-36114000D01*
X5487829Y-36114000D01*
X5817038Y-36048516D01*
X6127147Y-35920065D01*
X6406237Y-35733583D01*
X6477940Y-35661880D01*
X9285909Y-35661880D01*
X9442235Y-35880141D01*
X9745911Y-36023135D01*
X10071650Y-36104139D01*
X10406932Y-36120037D01*
X10738873Y-36070220D01*
X11054717Y-35956602D01*
X11197765Y-35880141D01*
X11354091Y-35661880D01*
X10320000Y-34627789D01*
X9285909Y-35661880D01*
X6477940Y-35661880D01*
X6643583Y-35496237D01*
X6830065Y-35217147D01*
X6958516Y-34907038D01*
X7024000Y-34577829D01*
X7024000Y-34496932D01*
X8609963Y-34496932D01*
X8659780Y-34828873D01*
X8773398Y-35144717D01*
X8849859Y-35287765D01*
X9068120Y-35444091D01*
X10102211Y-34410000D01*
X10537789Y-34410000D01*
X11571880Y-35444091D01*
X11790141Y-35287765D01*
X11933135Y-34984089D01*
X12014139Y-34658350D01*
X12030037Y-34323068D01*
X12017897Y-34242171D01*
X13616000Y-34242171D01*
X13616000Y-34577829D01*
X13681484Y-34907038D01*
X13809935Y-35217147D01*
X13996417Y-35496237D01*
X14233763Y-35733583D01*
X14512853Y-35920065D01*
X14822962Y-36048516D01*
X15152171Y-36114000D01*
X15487829Y-36114000D01*
X15817038Y-36048516D01*
X16127147Y-35920065D01*
X16406237Y-35733583D01*
X16643583Y-35496237D01*
X16830065Y-35217147D01*
X16958516Y-34907038D01*
X17024000Y-34577829D01*
X17024000Y-34242171D01*
X16958516Y-33912962D01*
X16830065Y-33602853D01*
X16643583Y-33323763D01*
X16406237Y-33086417D01*
X16366702Y-33060000D01*
X18614288Y-33060000D01*
X18614288Y-35760000D01*
X18621123Y-35829396D01*
X18641365Y-35896125D01*
X18674236Y-35957623D01*
X18718474Y-36011526D01*
X18772377Y-36055764D01*
X18833875Y-36088635D01*
X18900604Y-36108877D01*
X18970000Y-36115712D01*
X21670000Y-36115712D01*
X21739396Y-36108877D01*
X21806125Y-36088635D01*
X21867623Y-36055764D01*
X21921526Y-36011526D01*
X21965764Y-35957623D01*
X21998635Y-35896125D01*
X22018877Y-35829396D01*
X22025712Y-35760000D01*
X22025712Y-34557700D01*
X29117605Y-34557700D01*
X29127180Y-35555145D01*
X29304677Y-36536716D01*
X29645021Y-37474348D01*
X30138480Y-38341230D01*
X30770944Y-39112577D01*
X31524331Y-39766332D01*
X32377097Y-40283804D01*
X33304860Y-40650195D01*
X34281093Y-40855030D01*
X35277881Y-40892451D01*
X36266724Y-40761390D01*
X37219347Y-40465592D01*
X38108512Y-40013517D01*
X38908796Y-39418090D01*
X39597315Y-38696336D01*
X40154382Y-37868892D01*
X40564070Y-36959419D01*
X40814665Y-35993919D01*
X40899000Y-35000000D01*
X40897913Y-34886754D01*
X40794512Y-33894638D01*
X40525429Y-32934127D01*
X40098357Y-32032685D01*
X39525507Y-31216089D01*
X38823259Y-30507686D01*
X38011693Y-29927731D01*
X37114013Y-29492809D01*
X36155886Y-29215354D01*
X35164710Y-29103300D01*
X34168824Y-29159850D01*
X33196703Y-29383389D01*
X32276145Y-29767523D01*
X31433470Y-30301270D01*
X30692773Y-30969368D01*
X30075232Y-31752714D01*
X29598506Y-32628910D01*
X29276226Y-33572903D01*
X29117605Y-34557700D01*
X22025712Y-34557700D01*
X22025712Y-33060000D01*
X22018877Y-32990604D01*
X21998635Y-32923875D01*
X21965764Y-32862377D01*
X21921526Y-32808474D01*
X21867623Y-32764236D01*
X21806125Y-32731365D01*
X21739396Y-32711123D01*
X21670000Y-32704288D01*
X18970000Y-32704288D01*
X18900604Y-32711123D01*
X18833875Y-32731365D01*
X18772377Y-32764236D01*
X18718474Y-32808474D01*
X18674236Y-32862377D01*
X18641365Y-32923875D01*
X18621123Y-32990604D01*
X18614288Y-33060000D01*
X16366702Y-33060000D01*
X16127147Y-32899935D01*
X15817038Y-32771484D01*
X15487829Y-32706000D01*
X15152171Y-32706000D01*
X14822962Y-32771484D01*
X14512853Y-32899935D01*
X14233763Y-33086417D01*
X13996417Y-33323763D01*
X13809935Y-33602853D01*
X13681484Y-33912962D01*
X13616000Y-34242171D01*
X12017897Y-34242171D01*
X11980220Y-33991127D01*
X11866602Y-33675283D01*
X11790141Y-33532235D01*
X11571880Y-33375909D01*
X10537789Y-34410000D01*
X10102211Y-34410000D01*
X9068120Y-33375909D01*
X8849859Y-33532235D01*
X8706865Y-33835911D01*
X8625861Y-34161650D01*
X8609963Y-34496932D01*
X7024000Y-34496932D01*
X7024000Y-34242171D01*
X6958516Y-33912962D01*
X6830065Y-33602853D01*
X6643583Y-33323763D01*
X6477940Y-33158120D01*
X9285909Y-33158120D01*
X10320000Y-34192211D01*
X11354091Y-33158120D01*
X11197765Y-32939859D01*
X10894089Y-32796865D01*
X10568350Y-32715861D01*
X10233068Y-32699963D01*
X9901127Y-32749780D01*
X9585283Y-32863398D01*
X9442235Y-32939859D01*
X9285909Y-33158120D01*
X6477940Y-33158120D01*
X6406237Y-33086417D01*
X6127147Y-32899935D01*
X5817038Y-32771484D01*
X5487829Y-32706000D01*
X5152171Y-32706000D01*
X4822962Y-32771484D01*
X4512853Y-32899935D01*
X4233763Y-33086417D01*
X3996417Y-33323763D01*
X3809935Y-33602853D01*
X3681484Y-33912962D01*
X3616000Y-34242171D01*
X379000Y-34242171D01*
X379000Y-29042171D01*
X3616000Y-29042171D01*
X3616000Y-29377829D01*
X3681484Y-29707038D01*
X3809935Y-30017147D01*
X3996417Y-30296237D01*
X4233763Y-30533583D01*
X4512853Y-30720065D01*
X4822962Y-30848516D01*
X5152171Y-30914000D01*
X5487829Y-30914000D01*
X5817038Y-30848516D01*
X6127147Y-30720065D01*
X6406237Y-30533583D01*
X6477940Y-30461880D01*
X9285909Y-30461880D01*
X9442235Y-30680141D01*
X9745911Y-30823135D01*
X10071650Y-30904139D01*
X10406932Y-30920037D01*
X10738873Y-30870220D01*
X11054717Y-30756602D01*
X11197765Y-30680141D01*
X11354091Y-30461880D01*
X10320000Y-29427789D01*
X9285909Y-30461880D01*
X6477940Y-30461880D01*
X6643583Y-30296237D01*
X6830065Y-30017147D01*
X6958516Y-29707038D01*
X7024000Y-29377829D01*
X7024000Y-29296932D01*
X8609963Y-29296932D01*
X8659780Y-29628873D01*
X8773398Y-29944717D01*
X8849859Y-30087765D01*
X9068120Y-30244091D01*
X10102211Y-29210000D01*
X10537789Y-29210000D01*
X11571880Y-30244091D01*
X11790141Y-30087765D01*
X11933135Y-29784089D01*
X12014139Y-29458350D01*
X12030037Y-29123068D01*
X12017897Y-29042171D01*
X13616000Y-29042171D01*
X13616000Y-29377829D01*
X13681484Y-29707038D01*
X13809935Y-30017147D01*
X13996417Y-30296237D01*
X14233763Y-30533583D01*
X14512853Y-30720065D01*
X14822962Y-30848516D01*
X15152171Y-30914000D01*
X15487829Y-30914000D01*
X15817038Y-30848516D01*
X16127147Y-30720065D01*
X16406237Y-30533583D01*
X16643583Y-30296237D01*
X16830065Y-30017147D01*
X16958516Y-29707038D01*
X17024000Y-29377829D01*
X17024000Y-29042171D01*
X16958516Y-28712962D01*
X16830065Y-28402853D01*
X16643583Y-28123763D01*
X16406237Y-27886417D01*
X16366702Y-27860000D01*
X18614288Y-27860000D01*
X18614288Y-30560000D01*
X18621123Y-30629396D01*
X18641365Y-30696125D01*
X18674236Y-30757623D01*
X18718474Y-30811526D01*
X18772377Y-30855764D01*
X18833875Y-30888635D01*
X18900604Y-30908877D01*
X18970000Y-30915712D01*
X21670000Y-30915712D01*
X21739396Y-30908877D01*
X21806125Y-30888635D01*
X21867623Y-30855764D01*
X21921526Y-30811526D01*
X21965764Y-30757623D01*
X21998635Y-30696125D01*
X22018877Y-30629396D01*
X22025712Y-30560000D01*
X22025712Y-27860000D01*
X22018877Y-27790604D01*
X21998635Y-27723875D01*
X21965764Y-27662377D01*
X21921526Y-27608474D01*
X21867623Y-27564236D01*
X21806125Y-27531365D01*
X21739396Y-27511123D01*
X21670000Y-27504288D01*
X18970000Y-27504288D01*
X18900604Y-27511123D01*
X18833875Y-27531365D01*
X18772377Y-27564236D01*
X18718474Y-27608474D01*
X18674236Y-27662377D01*
X18641365Y-27723875D01*
X18621123Y-27790604D01*
X18614288Y-27860000D01*
X16366702Y-27860000D01*
X16127147Y-27699935D01*
X15817038Y-27571484D01*
X15487829Y-27506000D01*
X15152171Y-27506000D01*
X14822962Y-27571484D01*
X14512853Y-27699935D01*
X14233763Y-27886417D01*
X13996417Y-28123763D01*
X13809935Y-28402853D01*
X13681484Y-28712962D01*
X13616000Y-29042171D01*
X12017897Y-29042171D01*
X11980220Y-28791127D01*
X11866602Y-28475283D01*
X11790141Y-28332235D01*
X11571880Y-28175909D01*
X10537789Y-29210000D01*
X10102211Y-29210000D01*
X9068120Y-28175909D01*
X8849859Y-28332235D01*
X8706865Y-28635911D01*
X8625861Y-28961650D01*
X8609963Y-29296932D01*
X7024000Y-29296932D01*
X7024000Y-29042171D01*
X6958516Y-28712962D01*
X6830065Y-28402853D01*
X6643583Y-28123763D01*
X6477940Y-27958120D01*
X9285909Y-27958120D01*
X10320000Y-28992211D01*
X11354091Y-27958120D01*
X11197765Y-27739859D01*
X10894089Y-27596865D01*
X10568350Y-27515861D01*
X10233068Y-27499963D01*
X9901127Y-27549780D01*
X9585283Y-27663398D01*
X9442235Y-27739859D01*
X9285909Y-27958120D01*
X6477940Y-27958120D01*
X6406237Y-27886417D01*
X6127147Y-27699935D01*
X5817038Y-27571484D01*
X5487829Y-27506000D01*
X5152171Y-27506000D01*
X4822962Y-27571484D01*
X4512853Y-27699935D01*
X4233763Y-27886417D01*
X3996417Y-28123763D01*
X3809935Y-28402853D01*
X3681484Y-28712962D01*
X3616000Y-29042171D01*
X379000Y-29042171D01*
X379000Y-19912171D01*
X27506000Y-19912171D01*
X27506000Y-20247829D01*
X27571484Y-20577038D01*
X27699935Y-20887147D01*
X27886417Y-21166237D01*
X28123763Y-21403583D01*
X28402853Y-21590065D01*
X28712962Y-21718516D01*
X29042171Y-21784000D01*
X29377829Y-21784000D01*
X29707038Y-21718516D01*
X30017147Y-21590065D01*
X30296237Y-21403583D01*
X30533583Y-21166237D01*
X30720065Y-20887147D01*
X30848516Y-20577038D01*
X30914000Y-20247829D01*
X30914000Y-19912171D01*
X32706000Y-19912171D01*
X32706000Y-20247829D01*
X32771484Y-20577038D01*
X32899935Y-20887147D01*
X33086417Y-21166237D01*
X33323763Y-21403583D01*
X33602853Y-21590065D01*
X33912962Y-21718516D01*
X34242171Y-21784000D01*
X34577829Y-21784000D01*
X34907038Y-21718516D01*
X35217147Y-21590065D01*
X35496237Y-21403583D01*
X35733583Y-21166237D01*
X35920065Y-20887147D01*
X36048516Y-20577038D01*
X36114000Y-20247829D01*
X36114000Y-19912171D01*
X36048516Y-19582962D01*
X35920065Y-19272853D01*
X35733583Y-18993763D01*
X35496237Y-18756417D01*
X35217147Y-18569935D01*
X34907038Y-18441484D01*
X34577829Y-18376000D01*
X34242171Y-18376000D01*
X33912962Y-18441484D01*
X33602853Y-18569935D01*
X33323763Y-18756417D01*
X33086417Y-18993763D01*
X32899935Y-19272853D01*
X32771484Y-19582962D01*
X32706000Y-19912171D01*
X30914000Y-19912171D01*
X30848516Y-19582962D01*
X30720065Y-19272853D01*
X30533583Y-18993763D01*
X30296237Y-18756417D01*
X30017147Y-18569935D01*
X29707038Y-18441484D01*
X29377829Y-18376000D01*
X29042171Y-18376000D01*
X28712962Y-18441484D01*
X28402853Y-18569935D01*
X28123763Y-18756417D01*
X27886417Y-18993763D01*
X27699935Y-19272853D01*
X27571484Y-19582962D01*
X27506000Y-19912171D01*
X379000Y-19912171D01*
X379000Y-13103826D01*
X430330Y-13180647D01*
X535353Y-13285670D01*
X658847Y-13368186D01*
X796066Y-13425024D01*
X941738Y-13454000D01*
X1024000Y-13454000D01*
X1024000Y-13536262D01*
X1052976Y-13681934D01*
X1109814Y-13819153D01*
X1192330Y-13942647D01*
X1297353Y-14047670D01*
X1420847Y-14130186D01*
X1558066Y-14187024D01*
X1703738Y-14216000D01*
X1852262Y-14216000D01*
X1997934Y-14187024D01*
X2135153Y-14130186D01*
X2258647Y-14047670D01*
X2363670Y-13942647D01*
X2446186Y-13819153D01*
X2503024Y-13681934D01*
X2532000Y-13536262D01*
X2532000Y-13387738D01*
X2531613Y-13385794D01*
X3217407Y-12700000D01*
X26316000Y-12700000D01*
X26316000Y-17272000D01*
X26322802Y-17341062D01*
X26342947Y-17407470D01*
X26375660Y-17468672D01*
X26419684Y-17522316D01*
X26473328Y-17566340D01*
X26534530Y-17599053D01*
X26600938Y-17619198D01*
X26670000Y-17626000D01*
X35805818Y-17626000D01*
X41102545Y-22361897D01*
X41141828Y-22392340D01*
X41203030Y-22425053D01*
X41269438Y-22445198D01*
X41338500Y-22452000D01*
X58420000Y-22452000D01*
X58489062Y-22445198D01*
X58555470Y-22425053D01*
X58616672Y-22392340D01*
X58670316Y-22348316D01*
X58714340Y-22294672D01*
X58747053Y-22233470D01*
X58767198Y-22167062D01*
X58774000Y-22098000D01*
X58774000Y-16764000D01*
X58767198Y-16694938D01*
X58747053Y-16628530D01*
X58714340Y-16567328D01*
X58670316Y-16513684D01*
X58616672Y-16469660D01*
X58555470Y-16436947D01*
X58489062Y-16416802D01*
X58420000Y-16410000D01*
X44311116Y-16410000D01*
X40084030Y-13335755D01*
X49096034Y-13335755D01*
X49210016Y-13518154D01*
X49453907Y-13626108D01*
X49714171Y-13684408D01*
X49980809Y-13690812D01*
X50243574Y-13645074D01*
X50492366Y-13548952D01*
X50549984Y-13518154D01*
X50663966Y-13335755D01*
X55096034Y-13335755D01*
X55210016Y-13518154D01*
X55453907Y-13626108D01*
X55714171Y-13684408D01*
X55980809Y-13690812D01*
X56243574Y-13645074D01*
X56492366Y-13548952D01*
X56549984Y-13518154D01*
X56663966Y-13335755D01*
X55880000Y-12551789D01*
X55096034Y-13335755D01*
X50663966Y-13335755D01*
X49880000Y-12551789D01*
X49096034Y-13335755D01*
X40084030Y-13335755D01*
X38845229Y-12434809D01*
X48523188Y-12434809D01*
X48568926Y-12697574D01*
X48665048Y-12946366D01*
X48695846Y-13003984D01*
X48878245Y-13117966D01*
X49662211Y-12334000D01*
X50097789Y-12334000D01*
X50881755Y-13117966D01*
X51064154Y-13003984D01*
X51172108Y-12760093D01*
X51230408Y-12499829D01*
X51231969Y-12434809D01*
X54523188Y-12434809D01*
X54568926Y-12697574D01*
X54665048Y-12946366D01*
X54695846Y-13003984D01*
X54878245Y-13117966D01*
X55662211Y-12334000D01*
X56097789Y-12334000D01*
X56881755Y-13117966D01*
X57064154Y-13003984D01*
X57172108Y-12760093D01*
X57230408Y-12499829D01*
X57236812Y-12233191D01*
X57191074Y-11970426D01*
X57094952Y-11721634D01*
X57064154Y-11664016D01*
X56881755Y-11550034D01*
X56097789Y-12334000D01*
X55662211Y-12334000D01*
X54878245Y-11550034D01*
X54695846Y-11664016D01*
X54587892Y-11907907D01*
X54529592Y-12168171D01*
X54523188Y-12434809D01*
X51231969Y-12434809D01*
X51236812Y-12233191D01*
X51191074Y-11970426D01*
X51094952Y-11721634D01*
X51064154Y-11664016D01*
X50881755Y-11550034D01*
X50097789Y-12334000D01*
X49662211Y-12334000D01*
X48878245Y-11550034D01*
X48695846Y-11664016D01*
X48587892Y-11907907D01*
X48529592Y-12168171D01*
X48523188Y-12434809D01*
X38845229Y-12434809D01*
X38816213Y-12413707D01*
X38743470Y-12372947D01*
X38677062Y-12352802D01*
X38608000Y-12346000D01*
X26670000Y-12346000D01*
X26600938Y-12352802D01*
X26534530Y-12372947D01*
X26473328Y-12405660D01*
X26419684Y-12449684D01*
X26375660Y-12503328D01*
X26342947Y-12564530D01*
X26322802Y-12630938D01*
X26316000Y-12700000D01*
X3217407Y-12700000D01*
X4262408Y-11655000D01*
X26181289Y-11655000D01*
X26204812Y-11657317D01*
X26228335Y-11655000D01*
X26228338Y-11655000D01*
X26298712Y-11648069D01*
X26389004Y-11620679D01*
X26472217Y-11576200D01*
X26545155Y-11516343D01*
X26560159Y-11498060D01*
X27499220Y-10559000D01*
X27567896Y-10559000D01*
X27571484Y-10577038D01*
X27699935Y-10887147D01*
X27886417Y-11166237D01*
X28123763Y-11403583D01*
X28402853Y-11590065D01*
X28712962Y-11718516D01*
X29042171Y-11784000D01*
X29377829Y-11784000D01*
X29707038Y-11718516D01*
X30017147Y-11590065D01*
X30296237Y-11403583D01*
X30533583Y-11166237D01*
X30720065Y-10887147D01*
X30848516Y-10577038D01*
X30852104Y-10559000D01*
X32767896Y-10559000D01*
X32771484Y-10577038D01*
X32899935Y-10887147D01*
X33086417Y-11166237D01*
X33323763Y-11403583D01*
X33602853Y-11590065D01*
X33912962Y-11718516D01*
X34242171Y-11784000D01*
X34577829Y-11784000D01*
X34907038Y-11718516D01*
X35217147Y-11590065D01*
X35496237Y-11403583D01*
X35567575Y-11332245D01*
X49096034Y-11332245D01*
X49880000Y-12116211D01*
X50663966Y-11332245D01*
X55096034Y-11332245D01*
X55880000Y-12116211D01*
X56663966Y-11332245D01*
X56549984Y-11149846D01*
X56306093Y-11041892D01*
X56045829Y-10983592D01*
X55779191Y-10977188D01*
X55516426Y-11022926D01*
X55267634Y-11119048D01*
X55210016Y-11149846D01*
X55096034Y-11332245D01*
X50663966Y-11332245D01*
X50549984Y-11149846D01*
X50306093Y-11041892D01*
X50045829Y-10983592D01*
X49779191Y-10977188D01*
X49516426Y-11022926D01*
X49267634Y-11119048D01*
X49210016Y-11149846D01*
X49096034Y-11332245D01*
X35567575Y-11332245D01*
X35733583Y-11166237D01*
X35920065Y-10887147D01*
X36048516Y-10577038D01*
X36114000Y-10247829D01*
X36114000Y-9912171D01*
X36048516Y-9582962D01*
X35920065Y-9272853D01*
X35733583Y-8993763D01*
X35496237Y-8756417D01*
X35217147Y-8569935D01*
X34907038Y-8441484D01*
X34577829Y-8376000D01*
X34242171Y-8376000D01*
X33912962Y-8441484D01*
X33602853Y-8569935D01*
X33323763Y-8756417D01*
X33086417Y-8993763D01*
X32899935Y-9272853D01*
X32771484Y-9582962D01*
X32767896Y-9601000D01*
X30852104Y-9601000D01*
X30848516Y-9582962D01*
X30720065Y-9272853D01*
X30533583Y-8993763D01*
X30296237Y-8756417D01*
X30017147Y-8569935D01*
X29707038Y-8441484D01*
X29377829Y-8376000D01*
X29042171Y-8376000D01*
X28712962Y-8441484D01*
X28402853Y-8569935D01*
X28123763Y-8756417D01*
X27886417Y-8993763D01*
X27699935Y-9272853D01*
X27571484Y-9582962D01*
X27567896Y-9601000D01*
X27324332Y-9601000D01*
X27300811Y-9598683D01*
X27277290Y-9601000D01*
X27277286Y-9601000D01*
X27206912Y-9607931D01*
X27116620Y-9635321D01*
X27077885Y-9656026D01*
X27033406Y-9679800D01*
X27003229Y-9704565D01*
X26960469Y-9739657D01*
X26945469Y-9757935D01*
X26006405Y-10697000D01*
X25870407Y-10697000D01*
X29532071Y-7035338D01*
X29550343Y-7020343D01*
X29565339Y-7002070D01*
X29610200Y-6947407D01*
X29654678Y-6864193D01*
X29654679Y-6864192D01*
X29678486Y-6785712D01*
X30560000Y-6785712D01*
X30629396Y-6778877D01*
X30696125Y-6758635D01*
X30757623Y-6725764D01*
X30811526Y-6681526D01*
X30855764Y-6627623D01*
X30888635Y-6566125D01*
X30908877Y-6499396D01*
X30915712Y-6430000D01*
X30915712Y-5559000D01*
X32704288Y-5559000D01*
X32704288Y-6430000D01*
X32711123Y-6499396D01*
X32731365Y-6566125D01*
X32764236Y-6627623D01*
X32808474Y-6681526D01*
X32862377Y-6725764D01*
X32923875Y-6758635D01*
X32990604Y-6778877D01*
X33060000Y-6785712D01*
X35760000Y-6785712D01*
X35829396Y-6778877D01*
X35896125Y-6758635D01*
X35957623Y-6725764D01*
X36011526Y-6681526D01*
X36055764Y-6627623D01*
X36088635Y-6566125D01*
X36108877Y-6499396D01*
X36115712Y-6430000D01*
X36115712Y-5200643D01*
X48526000Y-5200643D01*
X48526000Y-5467357D01*
X48578034Y-5728947D01*
X48680101Y-5975359D01*
X48828280Y-6197124D01*
X49016876Y-6385720D01*
X49238641Y-6533899D01*
X49485053Y-6635966D01*
X49746643Y-6688000D01*
X50013357Y-6688000D01*
X50274947Y-6635966D01*
X50521359Y-6533899D01*
X50743124Y-6385720D01*
X50931720Y-6197124D01*
X51079899Y-5975359D01*
X51181966Y-5728947D01*
X51234000Y-5467357D01*
X51234000Y-5200643D01*
X51181966Y-4939053D01*
X51079899Y-4692641D01*
X50931720Y-4470876D01*
X50794844Y-4334000D01*
X54524288Y-4334000D01*
X54524288Y-6334000D01*
X54531123Y-6403396D01*
X54551365Y-6470125D01*
X54584236Y-6531623D01*
X54628474Y-6585526D01*
X54682377Y-6629764D01*
X54743875Y-6662635D01*
X54810604Y-6682877D01*
X54880000Y-6689712D01*
X56880000Y-6689712D01*
X56949396Y-6682877D01*
X57016125Y-6662635D01*
X57077623Y-6629764D01*
X57131526Y-6585526D01*
X57175764Y-6531623D01*
X57208635Y-6470125D01*
X57228877Y-6403396D01*
X57235712Y-6334000D01*
X57235712Y-4754978D01*
X61470000Y-4754978D01*
X61470000Y-5405022D01*
X61596817Y-6042574D01*
X61845578Y-6643136D01*
X62206723Y-7183627D01*
X62666373Y-7643277D01*
X63206864Y-8004422D01*
X63807426Y-8253183D01*
X64444978Y-8380000D01*
X65095022Y-8380000D01*
X65732574Y-8253183D01*
X66333136Y-8004422D01*
X66873627Y-7643277D01*
X67333277Y-7183627D01*
X67694422Y-6643136D01*
X67943183Y-6042574D01*
X68070000Y-5405022D01*
X68070000Y-4754978D01*
X67943183Y-4117426D01*
X67694422Y-3516864D01*
X67333277Y-2976373D01*
X66873627Y-2516723D01*
X66333136Y-2155578D01*
X65732574Y-1906817D01*
X65095022Y-1780000D01*
X64444978Y-1780000D01*
X63807426Y-1906817D01*
X63206864Y-2155578D01*
X62666373Y-2516723D01*
X62206723Y-2976373D01*
X61845578Y-3516864D01*
X61596817Y-4117426D01*
X61470000Y-4754978D01*
X57235712Y-4754978D01*
X57235712Y-4334000D01*
X57228877Y-4264604D01*
X57208635Y-4197875D01*
X57175764Y-4136377D01*
X57131526Y-4082474D01*
X57077623Y-4038236D01*
X57016125Y-4005365D01*
X56949396Y-3985123D01*
X56880000Y-3978288D01*
X54880000Y-3978288D01*
X54810604Y-3985123D01*
X54743875Y-4005365D01*
X54682377Y-4038236D01*
X54628474Y-4082474D01*
X54584236Y-4136377D01*
X54551365Y-4197875D01*
X54531123Y-4264604D01*
X54524288Y-4334000D01*
X50794844Y-4334000D01*
X50743124Y-4282280D01*
X50521359Y-4134101D01*
X50274947Y-4032034D01*
X50013357Y-3980000D01*
X49746643Y-3980000D01*
X49485053Y-4032034D01*
X49238641Y-4134101D01*
X49016876Y-4282280D01*
X48828280Y-4470876D01*
X48680101Y-4692641D01*
X48578034Y-4939053D01*
X48526000Y-5200643D01*
X36115712Y-5200643D01*
X36115712Y-3730000D01*
X36108877Y-3660604D01*
X36088635Y-3593875D01*
X36055764Y-3532377D01*
X36011526Y-3478474D01*
X35957623Y-3434236D01*
X35896125Y-3401365D01*
X35829396Y-3381123D01*
X35760000Y-3374288D01*
X33060000Y-3374288D01*
X32990604Y-3381123D01*
X32923875Y-3401365D01*
X32862377Y-3434236D01*
X32808474Y-3478474D01*
X32764236Y-3532377D01*
X32731365Y-3593875D01*
X32711123Y-3660604D01*
X32704288Y-3730000D01*
X32704288Y-4601000D01*
X30915712Y-4601000D01*
X30915712Y-3730000D01*
X30908877Y-3660604D01*
X30888635Y-3593875D01*
X30855764Y-3532377D01*
X30811526Y-3478474D01*
X30757623Y-3434236D01*
X30696125Y-3401365D01*
X30629396Y-3381123D01*
X30560000Y-3374288D01*
X27860000Y-3374288D01*
X27790604Y-3381123D01*
X27723875Y-3401365D01*
X27662377Y-3434236D01*
X27608474Y-3478474D01*
X27564236Y-3532377D01*
X27531365Y-3593875D01*
X27511123Y-3660604D01*
X27504288Y-3730000D01*
X27504288Y-6430000D01*
X27511123Y-6499396D01*
X27531365Y-6566125D01*
X27564236Y-6627623D01*
X27608474Y-6681526D01*
X27662377Y-6725764D01*
X27723875Y-6758635D01*
X27790604Y-6778877D01*
X27860000Y-6785712D01*
X28426879Y-6785712D01*
X25277593Y-9935000D01*
X3325520Y-9935000D01*
X3301999Y-9932683D01*
X3278478Y-9935000D01*
X3278474Y-9935000D01*
X3208100Y-9941931D01*
X3117808Y-9969321D01*
X3092565Y-9982814D01*
X3034593Y-10013800D01*
X2995708Y-10045713D01*
X2961657Y-10073657D01*
X2946660Y-10091932D01*
X1092206Y-11946387D01*
X1090262Y-11946000D01*
X941738Y-11946000D01*
X796066Y-11974976D01*
X658847Y-12031814D01*
X535353Y-12114330D01*
X430330Y-12219353D01*
X379000Y-12296174D01*
X379000Y-4754978D01*
X1780000Y-4754978D01*
X1780000Y-5405022D01*
X1906817Y-6042574D01*
X2155578Y-6643136D01*
X2516723Y-7183627D01*
X2976373Y-7643277D01*
X3516864Y-8004422D01*
X4117426Y-8253183D01*
X4754978Y-8380000D01*
X5405022Y-8380000D01*
X6042574Y-8253183D01*
X6643136Y-8004422D01*
X7183627Y-7643277D01*
X7643277Y-7183627D01*
X8004422Y-6643136D01*
X8253183Y-6042574D01*
X8380000Y-5405022D01*
X8380000Y-4754978D01*
X8253183Y-4117426D01*
X8004422Y-3516864D01*
X7643277Y-2976373D01*
X7183627Y-2516723D01*
X6643136Y-2155578D01*
X6042574Y-1906817D01*
X5405022Y-1780000D01*
X4754978Y-1780000D01*
X4117426Y-1906817D01*
X3516864Y-2155578D01*
X2976373Y-2516723D01*
X2516723Y-2976373D01*
X2155578Y-3516864D01*
X1906817Y-4117426D01*
X1780000Y-4754978D01*
X379000Y-4754978D01*
X379000Y-379000D01*
X69621000Y-379000D01*
X69621001Y-69621000D01*
G36*
X44137183Y-16844874D02*
G01*
X44154091Y-16854794D01*
X44172609Y-16861226D01*
X44196000Y-16864000D01*
X58320000Y-16864000D01*
X58320000Y-21998000D01*
X41376687Y-21998000D01*
X39517598Y-20335755D01*
X49096034Y-20335755D01*
X49210016Y-20518154D01*
X49453907Y-20626108D01*
X49714171Y-20684408D01*
X49980809Y-20690812D01*
X50243574Y-20645074D01*
X50492366Y-20548952D01*
X50549984Y-20518154D01*
X50663966Y-20335755D01*
X50648966Y-20320755D01*
X55096034Y-20320755D01*
X55210016Y-20503154D01*
X55453907Y-20611108D01*
X55714171Y-20669408D01*
X55980809Y-20675812D01*
X56243574Y-20630074D01*
X56492366Y-20533952D01*
X56549984Y-20503154D01*
X56663966Y-20320755D01*
X55880000Y-19536789D01*
X55096034Y-20320755D01*
X50648966Y-20320755D01*
X49880000Y-19551789D01*
X49096034Y-20335755D01*
X39517598Y-20335755D01*
X38509961Y-19434809D01*
X48523188Y-19434809D01*
X48568926Y-19697574D01*
X48665048Y-19946366D01*
X48695846Y-20003984D01*
X48878245Y-20117966D01*
X49662211Y-19334000D01*
X50097789Y-19334000D01*
X50881755Y-20117966D01*
X51064154Y-20003984D01*
X51172108Y-19760093D01*
X51230408Y-19499829D01*
X51232329Y-19419809D01*
X54523188Y-19419809D01*
X54568926Y-19682574D01*
X54665048Y-19931366D01*
X54695846Y-19988984D01*
X54878245Y-20102966D01*
X55662211Y-19319000D01*
X56097789Y-19319000D01*
X56881755Y-20102966D01*
X57064154Y-19988984D01*
X57172108Y-19745093D01*
X57230408Y-19484829D01*
X57236812Y-19218191D01*
X57191074Y-18955426D01*
X57094952Y-18706634D01*
X57064154Y-18649016D01*
X56881755Y-18535034D01*
X56097789Y-19319000D01*
X55662211Y-19319000D01*
X54878245Y-18535034D01*
X54695846Y-18649016D01*
X54587892Y-18892907D01*
X54529592Y-19153171D01*
X54523188Y-19419809D01*
X51232329Y-19419809D01*
X51236812Y-19233191D01*
X51191074Y-18970426D01*
X51094952Y-18721634D01*
X51064154Y-18664016D01*
X50881755Y-18550034D01*
X50097789Y-19334000D01*
X49662211Y-19334000D01*
X48878245Y-18550034D01*
X48695846Y-18664016D01*
X48587892Y-18907907D01*
X48529592Y-19168171D01*
X48523188Y-19434809D01*
X38509961Y-19434809D01*
X37276830Y-18332245D01*
X49096034Y-18332245D01*
X49880000Y-19116211D01*
X50663966Y-18332245D01*
X50654593Y-18317245D01*
X55096034Y-18317245D01*
X55880000Y-19101211D01*
X56663966Y-18317245D01*
X56549984Y-18134846D01*
X56306093Y-18026892D01*
X56045829Y-17968592D01*
X55779191Y-17962188D01*
X55516426Y-18007926D01*
X55267634Y-18104048D01*
X55210016Y-18134846D01*
X55096034Y-18317245D01*
X50654593Y-18317245D01*
X50549984Y-18149846D01*
X50306093Y-18041892D01*
X50045829Y-17983592D01*
X49779191Y-17977188D01*
X49516426Y-18022926D01*
X49267634Y-18119048D01*
X49210016Y-18149846D01*
X49096034Y-18332245D01*
X37276830Y-18332245D01*
X36007654Y-17197453D01*
X35991830Y-17185882D01*
X35974052Y-17177620D01*
X35955005Y-17172985D01*
X35941000Y-17172000D01*
X26770000Y-17172000D01*
X26770000Y-16331880D01*
X28175909Y-16331880D01*
X28332235Y-16550141D01*
X28635911Y-16693135D01*
X28961650Y-16774139D01*
X29296932Y-16790037D01*
X29628873Y-16740220D01*
X29944717Y-16626602D01*
X30087765Y-16550141D01*
X30244091Y-16331880D01*
X33375909Y-16331880D01*
X33532235Y-16550141D01*
X33835911Y-16693135D01*
X34161650Y-16774139D01*
X34496932Y-16790037D01*
X34828873Y-16740220D01*
X35144717Y-16626602D01*
X35287765Y-16550141D01*
X35444091Y-16331880D01*
X34410000Y-15297789D01*
X33375909Y-16331880D01*
X30244091Y-16331880D01*
X29210000Y-15297789D01*
X28175909Y-16331880D01*
X26770000Y-16331880D01*
X26770000Y-15166932D01*
X27499963Y-15166932D01*
X27549780Y-15498873D01*
X27663398Y-15814717D01*
X27739859Y-15957765D01*
X27958120Y-16114091D01*
X28992211Y-15080000D01*
X29427789Y-15080000D01*
X30461880Y-16114091D01*
X30680141Y-15957765D01*
X30823135Y-15654089D01*
X30904139Y-15328350D01*
X30911792Y-15166932D01*
X32699963Y-15166932D01*
X32749780Y-15498873D01*
X32863398Y-15814717D01*
X32939859Y-15957765D01*
X33158120Y-16114091D01*
X34192211Y-15080000D01*
X34627789Y-15080000D01*
X35661880Y-16114091D01*
X35880141Y-15957765D01*
X36023135Y-15654089D01*
X36104139Y-15328350D01*
X36120037Y-14993068D01*
X36070220Y-14661127D01*
X35956602Y-14345283D01*
X35880141Y-14202235D01*
X35661880Y-14045909D01*
X34627789Y-15080000D01*
X34192211Y-15080000D01*
X33158120Y-14045909D01*
X32939859Y-14202235D01*
X32796865Y-14505911D01*
X32715861Y-14831650D01*
X32699963Y-15166932D01*
X30911792Y-15166932D01*
X30920037Y-14993068D01*
X30870220Y-14661127D01*
X30756602Y-14345283D01*
X30680141Y-14202235D01*
X30461880Y-14045909D01*
X29427789Y-15080000D01*
X28992211Y-15080000D01*
X27958120Y-14045909D01*
X27739859Y-14202235D01*
X27596865Y-14505911D01*
X27515861Y-14831650D01*
X27499963Y-15166932D01*
X26770000Y-15166932D01*
X26770000Y-13828120D01*
X28175909Y-13828120D01*
X29210000Y-14862211D01*
X30244091Y-13828120D01*
X33375909Y-13828120D01*
X34410000Y-14862211D01*
X35444091Y-13828120D01*
X35287765Y-13609859D01*
X34984089Y-13466865D01*
X34658350Y-13385861D01*
X34323068Y-13369963D01*
X33991127Y-13419780D01*
X33675283Y-13533398D01*
X33532235Y-13609859D01*
X33375909Y-13828120D01*
X30244091Y-13828120D01*
X30087765Y-13609859D01*
X29784089Y-13466865D01*
X29458350Y-13385861D01*
X29123068Y-13369963D01*
X28791127Y-13419780D01*
X28475283Y-13533398D01*
X28332235Y-13609859D01*
X28175909Y-13828120D01*
X26770000Y-13828120D01*
X26770000Y-12800000D01*
X38575481Y-12800000D01*
X44137183Y-16844874D01*
X44137183Y-16844874D01*
G37*
X44137183Y-16844874D02*
X44154091Y-16854794D01*
X44172609Y-16861226D01*
X44196000Y-16864000D01*
X58320000Y-16864000D01*
X58320000Y-21998000D01*
X41376687Y-21998000D01*
X39517598Y-20335755D01*
X49096034Y-20335755D01*
X49210016Y-20518154D01*
X49453907Y-20626108D01*
X49714171Y-20684408D01*
X49980809Y-20690812D01*
X50243574Y-20645074D01*
X50492366Y-20548952D01*
X50549984Y-20518154D01*
X50663966Y-20335755D01*
X50648966Y-20320755D01*
X55096034Y-20320755D01*
X55210016Y-20503154D01*
X55453907Y-20611108D01*
X55714171Y-20669408D01*
X55980809Y-20675812D01*
X56243574Y-20630074D01*
X56492366Y-20533952D01*
X56549984Y-20503154D01*
X56663966Y-20320755D01*
X55880000Y-19536789D01*
X55096034Y-20320755D01*
X50648966Y-20320755D01*
X49880000Y-19551789D01*
X49096034Y-20335755D01*
X39517598Y-20335755D01*
X38509961Y-19434809D01*
X48523188Y-19434809D01*
X48568926Y-19697574D01*
X48665048Y-19946366D01*
X48695846Y-20003984D01*
X48878245Y-20117966D01*
X49662211Y-19334000D01*
X50097789Y-19334000D01*
X50881755Y-20117966D01*
X51064154Y-20003984D01*
X51172108Y-19760093D01*
X51230408Y-19499829D01*
X51232329Y-19419809D01*
X54523188Y-19419809D01*
X54568926Y-19682574D01*
X54665048Y-19931366D01*
X54695846Y-19988984D01*
X54878245Y-20102966D01*
X55662211Y-19319000D01*
X56097789Y-19319000D01*
X56881755Y-20102966D01*
X57064154Y-19988984D01*
X57172108Y-19745093D01*
X57230408Y-19484829D01*
X57236812Y-19218191D01*
X57191074Y-18955426D01*
X57094952Y-18706634D01*
X57064154Y-18649016D01*
X56881755Y-18535034D01*
X56097789Y-19319000D01*
X55662211Y-19319000D01*
X54878245Y-18535034D01*
X54695846Y-18649016D01*
X54587892Y-18892907D01*
X54529592Y-19153171D01*
X54523188Y-19419809D01*
X51232329Y-19419809D01*
X51236812Y-19233191D01*
X51191074Y-18970426D01*
X51094952Y-18721634D01*
X51064154Y-18664016D01*
X50881755Y-18550034D01*
X50097789Y-19334000D01*
X49662211Y-19334000D01*
X48878245Y-18550034D01*
X48695846Y-18664016D01*
X48587892Y-18907907D01*
X48529592Y-19168171D01*
X48523188Y-19434809D01*
X38509961Y-19434809D01*
X37276830Y-18332245D01*
X49096034Y-18332245D01*
X49880000Y-19116211D01*
X50663966Y-18332245D01*
X50654593Y-18317245D01*
X55096034Y-18317245D01*
X55880000Y-19101211D01*
X56663966Y-18317245D01*
X56549984Y-18134846D01*
X56306093Y-18026892D01*
X56045829Y-17968592D01*
X55779191Y-17962188D01*
X55516426Y-18007926D01*
X55267634Y-18104048D01*
X55210016Y-18134846D01*
X55096034Y-18317245D01*
X50654593Y-18317245D01*
X50549984Y-18149846D01*
X50306093Y-18041892D01*
X50045829Y-17983592D01*
X49779191Y-17977188D01*
X49516426Y-18022926D01*
X49267634Y-18119048D01*
X49210016Y-18149846D01*
X49096034Y-18332245D01*
X37276830Y-18332245D01*
X36007654Y-17197453D01*
X35991830Y-17185882D01*
X35974052Y-17177620D01*
X35955005Y-17172985D01*
X35941000Y-17172000D01*
X26770000Y-17172000D01*
X26770000Y-16331880D01*
X28175909Y-16331880D01*
X28332235Y-16550141D01*
X28635911Y-16693135D01*
X28961650Y-16774139D01*
X29296932Y-16790037D01*
X29628873Y-16740220D01*
X29944717Y-16626602D01*
X30087765Y-16550141D01*
X30244091Y-16331880D01*
X33375909Y-16331880D01*
X33532235Y-16550141D01*
X33835911Y-16693135D01*
X34161650Y-16774139D01*
X34496932Y-16790037D01*
X34828873Y-16740220D01*
X35144717Y-16626602D01*
X35287765Y-16550141D01*
X35444091Y-16331880D01*
X34410000Y-15297789D01*
X33375909Y-16331880D01*
X30244091Y-16331880D01*
X29210000Y-15297789D01*
X28175909Y-16331880D01*
X26770000Y-16331880D01*
X26770000Y-15166932D01*
X27499963Y-15166932D01*
X27549780Y-15498873D01*
X27663398Y-15814717D01*
X27739859Y-15957765D01*
X27958120Y-16114091D01*
X28992211Y-15080000D01*
X29427789Y-15080000D01*
X30461880Y-16114091D01*
X30680141Y-15957765D01*
X30823135Y-15654089D01*
X30904139Y-15328350D01*
X30911792Y-15166932D01*
X32699963Y-15166932D01*
X32749780Y-15498873D01*
X32863398Y-15814717D01*
X32939859Y-15957765D01*
X33158120Y-16114091D01*
X34192211Y-15080000D01*
X34627789Y-15080000D01*
X35661880Y-16114091D01*
X35880141Y-15957765D01*
X36023135Y-15654089D01*
X36104139Y-15328350D01*
X36120037Y-14993068D01*
X36070220Y-14661127D01*
X35956602Y-14345283D01*
X35880141Y-14202235D01*
X35661880Y-14045909D01*
X34627789Y-15080000D01*
X34192211Y-15080000D01*
X33158120Y-14045909D01*
X32939859Y-14202235D01*
X32796865Y-14505911D01*
X32715861Y-14831650D01*
X32699963Y-15166932D01*
X30911792Y-15166932D01*
X30920037Y-14993068D01*
X30870220Y-14661127D01*
X30756602Y-14345283D01*
X30680141Y-14202235D01*
X30461880Y-14045909D01*
X29427789Y-15080000D01*
X28992211Y-15080000D01*
X27958120Y-14045909D01*
X27739859Y-14202235D01*
X27596865Y-14505911D01*
X27515861Y-14831650D01*
X27499963Y-15166932D01*
X26770000Y-15166932D01*
X26770000Y-13828120D01*
X28175909Y-13828120D01*
X29210000Y-14862211D01*
X30244091Y-13828120D01*
X33375909Y-13828120D01*
X34410000Y-14862211D01*
X35444091Y-13828120D01*
X35287765Y-13609859D01*
X34984089Y-13466865D01*
X34658350Y-13385861D01*
X34323068Y-13369963D01*
X33991127Y-13419780D01*
X33675283Y-13533398D01*
X33532235Y-13609859D01*
X33375909Y-13828120D01*
X30244091Y-13828120D01*
X30087765Y-13609859D01*
X29784089Y-13466865D01*
X29458350Y-13385861D01*
X29123068Y-13369963D01*
X28791127Y-13419780D01*
X28475283Y-13533398D01*
X28332235Y-13609859D01*
X28175909Y-13828120D01*
X26770000Y-13828120D01*
X26770000Y-12800000D01*
X38575481Y-12800000D01*
X44137183Y-16844874D01*
G36*
X43077507Y-57050000D02*
G01*
X33267079Y-57050000D01*
X33247570Y-57051921D01*
X33228811Y-57057612D01*
X33211522Y-57066853D01*
X33196368Y-57079289D01*
X33183932Y-57094443D01*
X33174691Y-57111732D01*
X33169000Y-57130491D01*
X33167079Y-57150066D01*
X33172136Y-64760456D01*
X30673626Y-67258967D01*
X12818375Y-67258967D01*
X12292000Y-66732592D01*
X12292000Y-65293755D01*
X13536034Y-65293755D01*
X13650016Y-65476154D01*
X13893907Y-65584108D01*
X14154171Y-65642408D01*
X14420809Y-65648812D01*
X14683574Y-65603074D01*
X14932366Y-65506952D01*
X14989984Y-65476154D01*
X15103966Y-65293755D01*
X15088966Y-65278755D01*
X19536034Y-65278755D01*
X19650016Y-65461154D01*
X19893907Y-65569108D01*
X20154171Y-65627408D01*
X20420809Y-65633812D01*
X20683574Y-65588074D01*
X20932366Y-65491952D01*
X20989984Y-65461154D01*
X21103966Y-65278755D01*
X20320000Y-64494789D01*
X19536034Y-65278755D01*
X15088966Y-65278755D01*
X14320000Y-64509789D01*
X13536034Y-65293755D01*
X12292000Y-65293755D01*
X12292000Y-64392809D01*
X12963188Y-64392809D01*
X13008926Y-64655574D01*
X13105048Y-64904366D01*
X13135846Y-64961984D01*
X13318245Y-65075966D01*
X14102211Y-64292000D01*
X14537789Y-64292000D01*
X15321755Y-65075966D01*
X15504154Y-64961984D01*
X15612108Y-64718093D01*
X15670408Y-64457829D01*
X15672329Y-64377809D01*
X18963188Y-64377809D01*
X19008926Y-64640574D01*
X19105048Y-64889366D01*
X19135846Y-64946984D01*
X19318245Y-65060966D01*
X20102211Y-64277000D01*
X20537789Y-64277000D01*
X21321755Y-65060966D01*
X21504154Y-64946984D01*
X21612108Y-64703093D01*
X21670408Y-64442829D01*
X21676812Y-64176191D01*
X21631074Y-63913426D01*
X21534952Y-63664634D01*
X21504154Y-63607016D01*
X21321755Y-63493034D01*
X20537789Y-64277000D01*
X20102211Y-64277000D01*
X19318245Y-63493034D01*
X19135846Y-63607016D01*
X19027892Y-63850907D01*
X18969592Y-64111171D01*
X18963188Y-64377809D01*
X15672329Y-64377809D01*
X15676812Y-64191191D01*
X15631074Y-63928426D01*
X15534952Y-63679634D01*
X15504154Y-63622016D01*
X15321755Y-63508034D01*
X14537789Y-64292000D01*
X14102211Y-64292000D01*
X13318245Y-63508034D01*
X13135846Y-63622016D01*
X13027892Y-63865907D01*
X12969592Y-64126171D01*
X12963188Y-64392809D01*
X12292000Y-64392809D01*
X12292000Y-63290245D01*
X13536034Y-63290245D01*
X14320000Y-64074211D01*
X15103966Y-63290245D01*
X15094593Y-63275245D01*
X19536034Y-63275245D01*
X20320000Y-64059211D01*
X21103966Y-63275245D01*
X20989984Y-63092846D01*
X20746093Y-62984892D01*
X20485829Y-62926592D01*
X20219191Y-62920188D01*
X19956426Y-62965926D01*
X19707634Y-63062048D01*
X19650016Y-63092846D01*
X19536034Y-63275245D01*
X15094593Y-63275245D01*
X14989984Y-63107846D01*
X14746093Y-62999892D01*
X14485829Y-62941592D01*
X14219191Y-62935188D01*
X13956426Y-62980926D01*
X13707634Y-63077048D01*
X13650016Y-63107846D01*
X13536034Y-63290245D01*
X12292000Y-63290245D01*
X12292000Y-61822000D01*
X21207270Y-61822000D01*
X21226779Y-61820079D01*
X21245538Y-61814388D01*
X21262827Y-61805147D01*
X21277504Y-61793184D01*
X27126815Y-56021880D01*
X34405909Y-56021880D01*
X34562235Y-56240141D01*
X34865911Y-56383135D01*
X35191650Y-56464139D01*
X35526932Y-56480037D01*
X35858873Y-56430220D01*
X36174717Y-56316602D01*
X36317765Y-56240141D01*
X36474091Y-56021880D01*
X39605909Y-56021880D01*
X39762235Y-56240141D01*
X40065911Y-56383135D01*
X40391650Y-56464139D01*
X40726932Y-56480037D01*
X41058873Y-56430220D01*
X41374717Y-56316602D01*
X41517765Y-56240141D01*
X41674091Y-56021880D01*
X40640000Y-54987789D01*
X39605909Y-56021880D01*
X36474091Y-56021880D01*
X35440000Y-54987789D01*
X34405909Y-56021880D01*
X27126815Y-56021880D01*
X28307510Y-54856932D01*
X33729963Y-54856932D01*
X33779780Y-55188873D01*
X33893398Y-55504717D01*
X33969859Y-55647765D01*
X34188120Y-55804091D01*
X35222211Y-54770000D01*
X35657789Y-54770000D01*
X36691880Y-55804091D01*
X36910141Y-55647765D01*
X37053135Y-55344089D01*
X37134139Y-55018350D01*
X37141792Y-54856932D01*
X38929963Y-54856932D01*
X38979780Y-55188873D01*
X39093398Y-55504717D01*
X39169859Y-55647765D01*
X39388120Y-55804091D01*
X40422211Y-54770000D01*
X40857789Y-54770000D01*
X41891880Y-55804091D01*
X42110141Y-55647765D01*
X42253135Y-55344089D01*
X42334139Y-55018350D01*
X42350037Y-54683068D01*
X42300220Y-54351127D01*
X42186602Y-54035283D01*
X42110141Y-53892235D01*
X41891880Y-53735909D01*
X40857789Y-54770000D01*
X40422211Y-54770000D01*
X39388120Y-53735909D01*
X39169859Y-53892235D01*
X39026865Y-54195911D01*
X38945861Y-54521650D01*
X38929963Y-54856932D01*
X37141792Y-54856932D01*
X37150037Y-54683068D01*
X37100220Y-54351127D01*
X36986602Y-54035283D01*
X36910141Y-53892235D01*
X36691880Y-53735909D01*
X35657789Y-54770000D01*
X35222211Y-54770000D01*
X34188120Y-53735909D01*
X33969859Y-53892235D01*
X33826865Y-54195911D01*
X33745861Y-54521650D01*
X33729963Y-54856932D01*
X28307510Y-54856932D01*
X29664418Y-53518120D01*
X34405909Y-53518120D01*
X35440000Y-54552211D01*
X36474091Y-53518120D01*
X39605909Y-53518120D01*
X40640000Y-54552211D01*
X41674091Y-53518120D01*
X41517765Y-53299859D01*
X41214089Y-53156865D01*
X40888350Y-53075861D01*
X40553068Y-53059963D01*
X40221127Y-53109780D01*
X39905283Y-53223398D01*
X39762235Y-53299859D01*
X39605909Y-53518120D01*
X36474091Y-53518120D01*
X36317765Y-53299859D01*
X36014089Y-53156865D01*
X35688350Y-53075861D01*
X35353068Y-53059963D01*
X35021127Y-53109780D01*
X34705283Y-53223398D01*
X34562235Y-53299859D01*
X34405909Y-53518120D01*
X29664418Y-53518120D01*
X31030760Y-52170000D01*
X43082494Y-52170000D01*
X43077507Y-57050000D01*
X43077507Y-57050000D01*
G37*
X43077507Y-57050000D02*
X33267079Y-57050000D01*
X33247570Y-57051921D01*
X33228811Y-57057612D01*
X33211522Y-57066853D01*
X33196368Y-57079289D01*
X33183932Y-57094443D01*
X33174691Y-57111732D01*
X33169000Y-57130491D01*
X33167079Y-57150066D01*
X33172136Y-64760456D01*
X30673626Y-67258967D01*
X12818375Y-67258967D01*
X12292000Y-66732592D01*
X12292000Y-65293755D01*
X13536034Y-65293755D01*
X13650016Y-65476154D01*
X13893907Y-65584108D01*
X14154171Y-65642408D01*
X14420809Y-65648812D01*
X14683574Y-65603074D01*
X14932366Y-65506952D01*
X14989984Y-65476154D01*
X15103966Y-65293755D01*
X15088966Y-65278755D01*
X19536034Y-65278755D01*
X19650016Y-65461154D01*
X19893907Y-65569108D01*
X20154171Y-65627408D01*
X20420809Y-65633812D01*
X20683574Y-65588074D01*
X20932366Y-65491952D01*
X20989984Y-65461154D01*
X21103966Y-65278755D01*
X20320000Y-64494789D01*
X19536034Y-65278755D01*
X15088966Y-65278755D01*
X14320000Y-64509789D01*
X13536034Y-65293755D01*
X12292000Y-65293755D01*
X12292000Y-64392809D01*
X12963188Y-64392809D01*
X13008926Y-64655574D01*
X13105048Y-64904366D01*
X13135846Y-64961984D01*
X13318245Y-65075966D01*
X14102211Y-64292000D01*
X14537789Y-64292000D01*
X15321755Y-65075966D01*
X15504154Y-64961984D01*
X15612108Y-64718093D01*
X15670408Y-64457829D01*
X15672329Y-64377809D01*
X18963188Y-64377809D01*
X19008926Y-64640574D01*
X19105048Y-64889366D01*
X19135846Y-64946984D01*
X19318245Y-65060966D01*
X20102211Y-64277000D01*
X20537789Y-64277000D01*
X21321755Y-65060966D01*
X21504154Y-64946984D01*
X21612108Y-64703093D01*
X21670408Y-64442829D01*
X21676812Y-64176191D01*
X21631074Y-63913426D01*
X21534952Y-63664634D01*
X21504154Y-63607016D01*
X21321755Y-63493034D01*
X20537789Y-64277000D01*
X20102211Y-64277000D01*
X19318245Y-63493034D01*
X19135846Y-63607016D01*
X19027892Y-63850907D01*
X18969592Y-64111171D01*
X18963188Y-64377809D01*
X15672329Y-64377809D01*
X15676812Y-64191191D01*
X15631074Y-63928426D01*
X15534952Y-63679634D01*
X15504154Y-63622016D01*
X15321755Y-63508034D01*
X14537789Y-64292000D01*
X14102211Y-64292000D01*
X13318245Y-63508034D01*
X13135846Y-63622016D01*
X13027892Y-63865907D01*
X12969592Y-64126171D01*
X12963188Y-64392809D01*
X12292000Y-64392809D01*
X12292000Y-63290245D01*
X13536034Y-63290245D01*
X14320000Y-64074211D01*
X15103966Y-63290245D01*
X15094593Y-63275245D01*
X19536034Y-63275245D01*
X20320000Y-64059211D01*
X21103966Y-63275245D01*
X20989984Y-63092846D01*
X20746093Y-62984892D01*
X20485829Y-62926592D01*
X20219191Y-62920188D01*
X19956426Y-62965926D01*
X19707634Y-63062048D01*
X19650016Y-63092846D01*
X19536034Y-63275245D01*
X15094593Y-63275245D01*
X14989984Y-63107846D01*
X14746093Y-62999892D01*
X14485829Y-62941592D01*
X14219191Y-62935188D01*
X13956426Y-62980926D01*
X13707634Y-63077048D01*
X13650016Y-63107846D01*
X13536034Y-63290245D01*
X12292000Y-63290245D01*
X12292000Y-61822000D01*
X21207270Y-61822000D01*
X21226779Y-61820079D01*
X21245538Y-61814388D01*
X21262827Y-61805147D01*
X21277504Y-61793184D01*
X27126815Y-56021880D01*
X34405909Y-56021880D01*
X34562235Y-56240141D01*
X34865911Y-56383135D01*
X35191650Y-56464139D01*
X35526932Y-56480037D01*
X35858873Y-56430220D01*
X36174717Y-56316602D01*
X36317765Y-56240141D01*
X36474091Y-56021880D01*
X39605909Y-56021880D01*
X39762235Y-56240141D01*
X40065911Y-56383135D01*
X40391650Y-56464139D01*
X40726932Y-56480037D01*
X41058873Y-56430220D01*
X41374717Y-56316602D01*
X41517765Y-56240141D01*
X41674091Y-56021880D01*
X40640000Y-54987789D01*
X39605909Y-56021880D01*
X36474091Y-56021880D01*
X35440000Y-54987789D01*
X34405909Y-56021880D01*
X27126815Y-56021880D01*
X28307510Y-54856932D01*
X33729963Y-54856932D01*
X33779780Y-55188873D01*
X33893398Y-55504717D01*
X33969859Y-55647765D01*
X34188120Y-55804091D01*
X35222211Y-54770000D01*
X35657789Y-54770000D01*
X36691880Y-55804091D01*
X36910141Y-55647765D01*
X37053135Y-55344089D01*
X37134139Y-55018350D01*
X37141792Y-54856932D01*
X38929963Y-54856932D01*
X38979780Y-55188873D01*
X39093398Y-55504717D01*
X39169859Y-55647765D01*
X39388120Y-55804091D01*
X40422211Y-54770000D01*
X40857789Y-54770000D01*
X41891880Y-55804091D01*
X42110141Y-55647765D01*
X42253135Y-55344089D01*
X42334139Y-55018350D01*
X42350037Y-54683068D01*
X42300220Y-54351127D01*
X42186602Y-54035283D01*
X42110141Y-53892235D01*
X41891880Y-53735909D01*
X40857789Y-54770000D01*
X40422211Y-54770000D01*
X39388120Y-53735909D01*
X39169859Y-53892235D01*
X39026865Y-54195911D01*
X38945861Y-54521650D01*
X38929963Y-54856932D01*
X37141792Y-54856932D01*
X37150037Y-54683068D01*
X37100220Y-54351127D01*
X36986602Y-54035283D01*
X36910141Y-53892235D01*
X36691880Y-53735909D01*
X35657789Y-54770000D01*
X35222211Y-54770000D01*
X34188120Y-53735909D01*
X33969859Y-53892235D01*
X33826865Y-54195911D01*
X33745861Y-54521650D01*
X33729963Y-54856932D01*
X28307510Y-54856932D01*
X29664418Y-53518120D01*
X34405909Y-53518120D01*
X35440000Y-54552211D01*
X36474091Y-53518120D01*
X39605909Y-53518120D01*
X40640000Y-54552211D01*
X41674091Y-53518120D01*
X41517765Y-53299859D01*
X41214089Y-53156865D01*
X40888350Y-53075861D01*
X40553068Y-53059963D01*
X40221127Y-53109780D01*
X39905283Y-53223398D01*
X39762235Y-53299859D01*
X39605909Y-53518120D01*
X36474091Y-53518120D01*
X36317765Y-53299859D01*
X36014089Y-53156865D01*
X35688350Y-53075861D01*
X35353068Y-53059963D01*
X35021127Y-53109780D01*
X34705283Y-53223398D01*
X34562235Y-53299859D01*
X34405909Y-53518120D01*
X29664418Y-53518120D01*
X31030760Y-52170000D01*
X43082494Y-52170000D01*
X43077507Y-57050000D01*
M02*
