G04 #@! TF.GenerationSoftware,KiCad,Pcbnew,5.1.2*
G04 #@! TF.CreationDate,2019-07-06T13:44:52+02:00*
G04 #@! TF.ProjectId,junction,6a756e63-7469-46f6-9e2e-6b696361645f,rev?*
G04 #@! TF.SameCoordinates,Original*
G04 #@! TF.FileFunction,Legend,Top*
G04 #@! TF.FilePolarity,Positive*
%FSLAX46Y46*%
G04 Gerber Fmt 4.6, Leading zero omitted, Abs format (unit mm)*
G04 Created by KiCad (PCBNEW 5.1.2) date 2019-07-06 13:44:52*
%MOMM*%
%LPD*%
G04 APERTURE LIST*
%ADD10C,0.120000*%
%ADD11C,0.150000*%
G04 APERTURE END LIST*
D10*
X23622000Y-32004000D02*
X28702000Y-32004000D01*
X23622000Y-40640000D02*
X23622000Y-29464000D01*
X28702000Y-40640000D02*
X23622000Y-40640000D01*
X28702000Y-29464000D02*
X28702000Y-40640000D01*
X23622000Y-29464000D02*
X28702000Y-29464000D01*
D11*
X24133428Y-31638761D02*
X24133428Y-29638761D01*
X24419142Y-29638761D01*
X24590571Y-29734000D01*
X24704857Y-29924476D01*
X24761999Y-30114952D01*
X24819142Y-30495904D01*
X24819142Y-30781619D01*
X24761999Y-31162571D01*
X24704857Y-31353047D01*
X24590571Y-31543523D01*
X24419142Y-31638761D01*
X24133428Y-31638761D01*
X25847714Y-31638761D02*
X25847714Y-30591142D01*
X25790571Y-30400666D01*
X25676285Y-30305428D01*
X25447714Y-30305428D01*
X25333428Y-30400666D01*
X25847714Y-31543523D02*
X25733428Y-31638761D01*
X25447714Y-31638761D01*
X25333428Y-31543523D01*
X25276285Y-31353047D01*
X25276285Y-31162571D01*
X25333428Y-30972095D01*
X25447714Y-30876857D01*
X25733428Y-30876857D01*
X25847714Y-30781619D01*
X26247714Y-30305428D02*
X26704857Y-30305428D01*
X26419142Y-29638761D02*
X26419142Y-31353047D01*
X26476285Y-31543523D01*
X26590571Y-31638761D01*
X26704857Y-31638761D01*
X27619142Y-31638761D02*
X27619142Y-30591142D01*
X27561999Y-30400666D01*
X27447714Y-30305428D01*
X27219142Y-30305428D01*
X27104857Y-30400666D01*
X27619142Y-31543523D02*
X27504857Y-31638761D01*
X27219142Y-31638761D01*
X27104857Y-31543523D01*
X27047714Y-31353047D01*
X27047714Y-31162571D01*
X27104857Y-30972095D01*
X27219142Y-30876857D01*
X27504857Y-30876857D01*
X27619142Y-30781619D01*
X28190571Y-31448285D02*
X28247714Y-31543523D01*
X28190571Y-31638761D01*
X28133428Y-31543523D01*
X28190571Y-31448285D01*
X28190571Y-31638761D01*
X28190571Y-30400666D02*
X28247714Y-30495904D01*
X28190571Y-30591142D01*
X28133428Y-30495904D01*
X28190571Y-30400666D01*
X28190571Y-30591142D01*
D10*
X27686000Y-27432000D02*
X27686000Y-24130000D01*
D11*
X34866000Y-26558761D02*
X34866000Y-24558761D01*
X35223142Y-24558761D01*
X35437428Y-24654000D01*
X35580285Y-24844476D01*
X35651714Y-25034952D01*
X35723142Y-25415904D01*
X35723142Y-25701619D01*
X35651714Y-26082571D01*
X35580285Y-26273047D01*
X35437428Y-26463523D01*
X35223142Y-26558761D01*
X34866000Y-26558761D01*
X36580285Y-26558761D02*
X36437428Y-26463523D01*
X36366000Y-26368285D01*
X36294571Y-26177809D01*
X36294571Y-25606380D01*
X36366000Y-25415904D01*
X36437428Y-25320666D01*
X36580285Y-25225428D01*
X36794571Y-25225428D01*
X36937428Y-25320666D01*
X37008857Y-25415904D01*
X37080285Y-25606380D01*
X37080285Y-26177809D01*
X37008857Y-26368285D01*
X36937428Y-26463523D01*
X36794571Y-26558761D01*
X36580285Y-26558761D01*
X37580285Y-25225428D02*
X37866000Y-26558761D01*
X38151714Y-25606380D01*
X38437428Y-26558761D01*
X38723142Y-25225428D01*
X39294571Y-25225428D02*
X39294571Y-26558761D01*
X39294571Y-25415904D02*
X39366000Y-25320666D01*
X39508857Y-25225428D01*
X39723142Y-25225428D01*
X39866000Y-25320666D01*
X39937428Y-25511142D01*
X39937428Y-26558761D01*
X40651714Y-26368285D02*
X40723142Y-26463523D01*
X40651714Y-26558761D01*
X40580285Y-26463523D01*
X40651714Y-26368285D01*
X40651714Y-26558761D01*
X40651714Y-25320666D02*
X40723142Y-25415904D01*
X40651714Y-25511142D01*
X40580285Y-25415904D01*
X40651714Y-25320666D01*
X40651714Y-25511142D01*
X41580285Y-26558761D02*
X41437428Y-26463523D01*
X41366000Y-26368285D01*
X41294571Y-26177809D01*
X41294571Y-25606380D01*
X41366000Y-25415904D01*
X41437428Y-25320666D01*
X41580285Y-25225428D01*
X41794571Y-25225428D01*
X41937428Y-25320666D01*
X42008857Y-25415904D01*
X42080285Y-25606380D01*
X42080285Y-26177809D01*
X42008857Y-26368285D01*
X41937428Y-26463523D01*
X41794571Y-26558761D01*
X41580285Y-26558761D01*
X42723142Y-25225428D02*
X42723142Y-26558761D01*
X42723142Y-25415904D02*
X42794571Y-25320666D01*
X42937428Y-25225428D01*
X43151714Y-25225428D01*
X43294571Y-25320666D01*
X43366000Y-25511142D01*
X43366000Y-26558761D01*
D10*
X26416000Y-27432000D02*
X26416000Y-24384000D01*
X25400000Y-25400000D02*
X26416000Y-24384000D01*
X27432000Y-25400000D02*
X26416000Y-24384000D01*
X27686000Y-24130000D02*
X43688000Y-24130000D01*
X34544000Y-24130000D02*
X34544000Y-27432000D01*
X43688000Y-27432000D02*
X27686000Y-27432000D01*
D11*
X27988000Y-24558761D02*
X27988000Y-26177809D01*
X28059428Y-26368285D01*
X28130857Y-26463523D01*
X28273714Y-26558761D01*
X28559428Y-26558761D01*
X28702285Y-26463523D01*
X28773714Y-26368285D01*
X28845142Y-26177809D01*
X28845142Y-24558761D01*
X29559428Y-25225428D02*
X29559428Y-27225428D01*
X29559428Y-25320666D02*
X29702285Y-25225428D01*
X29988000Y-25225428D01*
X30130857Y-25320666D01*
X30202285Y-25415904D01*
X30273714Y-25606380D01*
X30273714Y-26177809D01*
X30202285Y-26368285D01*
X30130857Y-26463523D01*
X29988000Y-26558761D01*
X29702285Y-26558761D01*
X29559428Y-26463523D01*
X30916571Y-26368285D02*
X30988000Y-26463523D01*
X30916571Y-26558761D01*
X30845142Y-26463523D01*
X30916571Y-26368285D01*
X30916571Y-26558761D01*
X30916571Y-25320666D02*
X30988000Y-25415904D01*
X30916571Y-25511142D01*
X30845142Y-25415904D01*
X30916571Y-25320666D01*
X30916571Y-25511142D01*
X31845142Y-26558761D02*
X31702285Y-26463523D01*
X31630857Y-26368285D01*
X31559428Y-26177809D01*
X31559428Y-25606380D01*
X31630857Y-25415904D01*
X31702285Y-25320666D01*
X31845142Y-25225428D01*
X32059428Y-25225428D01*
X32202285Y-25320666D01*
X32273714Y-25415904D01*
X32345142Y-25606380D01*
X32345142Y-26177809D01*
X32273714Y-26368285D01*
X32202285Y-26463523D01*
X32059428Y-26558761D01*
X31845142Y-26558761D01*
X32773714Y-25225428D02*
X33345142Y-25225428D01*
X32988000Y-26558761D02*
X32988000Y-24844476D01*
X33059428Y-24654000D01*
X33202285Y-24558761D01*
X33345142Y-24558761D01*
X33630857Y-25225428D02*
X34202285Y-25225428D01*
X33845142Y-26558761D02*
X33845142Y-24844476D01*
X33916571Y-24654000D01*
X34059428Y-24558761D01*
X34202285Y-24558761D01*
D10*
X43688000Y-24130000D02*
X43688000Y-27432000D01*
X34798000Y-42418000D02*
X34798000Y-45720000D01*
X27940000Y-45720000D02*
X27940000Y-42418000D01*
X43942000Y-45720000D02*
X27940000Y-45720000D01*
X43942000Y-42418000D02*
X43942000Y-45720000D01*
X27940000Y-42418000D02*
X43942000Y-42418000D01*
D11*
X35120000Y-44846761D02*
X35120000Y-42846761D01*
X35477142Y-42846761D01*
X35691428Y-42942000D01*
X35834285Y-43132476D01*
X35905714Y-43322952D01*
X35977142Y-43703904D01*
X35977142Y-43989619D01*
X35905714Y-44370571D01*
X35834285Y-44561047D01*
X35691428Y-44751523D01*
X35477142Y-44846761D01*
X35120000Y-44846761D01*
X36834285Y-44846761D02*
X36691428Y-44751523D01*
X36620000Y-44656285D01*
X36548571Y-44465809D01*
X36548571Y-43894380D01*
X36620000Y-43703904D01*
X36691428Y-43608666D01*
X36834285Y-43513428D01*
X37048571Y-43513428D01*
X37191428Y-43608666D01*
X37262857Y-43703904D01*
X37334285Y-43894380D01*
X37334285Y-44465809D01*
X37262857Y-44656285D01*
X37191428Y-44751523D01*
X37048571Y-44846761D01*
X36834285Y-44846761D01*
X37834285Y-43513428D02*
X38120000Y-44846761D01*
X38405714Y-43894380D01*
X38691428Y-44846761D01*
X38977142Y-43513428D01*
X39548571Y-43513428D02*
X39548571Y-44846761D01*
X39548571Y-43703904D02*
X39620000Y-43608666D01*
X39762857Y-43513428D01*
X39977142Y-43513428D01*
X40120000Y-43608666D01*
X40191428Y-43799142D01*
X40191428Y-44846761D01*
X40905714Y-44656285D02*
X40977142Y-44751523D01*
X40905714Y-44846761D01*
X40834285Y-44751523D01*
X40905714Y-44656285D01*
X40905714Y-44846761D01*
X40905714Y-43608666D02*
X40977142Y-43703904D01*
X40905714Y-43799142D01*
X40834285Y-43703904D01*
X40905714Y-43608666D01*
X40905714Y-43799142D01*
X41834285Y-44846761D02*
X41691428Y-44751523D01*
X41620000Y-44656285D01*
X41548571Y-44465809D01*
X41548571Y-43894380D01*
X41620000Y-43703904D01*
X41691428Y-43608666D01*
X41834285Y-43513428D01*
X42048571Y-43513428D01*
X42191428Y-43608666D01*
X42262857Y-43703904D01*
X42334285Y-43894380D01*
X42334285Y-44465809D01*
X42262857Y-44656285D01*
X42191428Y-44751523D01*
X42048571Y-44846761D01*
X41834285Y-44846761D01*
X42977142Y-43513428D02*
X42977142Y-44846761D01*
X42977142Y-43703904D02*
X43048571Y-43608666D01*
X43191428Y-43513428D01*
X43405714Y-43513428D01*
X43548571Y-43608666D01*
X43620000Y-43799142D01*
X43620000Y-44846761D01*
D10*
X26670000Y-45720000D02*
X27686000Y-44704000D01*
X26670000Y-45720000D02*
X26670000Y-42672000D01*
X26670000Y-45720000D02*
X25654000Y-44704000D01*
D11*
X28242000Y-42846761D02*
X28242000Y-44465809D01*
X28313428Y-44656285D01*
X28384857Y-44751523D01*
X28527714Y-44846761D01*
X28813428Y-44846761D01*
X28956285Y-44751523D01*
X29027714Y-44656285D01*
X29099142Y-44465809D01*
X29099142Y-42846761D01*
X29813428Y-43513428D02*
X29813428Y-45513428D01*
X29813428Y-43608666D02*
X29956285Y-43513428D01*
X30242000Y-43513428D01*
X30384857Y-43608666D01*
X30456285Y-43703904D01*
X30527714Y-43894380D01*
X30527714Y-44465809D01*
X30456285Y-44656285D01*
X30384857Y-44751523D01*
X30242000Y-44846761D01*
X29956285Y-44846761D01*
X29813428Y-44751523D01*
X31170571Y-44656285D02*
X31242000Y-44751523D01*
X31170571Y-44846761D01*
X31099142Y-44751523D01*
X31170571Y-44656285D01*
X31170571Y-44846761D01*
X31170571Y-43608666D02*
X31242000Y-43703904D01*
X31170571Y-43799142D01*
X31099142Y-43703904D01*
X31170571Y-43608666D01*
X31170571Y-43799142D01*
X32099142Y-44846761D02*
X31956285Y-44751523D01*
X31884857Y-44656285D01*
X31813428Y-44465809D01*
X31813428Y-43894380D01*
X31884857Y-43703904D01*
X31956285Y-43608666D01*
X32099142Y-43513428D01*
X32313428Y-43513428D01*
X32456285Y-43608666D01*
X32527714Y-43703904D01*
X32599142Y-43894380D01*
X32599142Y-44465809D01*
X32527714Y-44656285D01*
X32456285Y-44751523D01*
X32313428Y-44846761D01*
X32099142Y-44846761D01*
X33027714Y-43513428D02*
X33599142Y-43513428D01*
X33242000Y-44846761D02*
X33242000Y-43132476D01*
X33313428Y-42942000D01*
X33456285Y-42846761D01*
X33599142Y-42846761D01*
X33884857Y-43513428D02*
X34456285Y-43513428D01*
X34099142Y-44846761D02*
X34099142Y-43132476D01*
X34170571Y-42942000D01*
X34313428Y-42846761D01*
X34456285Y-42846761D01*
D10*
X26924000Y-40386000D02*
X26924000Y-38100000D01*
X26924000Y-40386000D02*
X27686000Y-39624000D01*
X26924000Y-40386000D02*
X26162000Y-39624000D01*
X25654000Y-36322000D02*
X26416000Y-37084000D01*
X25654000Y-36322000D02*
X27940000Y-36322000D01*
X25654000Y-36322000D02*
X26416000Y-35560000D01*
X26924000Y-32258000D02*
X26924000Y-34544000D01*
X26924000Y-32258000D02*
X26162000Y-33020000D01*
X26924000Y-32258000D02*
X27686000Y-33020000D01*
D11*
X23971333Y-38020761D02*
X25209428Y-38020761D01*
X24542761Y-38782666D01*
X24828476Y-38782666D01*
X25018952Y-38877904D01*
X25114190Y-38973142D01*
X25209428Y-39163619D01*
X25209428Y-39639809D01*
X25114190Y-39830285D01*
X25018952Y-39925523D01*
X24828476Y-40020761D01*
X24257047Y-40020761D01*
X24066571Y-39925523D01*
X23971333Y-39830285D01*
X24066571Y-35417238D02*
X24161809Y-35322000D01*
X24352285Y-35226761D01*
X24828476Y-35226761D01*
X25018952Y-35322000D01*
X25114190Y-35417238D01*
X25209428Y-35607714D01*
X25209428Y-35798190D01*
X25114190Y-36083904D01*
X23971333Y-37226761D01*
X25209428Y-37226761D01*
X25209428Y-34432761D02*
X24066571Y-34432761D01*
X24638000Y-34432761D02*
X24638000Y-32432761D01*
X24447523Y-32718476D01*
X24257047Y-32908952D01*
X24066571Y-33004190D01*
D10*
X32740000Y-52270000D02*
X43340000Y-52270000D01*
X32740000Y-57270000D02*
X43340000Y-57270000D01*
X32740000Y-62270000D02*
X43340000Y-62270000D01*
X32385000Y-50405000D02*
X27305000Y-50405000D01*
X27305000Y-50405000D02*
X27305000Y-49135000D01*
X32385000Y-49135000D02*
X32385000Y-50405000D01*
X31750000Y-50405000D02*
X31750000Y-49135000D01*
X28575000Y-50405000D02*
X28575000Y-49135000D01*
X27305000Y-49135000D02*
X32385000Y-49135000D01*
X27305000Y-54135000D02*
X32385000Y-54135000D01*
X27305000Y-55405000D02*
X27305000Y-54135000D01*
X32385000Y-55405000D02*
X27305000Y-55405000D01*
X28575000Y-55405000D02*
X28575000Y-54135000D01*
X31750000Y-55405000D02*
X31750000Y-54135000D01*
X32385000Y-54135000D02*
X32385000Y-55405000D01*
X32385000Y-59135000D02*
X32385000Y-60405000D01*
X31750000Y-60405000D02*
X31750000Y-59135000D01*
X28575000Y-60405000D02*
X28575000Y-59135000D01*
X27305000Y-59135000D02*
X32385000Y-59135000D01*
X27305000Y-60405000D02*
X27305000Y-59135000D01*
X32385000Y-60405000D02*
X27305000Y-60405000D01*
X31750000Y-65405000D02*
X31750000Y-64135000D01*
X28575000Y-65405000D02*
X28575000Y-64135000D01*
X32385000Y-64135000D02*
X32385000Y-65405000D01*
X27305000Y-64135000D02*
X32385000Y-64135000D01*
X27305000Y-65405000D02*
X27305000Y-64135000D01*
X32385000Y-65405000D02*
X27305000Y-65405000D01*
X32740000Y-67270000D02*
X32740000Y-47270000D01*
X43340000Y-67270000D02*
X26740000Y-67270000D01*
X26740000Y-47270000D02*
X43340000Y-47270000D01*
X26740000Y-67270000D02*
X26740000Y-47270000D01*
X43340000Y-67270000D02*
X43340000Y-47270000D01*
X22820000Y-26510000D02*
X2820000Y-26510000D01*
X22820000Y-43110000D02*
X2820000Y-43110000D01*
X2820000Y-43110000D02*
X2820000Y-26510000D01*
X22820000Y-26510000D02*
X22820000Y-43110000D01*
X22820000Y-37110000D02*
X2820000Y-37110000D01*
X20955000Y-37465000D02*
X20955000Y-42545000D01*
X20955000Y-42545000D02*
X19685000Y-42545000D01*
X19685000Y-42545000D02*
X19685000Y-37465000D01*
X19685000Y-37465000D02*
X20955000Y-37465000D01*
X20955000Y-41275000D02*
X19685000Y-41275000D01*
X20955000Y-38100000D02*
X19685000Y-38100000D01*
X15955000Y-37465000D02*
X15955000Y-42545000D01*
X15955000Y-42545000D02*
X14685000Y-42545000D01*
X14685000Y-42545000D02*
X14685000Y-37465000D01*
X15955000Y-41275000D02*
X14685000Y-41275000D01*
X15955000Y-38100000D02*
X14685000Y-38100000D01*
X14685000Y-37465000D02*
X15955000Y-37465000D01*
X9685000Y-37465000D02*
X10955000Y-37465000D01*
X10955000Y-38100000D02*
X9685000Y-38100000D01*
X10955000Y-41275000D02*
X9685000Y-41275000D01*
X10955000Y-37465000D02*
X10955000Y-42545000D01*
X10955000Y-42545000D02*
X9685000Y-42545000D01*
X9685000Y-42545000D02*
X9685000Y-37465000D01*
X4685000Y-42545000D02*
X4685000Y-37465000D01*
X5955000Y-41275000D02*
X4685000Y-41275000D01*
X5955000Y-38100000D02*
X4685000Y-38100000D01*
X4685000Y-37465000D02*
X5955000Y-37465000D01*
X5955000Y-42545000D02*
X4685000Y-42545000D01*
X5955000Y-37465000D02*
X5955000Y-42545000D01*
X17820000Y-37110000D02*
X17820000Y-26510000D01*
X12820000Y-37110000D02*
X12820000Y-26510000D01*
X7820000Y-37110000D02*
X7820000Y-26510000D01*
X37110000Y-17580000D02*
X26510000Y-17580000D01*
X37110000Y-12580000D02*
X26510000Y-12580000D01*
X37110000Y-7580000D02*
X26510000Y-7580000D01*
X37465000Y-19445000D02*
X42545000Y-19445000D01*
X42545000Y-19445000D02*
X42545000Y-20715000D01*
X37465000Y-20715000D02*
X37465000Y-19445000D01*
X38100000Y-19445000D02*
X38100000Y-20715000D01*
X41275000Y-19445000D02*
X41275000Y-20715000D01*
X42545000Y-20715000D02*
X37465000Y-20715000D01*
X42545000Y-15715000D02*
X37465000Y-15715000D01*
X42545000Y-14445000D02*
X42545000Y-15715000D01*
X37465000Y-14445000D02*
X42545000Y-14445000D01*
X41275000Y-14445000D02*
X41275000Y-15715000D01*
X38100000Y-14445000D02*
X38100000Y-15715000D01*
X37465000Y-15715000D02*
X37465000Y-14445000D01*
X37465000Y-10715000D02*
X37465000Y-9445000D01*
X38100000Y-9445000D02*
X38100000Y-10715000D01*
X41275000Y-9445000D02*
X41275000Y-10715000D01*
X42545000Y-10715000D02*
X37465000Y-10715000D01*
X42545000Y-9445000D02*
X42545000Y-10715000D01*
X37465000Y-9445000D02*
X42545000Y-9445000D01*
X38100000Y-4445000D02*
X38100000Y-5715000D01*
X41275000Y-4445000D02*
X41275000Y-5715000D01*
X37465000Y-5715000D02*
X37465000Y-4445000D01*
X42545000Y-5715000D02*
X37465000Y-5715000D01*
X42545000Y-4445000D02*
X42545000Y-5715000D01*
X37465000Y-4445000D02*
X42545000Y-4445000D01*
X37110000Y-2580000D02*
X37110000Y-22580000D01*
X26510000Y-2580000D02*
X43110000Y-2580000D01*
X43110000Y-22580000D02*
X26510000Y-22580000D01*
X43110000Y-2580000D02*
X43110000Y-22580000D01*
X26510000Y-2580000D02*
X26510000Y-22580000D01*
X47030000Y-43340000D02*
X67030000Y-43340000D01*
X47030000Y-26740000D02*
X67030000Y-26740000D01*
X67030000Y-26740000D02*
X67030000Y-43340000D01*
X47030000Y-43340000D02*
X47030000Y-26740000D01*
X47030000Y-32740000D02*
X67030000Y-32740000D01*
X48895000Y-32385000D02*
X48895000Y-27305000D01*
X48895000Y-27305000D02*
X50165000Y-27305000D01*
X50165000Y-27305000D02*
X50165000Y-32385000D01*
X50165000Y-32385000D02*
X48895000Y-32385000D01*
X48895000Y-28575000D02*
X50165000Y-28575000D01*
X48895000Y-31750000D02*
X50165000Y-31750000D01*
X53895000Y-32385000D02*
X53895000Y-27305000D01*
X53895000Y-27305000D02*
X55165000Y-27305000D01*
X55165000Y-27305000D02*
X55165000Y-32385000D01*
X53895000Y-28575000D02*
X55165000Y-28575000D01*
X53895000Y-31750000D02*
X55165000Y-31750000D01*
X55165000Y-32385000D02*
X53895000Y-32385000D01*
X60165000Y-32385000D02*
X58895000Y-32385000D01*
X58895000Y-31750000D02*
X60165000Y-31750000D01*
X58895000Y-28575000D02*
X60165000Y-28575000D01*
X58895000Y-32385000D02*
X58895000Y-27305000D01*
X58895000Y-27305000D02*
X60165000Y-27305000D01*
X60165000Y-27305000D02*
X60165000Y-32385000D01*
X65165000Y-27305000D02*
X65165000Y-32385000D01*
X63895000Y-28575000D02*
X65165000Y-28575000D01*
X63895000Y-31750000D02*
X65165000Y-31750000D01*
X65165000Y-32385000D02*
X63895000Y-32385000D01*
X63895000Y-27305000D02*
X65165000Y-27305000D01*
X63895000Y-32385000D02*
X63895000Y-27305000D01*
X52030000Y-32740000D02*
X52030000Y-43340000D01*
X57030000Y-32740000D02*
X57030000Y-43340000D01*
X62030000Y-32740000D02*
X62030000Y-43340000D01*
X8130000Y-45637267D02*
X8130000Y-45294733D01*
X7110000Y-45637267D02*
X7110000Y-45294733D01*
X3304000Y-45637267D02*
X3304000Y-45294733D01*
X2284000Y-45637267D02*
X2284000Y-45294733D01*
X59880000Y-1850000D02*
X59880000Y-24850000D01*
X45880000Y-1850000D02*
X45880000Y-24850000D01*
X59880000Y-1850000D02*
X45880000Y-1850000D01*
X59880000Y-24850000D02*
X45880000Y-24850000D01*
X24320000Y-44522000D02*
X24320000Y-67522000D01*
X10320000Y-44522000D02*
X10320000Y-67522000D01*
X24320000Y-44522000D02*
X10320000Y-44522000D01*
X24320000Y-67522000D02*
X10320000Y-67522000D01*
X8128000Y-58928000D02*
X8128000Y-48388000D01*
X2288000Y-58928000D02*
X2288000Y-48388000D01*
X2288000Y-58928000D02*
X8128000Y-58928000D01*
X8128000Y-48388000D02*
X2288000Y-48388000D01*
X4826000Y-55626000D02*
X5588000Y-55626000D01*
X5588000Y-55626000D02*
X5588000Y-51816000D01*
X5588000Y-51816000D02*
X4826000Y-51816000D01*
X4826000Y-51816000D02*
X4826000Y-55626000D01*
X4826000Y-53086000D02*
X5588000Y-53086000D01*
D11*
X63436666Y-61022380D02*
X63103333Y-60546190D01*
X62865238Y-61022380D02*
X62865238Y-60022380D01*
X63246190Y-60022380D01*
X63341428Y-60070000D01*
X63389047Y-60117619D01*
X63436666Y-60212857D01*
X63436666Y-60355714D01*
X63389047Y-60450952D01*
X63341428Y-60498571D01*
X63246190Y-60546190D01*
X62865238Y-60546190D01*
X63865238Y-60498571D02*
X64198571Y-60498571D01*
X64341428Y-61022380D02*
X63865238Y-61022380D01*
X63865238Y-60022380D01*
X64341428Y-60022380D01*
X65103333Y-60498571D02*
X64770000Y-60498571D01*
X64770000Y-61022380D02*
X64770000Y-60022380D01*
X65246190Y-60022380D01*
X65770000Y-60022380D02*
X65770000Y-60260476D01*
X65531904Y-60165238D02*
X65770000Y-60260476D01*
X66008095Y-60165238D01*
X65627142Y-60450952D02*
X65770000Y-60260476D01*
X65912857Y-60450952D01*
X66531904Y-60022380D02*
X66531904Y-60260476D01*
X66293809Y-60165238D02*
X66531904Y-60260476D01*
X66770000Y-60165238D01*
X66389047Y-60450952D02*
X66531904Y-60260476D01*
X66674761Y-60450952D01*
X3746666Y-61022380D02*
X3413333Y-60546190D01*
X3175238Y-61022380D02*
X3175238Y-60022380D01*
X3556190Y-60022380D01*
X3651428Y-60070000D01*
X3699047Y-60117619D01*
X3746666Y-60212857D01*
X3746666Y-60355714D01*
X3699047Y-60450952D01*
X3651428Y-60498571D01*
X3556190Y-60546190D01*
X3175238Y-60546190D01*
X4175238Y-60498571D02*
X4508571Y-60498571D01*
X4651428Y-61022380D02*
X4175238Y-61022380D01*
X4175238Y-60022380D01*
X4651428Y-60022380D01*
X5413333Y-60498571D02*
X5080000Y-60498571D01*
X5080000Y-61022380D02*
X5080000Y-60022380D01*
X5556190Y-60022380D01*
X6080000Y-60022380D02*
X6080000Y-60260476D01*
X5841904Y-60165238D02*
X6080000Y-60260476D01*
X6318095Y-60165238D01*
X5937142Y-60450952D02*
X6080000Y-60260476D01*
X6222857Y-60450952D01*
X6841904Y-60022380D02*
X6841904Y-60260476D01*
X6603809Y-60165238D02*
X6841904Y-60260476D01*
X7080000Y-60165238D01*
X6699047Y-60450952D02*
X6841904Y-60260476D01*
X6984761Y-60450952D01*
X3746666Y-1332380D02*
X3413333Y-856190D01*
X3175238Y-1332380D02*
X3175238Y-332380D01*
X3556190Y-332380D01*
X3651428Y-380000D01*
X3699047Y-427619D01*
X3746666Y-522857D01*
X3746666Y-665714D01*
X3699047Y-760952D01*
X3651428Y-808571D01*
X3556190Y-856190D01*
X3175238Y-856190D01*
X4175238Y-808571D02*
X4508571Y-808571D01*
X4651428Y-1332380D02*
X4175238Y-1332380D01*
X4175238Y-332380D01*
X4651428Y-332380D01*
X5413333Y-808571D02*
X5080000Y-808571D01*
X5080000Y-1332380D02*
X5080000Y-332380D01*
X5556190Y-332380D01*
X6080000Y-332380D02*
X6080000Y-570476D01*
X5841904Y-475238D02*
X6080000Y-570476D01*
X6318095Y-475238D01*
X5937142Y-760952D02*
X6080000Y-570476D01*
X6222857Y-760952D01*
X6841904Y-332380D02*
X6841904Y-570476D01*
X6603809Y-475238D02*
X6841904Y-570476D01*
X7080000Y-475238D01*
X6699047Y-760952D02*
X6841904Y-570476D01*
X6984761Y-760952D01*
X63436666Y-1332380D02*
X63103333Y-856190D01*
X62865238Y-1332380D02*
X62865238Y-332380D01*
X63246190Y-332380D01*
X63341428Y-380000D01*
X63389047Y-427619D01*
X63436666Y-522857D01*
X63436666Y-665714D01*
X63389047Y-760952D01*
X63341428Y-808571D01*
X63246190Y-856190D01*
X62865238Y-856190D01*
X63865238Y-808571D02*
X64198571Y-808571D01*
X64341428Y-1332380D02*
X63865238Y-1332380D01*
X63865238Y-332380D01*
X64341428Y-332380D01*
X65103333Y-808571D02*
X64770000Y-808571D01*
X64770000Y-1332380D02*
X64770000Y-332380D01*
X65246190Y-332380D01*
X65770000Y-332380D02*
X65770000Y-570476D01*
X65531904Y-475238D02*
X65770000Y-570476D01*
X66008095Y-475238D01*
X65627142Y-760952D02*
X65770000Y-570476D01*
X65912857Y-760952D01*
X66531904Y-332380D02*
X66531904Y-570476D01*
X66293809Y-475238D02*
X66531904Y-570476D01*
X66770000Y-475238D01*
X66389047Y-760952D02*
X66531904Y-570476D01*
X66674761Y-760952D01*
X29424380Y-57483333D02*
X30138666Y-57483333D01*
X30281523Y-57530952D01*
X30376761Y-57626190D01*
X30424380Y-57769047D01*
X30424380Y-57864285D01*
X29424380Y-57102380D02*
X29424380Y-56483333D01*
X29805333Y-56816666D01*
X29805333Y-56673809D01*
X29852952Y-56578571D01*
X29900571Y-56530952D01*
X29995809Y-56483333D01*
X30233904Y-56483333D01*
X30329142Y-56530952D01*
X30376761Y-56578571D01*
X30424380Y-56673809D01*
X30424380Y-56959523D01*
X30376761Y-57054761D01*
X30329142Y-57102380D01*
X12366666Y-39584380D02*
X12366666Y-40298666D01*
X12319047Y-40441523D01*
X12223809Y-40536761D01*
X12080952Y-40584380D01*
X11985714Y-40584380D01*
X12795238Y-39679619D02*
X12842857Y-39632000D01*
X12938095Y-39584380D01*
X13176190Y-39584380D01*
X13271428Y-39632000D01*
X13319047Y-39679619D01*
X13366666Y-39774857D01*
X13366666Y-39870095D01*
X13319047Y-40012952D01*
X12747619Y-40584380D01*
X13366666Y-40584380D01*
X39838380Y-13033333D02*
X40552666Y-13033333D01*
X40695523Y-13080952D01*
X40790761Y-13176190D01*
X40838380Y-13319047D01*
X40838380Y-13414285D01*
X40838380Y-12033333D02*
X40838380Y-12604761D01*
X40838380Y-12319047D02*
X39838380Y-12319047D01*
X39981238Y-12414285D01*
X40076476Y-12509523D01*
X40124095Y-12604761D01*
X56816666Y-29170380D02*
X56816666Y-29884666D01*
X56769047Y-30027523D01*
X56673809Y-30122761D01*
X56530952Y-30170380D01*
X56435714Y-30170380D01*
X57721428Y-29503714D02*
X57721428Y-30170380D01*
X57483333Y-29122761D02*
X57245238Y-29837047D01*
X57864285Y-29837047D01*
X6642380Y-45632666D02*
X6166190Y-45966000D01*
X6642380Y-46204095D02*
X5642380Y-46204095D01*
X5642380Y-45823142D01*
X5690000Y-45727904D01*
X5737619Y-45680285D01*
X5832857Y-45632666D01*
X5975714Y-45632666D01*
X6070952Y-45680285D01*
X6118571Y-45727904D01*
X6166190Y-45823142D01*
X6166190Y-46204095D01*
X6642380Y-44680285D02*
X6642380Y-45251714D01*
X6642380Y-44966000D02*
X5642380Y-44966000D01*
X5785238Y-45061238D01*
X5880476Y-45156476D01*
X5928095Y-45251714D01*
X9502380Y-46132666D02*
X9502380Y-46704095D01*
X9502380Y-46418380D02*
X8502380Y-46418380D01*
X8645238Y-46513619D01*
X8740476Y-46608857D01*
X8788095Y-46704095D01*
X8502380Y-45513619D02*
X8502380Y-45418380D01*
X8550000Y-45323142D01*
X8597619Y-45275523D01*
X8692857Y-45227904D01*
X8883333Y-45180285D01*
X9121428Y-45180285D01*
X9311904Y-45227904D01*
X9407142Y-45275523D01*
X9454761Y-45323142D01*
X9502380Y-45418380D01*
X9502380Y-45513619D01*
X9454761Y-45608857D01*
X9407142Y-45656476D01*
X9311904Y-45704095D01*
X9121428Y-45751714D01*
X8883333Y-45751714D01*
X8692857Y-45704095D01*
X8597619Y-45656476D01*
X8550000Y-45608857D01*
X8502380Y-45513619D01*
X8502380Y-44561238D02*
X8502380Y-44466000D01*
X8550000Y-44370761D01*
X8597619Y-44323142D01*
X8692857Y-44275523D01*
X8883333Y-44227904D01*
X9121428Y-44227904D01*
X9311904Y-44275523D01*
X9407142Y-44323142D01*
X9454761Y-44370761D01*
X9502380Y-44466000D01*
X9502380Y-44561238D01*
X9454761Y-44656476D01*
X9407142Y-44704095D01*
X9311904Y-44751714D01*
X9121428Y-44799333D01*
X8883333Y-44799333D01*
X8692857Y-44751714D01*
X8597619Y-44704095D01*
X8550000Y-44656476D01*
X8502380Y-44561238D01*
X1816380Y-45632666D02*
X1340190Y-45966000D01*
X1816380Y-46204095D02*
X816380Y-46204095D01*
X816380Y-45823142D01*
X864000Y-45727904D01*
X911619Y-45680285D01*
X1006857Y-45632666D01*
X1149714Y-45632666D01*
X1244952Y-45680285D01*
X1292571Y-45727904D01*
X1340190Y-45823142D01*
X1340190Y-46204095D01*
X911619Y-45251714D02*
X864000Y-45204095D01*
X816380Y-45108857D01*
X816380Y-44870761D01*
X864000Y-44775523D01*
X911619Y-44727904D01*
X1006857Y-44680285D01*
X1102095Y-44680285D01*
X1244952Y-44727904D01*
X1816380Y-45299333D01*
X1816380Y-44680285D01*
X4676380Y-46132666D02*
X4676380Y-46704095D01*
X4676380Y-46418380D02*
X3676380Y-46418380D01*
X3819238Y-46513619D01*
X3914476Y-46608857D01*
X3962095Y-46704095D01*
X3676380Y-45513619D02*
X3676380Y-45418380D01*
X3724000Y-45323142D01*
X3771619Y-45275523D01*
X3866857Y-45227904D01*
X4057333Y-45180285D01*
X4295428Y-45180285D01*
X4485904Y-45227904D01*
X4581142Y-45275523D01*
X4628761Y-45323142D01*
X4676380Y-45418380D01*
X4676380Y-45513619D01*
X4628761Y-45608857D01*
X4581142Y-45656476D01*
X4485904Y-45704095D01*
X4295428Y-45751714D01*
X4057333Y-45751714D01*
X3866857Y-45704095D01*
X3771619Y-45656476D01*
X3724000Y-45608857D01*
X3676380Y-45513619D01*
X3676380Y-44561238D02*
X3676380Y-44466000D01*
X3724000Y-44370761D01*
X3771619Y-44323142D01*
X3866857Y-44275523D01*
X4057333Y-44227904D01*
X4295428Y-44227904D01*
X4485904Y-44275523D01*
X4581142Y-44323142D01*
X4628761Y-44370761D01*
X4676380Y-44466000D01*
X4676380Y-44561238D01*
X4628761Y-44656476D01*
X4581142Y-44704095D01*
X4485904Y-44751714D01*
X4295428Y-44799333D01*
X4057333Y-44799333D01*
X3866857Y-44751714D01*
X3771619Y-44704095D01*
X3724000Y-44656476D01*
X3676380Y-44561238D01*
X51498666Y-13866761D02*
X51641523Y-13914380D01*
X51879619Y-13914380D01*
X51974857Y-13866761D01*
X52022476Y-13819142D01*
X52070095Y-13723904D01*
X52070095Y-13628666D01*
X52022476Y-13533428D01*
X51974857Y-13485809D01*
X51879619Y-13438190D01*
X51689142Y-13390571D01*
X51593904Y-13342952D01*
X51546285Y-13295333D01*
X51498666Y-13200095D01*
X51498666Y-13104857D01*
X51546285Y-13009619D01*
X51593904Y-12962000D01*
X51689142Y-12914380D01*
X51927238Y-12914380D01*
X52070095Y-12962000D01*
X52403428Y-12914380D02*
X52641523Y-13914380D01*
X52832000Y-13200095D01*
X53022476Y-13914380D01*
X53260571Y-12914380D01*
X54165333Y-13914380D02*
X53593904Y-13914380D01*
X53879619Y-13914380D02*
X53879619Y-12914380D01*
X53784380Y-13057238D01*
X53689142Y-13152476D01*
X53593904Y-13200095D01*
X15938666Y-56538761D02*
X16081523Y-56586380D01*
X16319619Y-56586380D01*
X16414857Y-56538761D01*
X16462476Y-56491142D01*
X16510095Y-56395904D01*
X16510095Y-56300666D01*
X16462476Y-56205428D01*
X16414857Y-56157809D01*
X16319619Y-56110190D01*
X16129142Y-56062571D01*
X16033904Y-56014952D01*
X15986285Y-55967333D01*
X15938666Y-55872095D01*
X15938666Y-55776857D01*
X15986285Y-55681619D01*
X16033904Y-55634000D01*
X16129142Y-55586380D01*
X16367238Y-55586380D01*
X16510095Y-55634000D01*
X16843428Y-55586380D02*
X17081523Y-56586380D01*
X17272000Y-55872095D01*
X17462476Y-56586380D01*
X17700571Y-55586380D01*
X18033904Y-55681619D02*
X18081523Y-55634000D01*
X18176761Y-55586380D01*
X18414857Y-55586380D01*
X18510095Y-55634000D01*
X18557714Y-55681619D01*
X18605333Y-55776857D01*
X18605333Y-55872095D01*
X18557714Y-56014952D01*
X17986285Y-56586380D01*
X18605333Y-56586380D01*
X1928761Y-55181333D02*
X1976380Y-55038476D01*
X1976380Y-54800380D01*
X1928761Y-54705142D01*
X1881142Y-54657523D01*
X1785904Y-54609904D01*
X1690666Y-54609904D01*
X1595428Y-54657523D01*
X1547809Y-54705142D01*
X1500190Y-54800380D01*
X1452571Y-54990857D01*
X1404952Y-55086095D01*
X1357333Y-55133714D01*
X1262095Y-55181333D01*
X1166857Y-55181333D01*
X1071619Y-55133714D01*
X1024000Y-55086095D01*
X976380Y-54990857D01*
X976380Y-54752761D01*
X1024000Y-54609904D01*
X976380Y-54276571D02*
X1976380Y-54038476D01*
X1262095Y-53848000D01*
X1976380Y-53657523D01*
X976380Y-53419428D01*
X976380Y-53133714D02*
X976380Y-52514666D01*
X1357333Y-52848000D01*
X1357333Y-52705142D01*
X1404952Y-52609904D01*
X1452571Y-52562285D01*
X1547809Y-52514666D01*
X1785904Y-52514666D01*
X1881142Y-52562285D01*
X1928761Y-52609904D01*
X1976380Y-52705142D01*
X1976380Y-52990857D01*
X1928761Y-53086095D01*
X1881142Y-53133714D01*
M02*
